<?xml version="1.0" encoding="utf-8" standalone="no"?>
<!DOCTYPE svg PUBLIC "-//W3C//DTD SVG 1.1//EN"
  "http://www.w3.org/Graphics/SVG/1.1/DTD/svg11.dtd">
<svg xmlns:xlink="http://www.w3.org/1999/xlink" width="460.8pt" height="345.6pt" viewBox="0 0 460.8 345.6" xmlns="http://www.w3.org/2000/svg" version="1.1">
 <metadata>
  <rdf:RDF xmlns:dc="http://purl.org/dc/elements/1.1/" xmlns:cc="http://creativecommons.org/ns#" xmlns:rdf="http://www.w3.org/1999/02/22-rdf-syntax-ns#">
   <cc:Work>
    <dc:type rdf:resource="http://purl.org/dc/dcmitype/StillImage"/>
    <dc:date>2023-06-19T12:37:16.652732</dc:date>
    <dc:format>image/svg+xml</dc:format>
    <dc:creator>
     <cc:Agent>
      <dc:title>Matplotlib v3.7.1, https://matplotlib.org/</dc:title>
     </cc:Agent>
    </dc:creator>
   </cc:Work>
  </rdf:RDF>
 </metadata>
 <defs>
  <style type="text/css">*{stroke-linejoin: round; stroke-linecap: butt}</style>
 </defs>
 <g id="figure_1">
  <g id="patch_1">
   <path d="M 0 345.6 
L 460.8 345.6 
L 460.8 0 
L 0 0 
z
" style="fill: #ffffff"/>
  </g>
  <g id="axes_1">
   <g id="patch_2">
    <path d="M 57.6 307.584 
L 414.72 307.584 
L 414.72 41.472 
L 57.6 41.472 
z
" style="fill: #ffffff"/>
   </g>
   <g id="matplotlib.axis_1">
    <g id="xtick_1">
     <g id="line2d_1">
      <defs>
       <path id="me17c5f1198" d="M 0 0 
L 0 3.5 
" style="stroke: #000000; stroke-width: 0.8"/>
      </defs>
      <g>
       <use xlink:href="#me17c5f1198" x="73.832727" y="307.584" style="stroke: #000000; stroke-width: 0.8"/>
      </g>
     </g>
     <g id="text_1">
      <!-- 0 -->
      <g transform="translate(70.651477 322.182437) scale(0.1 -0.1)">
       <defs>
        <path id="DejaVuSans-30" d="M 2034 4250 
Q 1547 4250 1301 3770 
Q 1056 3291 1056 2328 
Q 1056 1369 1301 889 
Q 1547 409 2034 409 
Q 2525 409 2770 889 
Q 3016 1369 3016 2328 
Q 3016 3291 2770 3770 
Q 2525 4250 2034 4250 
z
M 2034 4750 
Q 2819 4750 3233 4129 
Q 3647 3509 3647 2328 
Q 3647 1150 3233 529 
Q 2819 -91 2034 -91 
Q 1250 -91 836 529 
Q 422 1150 422 2328 
Q 422 3509 836 4129 
Q 1250 4750 2034 4750 
z
" transform="scale(0.015625)"/>
       </defs>
       <use xlink:href="#DejaVuSans-30"/>
      </g>
     </g>
    </g>
    <g id="xtick_2">
     <g id="line2d_2">
      <g>
       <use xlink:href="#me17c5f1198" x="124.959427" y="307.584" style="stroke: #000000; stroke-width: 0.8"/>
      </g>
     </g>
     <g id="text_2">
      <!-- 20 -->
      <g transform="translate(118.596927 322.182437) scale(0.1 -0.1)">
       <defs>
        <path id="DejaVuSans-32" d="M 1228 531 
L 3431 531 
L 3431 0 
L 469 0 
L 469 531 
Q 828 903 1448 1529 
Q 2069 2156 2228 2338 
Q 2531 2678 2651 2914 
Q 2772 3150 2772 3378 
Q 2772 3750 2511 3984 
Q 2250 4219 1831 4219 
Q 1534 4219 1204 4116 
Q 875 4013 500 3803 
L 500 4441 
Q 881 4594 1212 4672 
Q 1544 4750 1819 4750 
Q 2544 4750 2975 4387 
Q 3406 4025 3406 3419 
Q 3406 3131 3298 2873 
Q 3191 2616 2906 2266 
Q 2828 2175 2409 1742 
Q 1991 1309 1228 531 
z
" transform="scale(0.015625)"/>
       </defs>
       <use xlink:href="#DejaVuSans-32"/>
       <use xlink:href="#DejaVuSans-30" x="63.623047"/>
      </g>
     </g>
    </g>
    <g id="xtick_3">
     <g id="line2d_3">
      <g>
       <use xlink:href="#me17c5f1198" x="176.086127" y="307.584" style="stroke: #000000; stroke-width: 0.8"/>
      </g>
     </g>
     <g id="text_3">
      <!-- 40 -->
      <g transform="translate(169.723627 322.182437) scale(0.1 -0.1)">
       <defs>
        <path id="DejaVuSans-34" d="M 2419 4116 
L 825 1625 
L 2419 1625 
L 2419 4116 
z
M 2253 4666 
L 3047 4666 
L 3047 1625 
L 3713 1625 
L 3713 1100 
L 3047 1100 
L 3047 0 
L 2419 0 
L 2419 1100 
L 313 1100 
L 313 1709 
L 2253 4666 
z
" transform="scale(0.015625)"/>
       </defs>
       <use xlink:href="#DejaVuSans-34"/>
       <use xlink:href="#DejaVuSans-30" x="63.623047"/>
      </g>
     </g>
    </g>
    <g id="xtick_4">
     <g id="line2d_4">
      <g>
       <use xlink:href="#me17c5f1198" x="227.212827" y="307.584" style="stroke: #000000; stroke-width: 0.8"/>
      </g>
     </g>
     <g id="text_4">
      <!-- 60 -->
      <g transform="translate(220.850327 322.182437) scale(0.1 -0.1)">
       <defs>
        <path id="DejaVuSans-36" d="M 2113 2584 
Q 1688 2584 1439 2293 
Q 1191 2003 1191 1497 
Q 1191 994 1439 701 
Q 1688 409 2113 409 
Q 2538 409 2786 701 
Q 3034 994 3034 1497 
Q 3034 2003 2786 2293 
Q 2538 2584 2113 2584 
z
M 3366 4563 
L 3366 3988 
Q 3128 4100 2886 4159 
Q 2644 4219 2406 4219 
Q 1781 4219 1451 3797 
Q 1122 3375 1075 2522 
Q 1259 2794 1537 2939 
Q 1816 3084 2150 3084 
Q 2853 3084 3261 2657 
Q 3669 2231 3669 1497 
Q 3669 778 3244 343 
Q 2819 -91 2113 -91 
Q 1303 -91 875 529 
Q 447 1150 447 2328 
Q 447 3434 972 4092 
Q 1497 4750 2381 4750 
Q 2619 4750 2861 4703 
Q 3103 4656 3366 4563 
z
" transform="scale(0.015625)"/>
       </defs>
       <use xlink:href="#DejaVuSans-36"/>
       <use xlink:href="#DejaVuSans-30" x="63.623047"/>
      </g>
     </g>
    </g>
    <g id="xtick_5">
     <g id="line2d_5">
      <g>
       <use xlink:href="#me17c5f1198" x="278.339528" y="307.584" style="stroke: #000000; stroke-width: 0.8"/>
      </g>
     </g>
     <g id="text_5">
      <!-- 80 -->
      <g transform="translate(271.977028 322.182437) scale(0.1 -0.1)">
       <defs>
        <path id="DejaVuSans-38" d="M 2034 2216 
Q 1584 2216 1326 1975 
Q 1069 1734 1069 1313 
Q 1069 891 1326 650 
Q 1584 409 2034 409 
Q 2484 409 2743 651 
Q 3003 894 3003 1313 
Q 3003 1734 2745 1975 
Q 2488 2216 2034 2216 
z
M 1403 2484 
Q 997 2584 770 2862 
Q 544 3141 544 3541 
Q 544 4100 942 4425 
Q 1341 4750 2034 4750 
Q 2731 4750 3128 4425 
Q 3525 4100 3525 3541 
Q 3525 3141 3298 2862 
Q 3072 2584 2669 2484 
Q 3125 2378 3379 2068 
Q 3634 1759 3634 1313 
Q 3634 634 3220 271 
Q 2806 -91 2034 -91 
Q 1263 -91 848 271 
Q 434 634 434 1313 
Q 434 1759 690 2068 
Q 947 2378 1403 2484 
z
M 1172 3481 
Q 1172 3119 1398 2916 
Q 1625 2713 2034 2713 
Q 2441 2713 2670 2916 
Q 2900 3119 2900 3481 
Q 2900 3844 2670 4047 
Q 2441 4250 2034 4250 
Q 1625 4250 1398 4047 
Q 1172 3844 1172 3481 
z
" transform="scale(0.015625)"/>
       </defs>
       <use xlink:href="#DejaVuSans-38"/>
       <use xlink:href="#DejaVuSans-30" x="63.623047"/>
      </g>
     </g>
    </g>
    <g id="xtick_6">
     <g id="line2d_6">
      <g>
       <use xlink:href="#me17c5f1198" x="329.466228" y="307.584" style="stroke: #000000; stroke-width: 0.8"/>
      </g>
     </g>
     <g id="text_6">
      <!-- 100 -->
      <g transform="translate(319.922478 322.182437) scale(0.1 -0.1)">
       <defs>
        <path id="DejaVuSans-31" d="M 794 531 
L 1825 531 
L 1825 4091 
L 703 3866 
L 703 4441 
L 1819 4666 
L 2450 4666 
L 2450 531 
L 3481 531 
L 3481 0 
L 794 0 
L 794 531 
z
" transform="scale(0.015625)"/>
       </defs>
       <use xlink:href="#DejaVuSans-31"/>
       <use xlink:href="#DejaVuSans-30" x="63.623047"/>
       <use xlink:href="#DejaVuSans-30" x="127.246094"/>
      </g>
     </g>
    </g>
    <g id="xtick_7">
     <g id="line2d_7">
      <g>
       <use xlink:href="#me17c5f1198" x="380.592928" y="307.584" style="stroke: #000000; stroke-width: 0.8"/>
      </g>
     </g>
     <g id="text_7">
      <!-- 120 -->
      <g transform="translate(371.049178 322.182437) scale(0.1 -0.1)">
       <use xlink:href="#DejaVuSans-31"/>
       <use xlink:href="#DejaVuSans-32" x="63.623047"/>
       <use xlink:href="#DejaVuSans-30" x="127.246094"/>
      </g>
     </g>
    </g>
   </g>
   <g id="matplotlib.axis_2">
    <g id="ytick_1">
     <g id="line2d_8">
      <defs>
       <path id="m30c1bfb7b3" d="M 0 0 
L -3.5 0 
" style="stroke: #000000; stroke-width: 0.8"/>
      </defs>
      <g>
       <use xlink:href="#m30c1bfb7b3" x="57.6" y="291.343183" style="stroke: #000000; stroke-width: 0.8"/>
      </g>
     </g>
     <g id="text_8">
      <!-- −2 -->
      <g transform="translate(35.857813 295.142402) scale(0.1 -0.1)">
       <defs>
        <path id="DejaVuSans-2212" d="M 678 2272 
L 4684 2272 
L 4684 1741 
L 678 1741 
L 678 2272 
z
" transform="scale(0.015625)"/>
       </defs>
       <use xlink:href="#DejaVuSans-2212"/>
       <use xlink:href="#DejaVuSans-32" x="83.789062"/>
      </g>
     </g>
    </g>
    <g id="ytick_2">
     <g id="line2d_9">
      <g>
       <use xlink:href="#m30c1bfb7b3" x="57.6" y="235.184411" style="stroke: #000000; stroke-width: 0.8"/>
      </g>
     </g>
     <g id="text_9">
      <!-- −1 -->
      <g transform="translate(35.857813 238.983629) scale(0.1 -0.1)">
       <use xlink:href="#DejaVuSans-2212"/>
       <use xlink:href="#DejaVuSans-31" x="83.789062"/>
      </g>
     </g>
    </g>
    <g id="ytick_3">
     <g id="line2d_10">
      <g>
       <use xlink:href="#m30c1bfb7b3" x="57.6" y="179.025638" style="stroke: #000000; stroke-width: 0.8"/>
      </g>
     </g>
     <g id="text_10">
      <!-- 0 -->
      <g transform="translate(44.2375 182.824857) scale(0.1 -0.1)">
       <use xlink:href="#DejaVuSans-30"/>
      </g>
     </g>
    </g>
    <g id="ytick_4">
     <g id="line2d_11">
      <g>
       <use xlink:href="#m30c1bfb7b3" x="57.6" y="122.866866" style="stroke: #000000; stroke-width: 0.8"/>
      </g>
     </g>
     <g id="text_11">
      <!-- 1 -->
      <g transform="translate(44.2375 126.666084) scale(0.1 -0.1)">
       <use xlink:href="#DejaVuSans-31"/>
      </g>
     </g>
    </g>
    <g id="ytick_5">
     <g id="line2d_12">
      <g>
       <use xlink:href="#m30c1bfb7b3" x="57.6" y="66.708093" style="stroke: #000000; stroke-width: 0.8"/>
      </g>
     </g>
     <g id="text_12">
      <!-- 2 -->
      <g transform="translate(44.2375 70.507312) scale(0.1 -0.1)">
       <use xlink:href="#DejaVuSans-32"/>
      </g>
     </g>
    </g>
   </g>
   <g id="line2d_13">
    <path d="M 73.832727 281.972913 
L 76.389062 281.150817 
L 78.945397 279.439879 
L 81.501732 277.227425 
L 84.058067 274.613668 
L 86.614402 271.174279 
L 89.170737 265.991685 
L 91.727072 257.977476 
L 94.283407 246.359096 
L 96.839742 231.112455 
L 99.396077 213.13254 
L 104.508747 175.740326 
L 107.065082 159.774209 
L 109.621417 146.956426 
L 112.177752 137.207838 
L 114.734087 129.762824 
L 117.290422 123.580231 
L 122.403092 111.829079 
L 130.072097 93.525438 
L 135.184767 82.24647 
L 137.741102 77.105543 
L 140.297437 72.706531 
L 142.853772 69.69718 
L 145.410107 68.824767 
L 147.966442 70.616402 
L 150.522777 75.067927 
L 153.079112 81.508707 
L 155.635447 88.740774 
L 158.191782 95.420947 
L 160.748117 100.531386 
L 163.304452 103.732271 
L 165.860787 105.434178 
L 168.417122 106.555873 
L 170.973457 108.078115 
L 173.529792 110.598871 
L 176.086127 114.092861 
L 178.642462 117.977932 
L 181.198797 121.444595 
L 183.755132 123.87993 
L 186.311467 125.179056 
L 191.424137 126.524473 
L 193.980472 128.111091 
L 196.536807 130.918856 
L 199.093142 134.781721 
L 204.205812 143.297396 
L 206.762147 146.883873 
L 211.874817 152.91972 
L 214.431152 156.452727 
L 216.987487 160.978926 
L 219.543822 166.517263 
L 224.656492 178.605807 
L 227.212827 183.794553 
L 229.769162 187.882047 
L 232.325497 191.022394 
L 234.881832 193.743101 
L 237.438168 196.689756 
L 239.994503 200.337529 
L 242.550838 204.805323 
L 250.219843 219.854984 
L 252.776178 224.122607 
L 255.332513 227.797728 
L 257.888848 231.02195 
L 260.445183 233.95602 
L 263.001518 236.671064 
L 265.557853 239.134895 
L 268.114188 241.293497 
L 275.783193 247.105261 
L 278.339528 249.75432 
L 280.895863 253.084853 
L 288.564868 264.509216 
L 291.121203 267.414331 
L 293.677538 269.586128 
L 298.790208 272.999414 
L 301.346543 275.024083 
L 306.459213 279.918165 
L 309.015548 281.972913 
L 398.487273 281.972913 
L 398.487273 281.972913 
" clip-path="url(#pfa81f6a07d)" style="fill: none; stroke: #3b4cc0; stroke-width: 1.5; stroke-linecap: square"/>
   </g>
   <g id="line2d_14">
    <path d="M 73.832727 295.488 
L 76.389062 295.465265 
L 78.945397 293.910246 
L 81.501732 291.028836 
L 84.058067 286.964402 
L 86.614402 281.592329 
L 89.170737 274.446938 
L 91.727072 264.839643 
L 94.283407 252.142274 
L 96.839742 236.127874 
L 99.396077 217.221296 
L 104.508747 175.65991 
L 107.065082 156.240376 
L 109.621417 139.538047 
L 112.177752 126.098382 
L 114.734087 115.677718 
L 117.290422 107.441581 
L 122.403092 93.551594 
L 127.515762 79.849505 
L 130.072097 73.510939 
L 132.628432 68.122498 
L 135.184767 63.906691 
L 137.741102 60.752937 
L 140.297437 58.323355 
L 142.853772 56.29477 
L 145.410107 54.604934 
L 147.966442 53.568 
L 150.522777 53.788615 
L 153.079112 55.902731 
L 155.635447 60.260304 
L 158.191782 66.697998 
L 165.860787 90.041155 
L 168.417122 95.935933 
L 170.973457 100.089694 
L 173.529792 102.75506 
L 176.086127 104.487555 
L 181.198797 107.346658 
L 183.755132 109.063112 
L 186.311467 111.038267 
L 188.867802 113.274092 
L 191.424137 115.887147 
L 193.980472 119.11467 
L 196.536807 123.193387 
L 199.093142 128.180551 
L 204.205812 139.596548 
L 206.762147 144.843421 
L 209.318482 149.086452 
L 211.874817 152.240528 
L 216.987487 157.1394 
L 219.543822 160.330722 
L 222.100157 164.702875 
L 224.656492 170.208906 
L 229.769162 182.420065 
L 232.325497 187.855179 
L 234.881832 192.490641 
L 239.994503 200.807313 
L 242.550838 205.556563 
L 245.107173 210.998645 
L 247.663508 216.770341 
L 250.219843 222.152985 
L 252.776178 226.414091 
L 255.332513 229.186398 
L 257.888848 230.692085 
L 260.445183 231.690039 
L 263.001518 233.157382 
L 265.557853 235.849638 
L 268.114188 239.949005 
L 273.226858 249.993995 
L 275.783193 254.069167 
L 278.339528 256.67925 
L 280.895863 257.967253 
L 283.452198 258.6659 
L 286.008533 259.75072 
L 288.564868 261.988949 
L 291.121203 265.599077 
L 296.233873 274.931985 
L 298.790208 279.05088 
L 301.346543 282.094863 
L 303.902878 284.145975 
L 309.015548 287.335821 
L 311.571883 289.402525 
L 314.128218 291.79554 
L 316.684553 294.027402 
L 319.240888 295.488 
L 398.487273 295.488 
L 398.487273 295.488 
" clip-path="url(#pfa81f6a07d)" style="fill: none; stroke: #485fd1; stroke-width: 1.5; stroke-linecap: square"/>
   </g>
   <g id="line2d_15">
    <path d="M 73.832727 282.349721 
L 76.389062 282.054032 
L 78.945397 280.922114 
L 81.501732 278.79485 
L 84.058067 275.286219 
L 86.614402 269.795028 
L 89.170737 261.651331 
L 91.727072 250.362515 
L 94.283407 235.871281 
L 96.839742 218.717054 
L 101.952412 181.272466 
L 104.508747 163.988685 
L 107.065082 149.338492 
L 109.621417 137.87498 
L 112.177752 129.450727 
L 114.734087 123.336324 
L 122.403092 108.71175 
L 124.959427 102.669657 
L 127.515762 95.828216 
L 132.628432 81.647995 
L 135.184767 75.607201 
L 137.741102 71.096019 
L 140.297437 68.556854 
L 142.853772 68.201154 
L 145.410107 69.966331 
L 147.966442 73.510819 
L 150.522777 78.264735 
L 155.635447 88.698785 
L 158.191782 93.281686 
L 160.748117 97.128973 
L 163.304452 100.364275 
L 168.417122 106.227346 
L 173.529792 112.61406 
L 176.086127 115.805673 
L 178.642462 118.658035 
L 181.198797 121.016874 
L 183.755132 122.942251 
L 186.311467 124.703716 
L 188.867802 126.66654 
L 191.424137 129.12544 
L 193.980472 132.169754 
L 204.205812 146.040629 
L 206.762147 149.249755 
L 209.318482 152.736647 
L 211.874817 156.846854 
L 214.431152 161.731582 
L 222.100157 178.131481 
L 224.656492 182.527909 
L 227.212827 185.95774 
L 232.325497 191.30608 
L 234.881832 194.391216 
L 237.438168 198.348553 
L 239.994503 203.196542 
L 245.107173 213.898411 
L 247.663508 218.606198 
L 250.219843 222.370072 
L 252.776178 225.19674 
L 255.332513 227.376838 
L 260.445183 231.398159 
L 263.001518 233.771479 
L 265.557853 236.431162 
L 273.226858 245.037358 
L 278.339528 251.141337 
L 283.452198 257.526504 
L 286.008533 260.369781 
L 288.564868 262.676147 
L 291.121203 264.398573 
L 296.233873 267.074899 
L 298.790208 268.849355 
L 301.346543 271.311345 
L 303.902878 274.386773 
L 306.459213 277.656244 
L 309.015548 280.499762 
L 311.571883 282.349721 
L 398.487273 282.349721 
L 398.487273 282.349721 
" clip-path="url(#pfa81f6a07d)" style="fill: none; stroke: #5673e0; stroke-width: 1.5; stroke-linecap: square"/>
   </g>
   <g id="line2d_16">
    <path d="M 73.832727 285.149021 
L 76.389062 284.369697 
L 84.058067 280.356356 
L 86.614402 279.325481 
L 89.170737 277.781515 
L 91.727072 274.676008 
L 94.283407 268.923492 
L 96.839742 259.796485 
L 99.396077 247.207924 
L 101.952412 231.771961 
L 109.621417 180.406701 
L 112.177752 165.277284 
L 114.734087 152.01898 
L 117.290422 140.534422 
L 119.846757 130.518031 
L 122.403092 121.636912 
L 124.959427 113.641655 
L 127.515762 106.387603 
L 130.072097 99.794734 
L 132.628432 93.79783 
L 135.184767 88.32991 
L 137.741102 83.350277 
L 140.297437 78.895257 
L 142.853772 75.112895 
L 145.410107 72.248858 
L 147.966442 70.578878 
L 150.522777 70.311039 
L 153.079112 71.499472 
L 155.635447 74.005199 
L 158.191782 77.520692 
L 163.304452 85.967208 
L 165.860787 90.160005 
L 168.417122 94.000162 
L 170.973457 97.37808 
L 173.529792 100.274191 
L 176.086127 102.733443 
L 178.642462 104.847633 
L 186.311467 110.485042 
L 188.867802 112.585815 
L 191.424137 114.919188 
L 196.536807 120.092604 
L 204.205812 128.087338 
L 206.762147 130.9334 
L 209.318482 134.082603 
L 211.874817 137.612844 
L 222.100157 152.890593 
L 224.656492 155.921414 
L 232.325497 163.838926 
L 234.881832 167.288551 
L 237.438168 171.656349 
L 239.994503 176.975519 
L 242.550838 183.048509 
L 247.663508 195.870901 
L 250.219843 201.714394 
L 252.776178 206.678239 
L 255.332513 210.556985 
L 257.888848 213.324389 
L 260.445183 215.150016 
L 265.557853 217.590208 
L 268.114188 219.327409 
L 270.670523 222.148453 
L 273.226858 226.370084 
L 275.783193 231.946986 
L 280.895863 244.978486 
L 283.452198 250.68657 
L 286.008533 254.736885 
L 288.564868 256.722256 
L 291.121203 256.7791 
L 293.677538 255.558418 
L 296.233873 254.027319 
L 298.790208 253.171649 
L 301.346543 253.708707 
L 303.902878 255.911943 
L 306.459213 259.599167 
L 309.015548 264.266267 
L 314.128218 274.116871 
L 316.684553 278.338677 
L 319.240888 281.698472 
L 321.797223 284.017793 
L 324.353558 285.149021 
L 398.487273 285.149021 
L 398.487273 285.149021 
" clip-path="url(#pfa81f6a07d)" style="fill: none; stroke: #6485ec; stroke-width: 1.5; stroke-linecap: square"/>
   </g>
   <g id="line2d_17">
    <path d="M 73.832727 266.231708 
L 76.389062 266.172045 
L 78.945397 265.612601 
L 81.501732 264.711153 
L 84.058067 263.392696 
L 86.614402 261.304274 
L 89.170737 257.871125 
L 91.727072 252.45245 
L 94.283407 244.559448 
L 96.839742 234.066234 
L 99.396077 221.337574 
L 107.065082 179.45509 
L 109.621417 167.928265 
L 112.177752 158.698565 
L 114.734087 151.602424 
L 117.290422 145.988621 
L 119.846757 140.959304 
L 122.403092 135.672186 
L 124.959427 129.601554 
L 127.515762 122.674997 
L 132.628432 107.968075 
L 135.184767 101.518532 
L 137.741102 96.458289 
L 140.297437 93.09119 
L 142.853772 91.464899 
L 145.410107 91.448537 
L 147.966442 92.83836 
L 150.522777 95.434169 
L 153.079112 99.055839 
L 155.635447 103.504031 
L 163.304452 118.558258 
L 165.860787 122.725562 
L 168.417122 125.877194 
L 170.973457 127.947136 
L 173.529792 129.12452 
L 178.642462 130.397075 
L 181.198797 131.314681 
L 183.755132 132.742508 
L 186.311467 134.681241 
L 188.867802 136.993328 
L 193.980472 142.133003 
L 196.536807 144.886341 
L 199.093142 147.89203 
L 201.649477 151.290199 
L 204.205812 155.14316 
L 209.318482 163.770713 
L 211.874817 168.063028 
L 214.431152 172.028219 
L 216.987487 175.58833 
L 224.656492 185.510271 
L 227.212827 189.446302 
L 229.769162 193.953788 
L 232.325497 198.961361 
L 242.550838 220.26884 
L 247.663508 230.10157 
L 250.219843 234.624688 
L 252.776178 238.718033 
L 255.332513 242.222935 
L 257.888848 245.047661 
L 260.445183 247.247027 
L 265.557853 250.801778 
L 268.114188 252.848599 
L 270.670523 255.384478 
L 278.339528 264.219471 
L 280.895863 266.231708 
L 398.487273 266.231708 
L 398.487273 266.231708 
" clip-path="url(#pfa81f6a07d)" style="fill: none; stroke: #7597f6; stroke-width: 1.5; stroke-linecap: square"/>
   </g>
   <g id="line2d_18">
    <path d="M 73.832727 288.997218 
L 76.389062 288.536004 
L 78.945397 287.145311 
L 86.614402 281.802802 
L 89.170737 279.53655 
L 91.727072 275.717823 
L 94.283407 269.151471 
L 96.839742 258.911888 
L 99.396077 244.709019 
L 101.952412 227.052044 
L 109.621417 167.055532 
L 112.177752 149.686457 
L 114.734087 135.172926 
L 117.290422 123.575815 
L 119.846757 114.48664 
L 122.403092 107.232407 
L 124.959427 101.07941 
L 132.628432 83.778527 
L 137.741102 71.459934 
L 140.297437 65.670182 
L 142.853772 60.753499 
L 145.410107 57.20065 
L 147.966442 55.379411 
L 150.522777 55.439556 
L 153.079112 57.275281 
L 155.635447 60.560613 
L 158.191782 64.845508 
L 163.304452 74.683648 
L 168.417122 84.417444 
L 170.973457 88.938333 
L 173.529792 93.106661 
L 176.086127 96.784453 
L 178.642462 99.81755 
L 181.198797 102.101864 
L 183.755132 103.656287 
L 186.311467 104.664213 
L 188.867802 105.458587 
L 191.424137 106.450218 
L 193.980472 108.022068 
L 196.536807 110.426798 
L 199.093142 113.721602 
L 201.649477 117.761494 
L 209.318482 131.192336 
L 211.874817 135.143711 
L 214.431152 138.671208 
L 219.543822 145.177996 
L 222.100157 148.719716 
L 224.656492 152.78086 
L 227.212827 157.44658 
L 229.769162 162.626115 
L 234.881832 173.493623 
L 237.438168 178.598613 
L 239.994503 183.259465 
L 250.219843 200.459974 
L 252.776178 205.516508 
L 257.888848 216.315329 
L 260.445183 221.389514 
L 263.001518 225.832812 
L 265.557853 229.538172 
L 268.114188 232.617964 
L 273.226858 238.057405 
L 275.783193 240.981272 
L 278.339528 244.193224 
L 283.452198 250.9714 
L 286.008533 254.133965 
L 288.564868 256.97909 
L 293.677538 261.945092 
L 301.346543 269.275965 
L 303.902878 271.671651 
L 306.459213 273.857554 
L 309.015548 275.783129 
L 316.684553 280.956953 
L 324.353558 286.766414 
L 326.909893 288.209747 
L 329.466228 288.997218 
L 398.487273 288.997218 
L 398.487273 288.997218 
" clip-path="url(#pfa81f6a07d)" style="fill: none; stroke: #85a8fc; stroke-width: 1.5; stroke-linecap: square"/>
   </g>
   <g id="line2d_19">
    <path d="M 73.832727 271.392344 
L 76.389062 271.394875 
L 78.945397 270.533387 
L 84.058067 268.105714 
L 86.614402 267.008247 
L 89.170737 265.423497 
L 91.727072 262.238518 
L 94.283407 256.165094 
L 96.839742 246.26207 
L 99.396077 232.401342 
L 101.952412 215.467864 
L 107.065082 179.629268 
L 109.621417 164.577679 
L 112.177752 153.004407 
L 114.734087 144.852355 
L 117.290422 139.189932 
L 122.403092 129.974131 
L 124.959427 124.400154 
L 127.515762 117.83381 
L 132.628432 103.697707 
L 135.184767 97.391945 
L 137.741102 92.136754 
L 140.297437 88.028028 
L 142.853772 85.051474 
L 145.410107 83.244448 
L 147.966442 82.770949 
L 150.522777 83.859706 
L 153.079112 86.637784 
L 155.635447 90.954158 
L 163.304452 106.843555 
L 165.860787 110.522485 
L 168.417122 112.667785 
L 170.973457 113.497118 
L 176.086127 113.659014 
L 178.642462 114.297938 
L 181.198797 115.798409 
L 183.755132 118.098335 
L 188.867802 123.635113 
L 191.424137 126.036343 
L 193.980472 127.872075 
L 196.536807 129.19466 
L 199.093142 130.272217 
L 201.649477 131.502208 
L 204.205812 133.297207 
L 206.762147 135.970202 
L 209.318482 139.643451 
L 211.874817 144.200675 
L 216.987487 154.453594 
L 219.543822 159.16385 
L 222.100157 163.077842 
L 224.656492 166.109956 
L 227.212827 168.479774 
L 229.769162 170.640089 
L 232.325497 173.114565 
L 234.881832 176.304531 
L 237.438168 180.347069 
L 239.994503 185.086768 
L 247.663508 200.142046 
L 252.776178 209.708469 
L 255.332513 214.875297 
L 263.001518 231.507707 
L 265.557853 235.932404 
L 268.114188 239.050616 
L 270.670523 240.893606 
L 275.783193 242.940093 
L 278.339528 244.629869 
L 280.895863 247.395796 
L 283.452198 251.110916 
L 286.008533 255.184449 
L 288.564868 258.823097 
L 291.121203 261.385513 
L 293.677538 262.66794 
L 296.233873 262.987368 
L 298.790208 263.024932 
L 301.346543 263.501879 
L 303.902878 264.842388 
L 306.459213 266.980692 
L 309.015548 269.401878 
L 311.571883 271.392344 
L 398.487273 271.392344 
L 398.487273 271.392344 
" clip-path="url(#pfa81f6a07d)" style="fill: none; stroke: #94b6ff; stroke-width: 1.5; stroke-linecap: square"/>
   </g>
   <g id="line2d_20">
    <path d="M 73.832727 263.986692 
L 76.389062 263.780865 
L 78.945397 263.107678 
L 81.501732 262.16238 
L 84.058067 261.051952 
L 86.614402 259.602628 
L 89.170737 257.263625 
L 91.727072 253.187054 
L 94.283407 246.487185 
L 96.839742 236.59498 
L 99.396077 223.566058 
L 101.952412 208.203114 
L 104.508747 191.919069 
L 107.065082 176.369313 
L 109.621417 162.978903 
L 112.177752 152.535067 
L 114.734087 144.995561 
L 117.290422 139.577583 
L 119.846757 135.084838 
L 122.403092 130.342276 
L 124.959427 124.575828 
L 127.515762 117.610148 
L 132.628432 102.010569 
L 135.184767 94.946029 
L 137.741102 89.291964 
L 140.297437 85.400693 
L 142.853772 83.340275 
L 145.410107 82.99044 
L 147.966442 84.151707 
L 150.522777 86.608542 
L 153.079112 90.129263 
L 155.635447 94.427066 
L 160.748117 103.80209 
L 163.304452 108.013967 
L 165.860787 111.453362 
L 168.417122 114.00976 
L 170.973457 115.800926 
L 178.642462 119.770062 
L 181.198797 121.58389 
L 183.755132 123.787132 
L 191.424137 131.173182 
L 193.980472 133.329796 
L 196.536807 135.210959 
L 204.205812 140.100836 
L 206.762147 142.041829 
L 209.318482 144.445368 
L 211.874817 147.424901 
L 214.431152 150.986405 
L 216.987487 155.010159 
L 222.100157 163.518053 
L 224.656492 167.537049 
L 227.212827 171.255025 
L 234.881832 181.914778 
L 237.438168 185.930587 
L 245.107173 198.963401 
L 247.663508 202.83349 
L 250.219843 206.185583 
L 252.776178 209.072561 
L 257.888848 214.137109 
L 263.001518 218.930724 
L 265.557853 221.047103 
L 268.114188 222.801977 
L 273.226858 225.546716 
L 275.783193 227.190372 
L 278.339528 229.582203 
L 280.895863 232.972419 
L 283.452198 237.277747 
L 288.564868 246.602493 
L 291.121203 250.234346 
L 293.677538 252.496608 
L 296.233873 253.359046 
L 298.790208 253.225977 
L 301.346543 252.785911 
L 303.902878 252.756079 
L 306.459213 253.623592 
L 309.015548 255.482956 
L 314.128218 260.679984 
L 316.684553 262.820658 
L 319.240888 263.986692 
L 398.487273 263.986692 
L 398.487273 263.986692 
" clip-path="url(#pfa81f6a07d)" style="fill: none; stroke: #a5c3fe; stroke-width: 1.5; stroke-linecap: square"/>
   </g>
   <g id="line2d_21">
    <path d="M 73.832727 265.108052 
L 76.389062 264.441097 
L 78.945397 263.04529 
L 81.501732 261.830881 
L 84.058067 261.472229 
L 89.170737 262.502033 
L 91.727072 261.597185 
L 94.283407 257.683902 
L 96.839742 249.692789 
L 99.396077 237.523059 
L 101.952412 222.149832 
L 107.065082 189.009902 
L 109.621417 174.729027 
L 112.177752 163.173113 
L 114.734087 154.120922 
L 117.290422 146.719486 
L 122.403092 133.103283 
L 127.515762 118.802244 
L 130.072097 112.142911 
L 132.628432 106.409514 
L 135.184767 101.746887 
L 137.741102 98.009245 
L 140.297437 94.931053 
L 142.853772 92.360114 
L 145.410107 90.416444 
L 147.966442 89.480586 
L 150.522777 90.014169 
L 153.079112 92.302493 
L 155.635447 96.252148 
L 158.191782 101.348629 
L 160.748117 106.800294 
L 163.304452 111.802522 
L 165.860787 115.801931 
L 168.417122 118.644304 
L 170.973457 120.550826 
L 178.642462 124.758171 
L 181.198797 126.46392 
L 186.311467 130.202465 
L 188.867802 132.180165 
L 191.424137 134.366911 
L 193.980472 136.908025 
L 196.536807 139.840013 
L 201.649477 146.107655 
L 204.205812 148.784423 
L 206.762147 150.843757 
L 209.318482 152.366486 
L 211.874817 153.721357 
L 214.431152 155.433287 
L 216.987487 157.961434 
L 219.543822 161.487113 
L 222.100157 165.812378 
L 224.656492 170.42194 
L 227.212827 174.688112 
L 229.769162 178.131531 
L 232.325497 180.624642 
L 237.438168 184.187914 
L 239.994503 186.486182 
L 242.550838 189.804534 
L 245.107173 194.24256 
L 247.663508 199.512503 
L 250.219843 205.058782 
L 252.776178 210.267013 
L 255.332513 214.67657 
L 257.888848 218.118549 
L 260.445183 220.739136 
L 265.557853 225.107346 
L 268.114188 227.704736 
L 270.670523 230.914143 
L 273.226858 234.714647 
L 278.339528 243.066615 
L 280.895863 246.899809 
L 283.452198 250.103352 
L 286.008533 252.573101 
L 288.564868 254.411739 
L 293.677538 257.365967 
L 296.233873 259.097631 
L 301.346543 263.305672 
L 303.902878 265.108052 
L 398.487273 265.108052 
L 398.487273 265.108052 
" clip-path="url(#pfa81f6a07d)" style="fill: none; stroke: #b5cdfa; stroke-width: 1.5; stroke-linecap: square"/>
   </g>
   <g id="line2d_22">
    <path d="M 73.832727 276.056987 
L 76.389062 275.850993 
L 78.945397 274.976739 
L 81.501732 273.755595 
L 84.058067 272.333317 
L 86.614402 270.506053 
L 89.170737 267.688396 
L 91.727072 263.056062 
L 94.283407 255.825749 
L 96.839742 245.567233 
L 99.396077 232.4264 
L 101.952412 217.163223 
L 107.065082 185.214056 
L 109.621417 170.956314 
L 112.177752 158.814094 
L 114.734087 148.812852 
L 117.290422 140.506016 
L 119.846757 133.215903 
L 132.628432 98.870585 
L 135.184767 93.062496 
L 137.741102 88.252125 
L 140.297437 84.632556 
L 142.853772 82.352614 
L 145.410107 81.538304 
L 147.966442 82.272211 
L 150.522777 84.529579 
L 153.079112 88.104387 
L 155.635447 92.576398 
L 158.191782 97.358385 
L 160.748117 101.826566 
L 163.304452 105.495099 
L 165.860787 108.166652 
L 168.417122 109.992978 
L 170.973457 111.412511 
L 173.529792 112.980398 
L 176.086127 115.153226 
L 178.642462 118.110747 
L 186.311467 128.729502 
L 188.867802 131.167894 
L 191.424137 132.551741 
L 193.980472 133.075493 
L 196.536807 133.255201 
L 199.093142 133.768125 
L 201.649477 135.236479 
L 204.205812 138.029546 
L 206.762147 142.148438 
L 209.318482 147.229765 
L 211.874817 152.665216 
L 214.431152 157.796018 
L 216.987487 162.118336 
L 219.543822 165.433077 
L 222.100157 167.891213 
L 227.212827 172.07168 
L 229.769162 174.80937 
L 232.325497 178.373619 
L 234.881832 182.711565 
L 242.550838 197.10372 
L 245.107173 201.379611 
L 263.001518 228.85099 
L 270.670523 238.81789 
L 273.226858 242.647215 
L 275.783193 247.058559 
L 280.895863 256.665271 
L 283.452198 260.858089 
L 286.008533 264.031191 
L 288.564868 266.092781 
L 291.121203 267.350812 
L 293.677538 268.387666 
L 296.233873 269.782844 
L 298.790208 271.796928 
L 301.346543 274.158104 
L 303.902878 276.056987 
L 398.487273 276.056987 
L 398.487273 276.056987 
" clip-path="url(#pfa81f6a07d)" style="fill: none; stroke: #c3d5f4; stroke-width: 1.5; stroke-linecap: square"/>
   </g>
   <g id="line2d_23">
    <path d="M 73.832727 276.072505 
L 76.389062 275.45878 
L 78.945397 274.698382 
L 84.058067 273.697606 
L 86.614402 272.223813 
L 89.170737 268.521646 
L 91.727072 261.530118 
L 94.283407 250.845654 
L 96.839742 236.92453 
L 104.508747 188.860025 
L 107.065082 175.017172 
L 109.621417 163.18507 
L 112.177752 153.085284 
L 114.734087 144.196658 
L 117.290422 136.050899 
L 119.846757 128.416153 
L 122.403092 121.314584 
L 124.959427 114.907713 
L 127.515762 109.340565 
L 130.072097 104.639537 
L 132.628432 100.714398 
L 135.184767 97.449338 
L 137.741102 94.818938 
L 140.297437 92.954485 
L 142.853772 92.117319 
L 145.410107 92.587966 
L 147.966442 94.523757 
L 150.522777 97.854277 
L 153.079112 102.262221 
L 158.191782 112.297999 
L 160.748117 116.935448 
L 163.304452 120.880597 
L 165.860787 124.027423 
L 168.417122 126.414788 
L 170.973457 128.170238 
L 173.529792 129.464745 
L 181.198797 132.579246 
L 183.755132 134.043395 
L 186.311467 135.970473 
L 188.867802 138.370819 
L 191.424137 141.136558 
L 199.093142 149.794635 
L 204.205812 155.205691 
L 206.762147 158.208108 
L 209.318482 161.68346 
L 211.874817 165.712393 
L 214.431152 170.215335 
L 222.100157 184.293532 
L 227.212827 192.621247 
L 232.325497 200.872025 
L 234.881832 205.387406 
L 245.107173 224.665958 
L 247.663508 228.912631 
L 252.776178 236.542674 
L 255.332513 240.331363 
L 257.888848 244.412513 
L 260.445183 248.920408 
L 265.557853 258.965385 
L 268.114188 263.984235 
L 270.670523 268.499252 
L 273.226858 272.148712 
L 275.783193 274.692604 
L 278.339528 276.072505 
L 398.487273 276.072505 
L 398.487273 276.072505 
" clip-path="url(#pfa81f6a07d)" style="fill: none; stroke: #d1dae9; stroke-width: 1.5; stroke-linecap: square"/>
   </g>
   <g id="line2d_24">
    <path d="M 73.832727 279.738568 
L 76.389062 279.487264 
L 78.945397 276.799196 
L 81.501732 272.534022 
L 84.058067 267.41812 
L 86.614402 261.538693 
L 89.170737 254.238428 
L 91.727072 244.479882 
L 94.283407 231.499978 
L 96.839742 215.413085 
L 101.952412 179.542887 
L 104.508747 163.789886 
L 107.065082 151.438563 
L 109.621417 142.477469 
L 112.177752 135.67553 
L 114.734087 129.196079 
L 117.290422 121.483986 
L 119.846757 112.005416 
L 122.403092 101.488072 
L 124.959427 91.549024 
L 127.515762 83.898448 
L 130.072097 79.512343 
L 132.628432 78.185276 
L 135.184767 78.67983 
L 137.741102 79.393955 
L 140.297437 79.203713 
L 145.410107 76.960055 
L 147.966442 77.492514 
L 150.522777 80.862613 
L 153.079112 87.207358 
L 158.191782 103.310857 
L 160.748117 109.061679 
L 163.304452 111.626151 
L 165.860787 111.539261 
L 168.417122 110.709091 
L 170.973457 111.621813 
L 173.529792 116.253893 
L 176.086127 125.176419 
L 178.642462 137.250148 
L 181.198797 150.038926 
L 183.755132 160.751778 
L 186.311467 167.298898 
L 188.867802 169.023207 
L 191.424137 166.836259 
L 193.980472 162.762569 
L 196.536807 159.141987 
L 199.093142 157.848299 
L 201.649477 159.817597 
L 204.205812 164.997126 
L 206.762147 172.623015 
L 214.431152 199.549753 
L 216.987487 206.77784 
L 219.543822 211.963983 
L 222.100157 214.71793 
L 224.656492 215.048799 
L 227.212827 213.514717 
L 229.769162 211.217898 
L 232.325497 209.563306 
L 234.881832 209.824648 
L 237.438168 212.684568 
L 239.994503 217.962929 
L 245.107173 231.454605 
L 247.663508 237.062802 
L 250.219843 240.920893 
L 252.776178 243.261717 
L 255.332513 244.943292 
L 257.888848 246.993882 
L 260.445183 250.125103 
L 263.001518 254.446705 
L 268.114188 264.569454 
L 270.670523 269.047443 
L 273.226858 272.695149 
L 275.783193 275.611351 
L 278.339528 277.977668 
L 280.895863 279.738568 
L 398.487273 279.738568 
L 398.487273 279.738568 
" clip-path="url(#pfa81f6a07d)" style="fill: none; stroke: #dddcdc; stroke-width: 1.5; stroke-linecap: square"/>
   </g>
   <g id="patch_3">
    <path d="M 57.6 307.584 
L 57.6 41.472 
" style="fill: none; stroke: #000000; stroke-width: 0.8; stroke-linejoin: miter; stroke-linecap: square"/>
   </g>
   <g id="patch_4">
    <path d="M 414.72 307.584 
L 414.72 41.472 
" style="fill: none; stroke: #000000; stroke-width: 0.8; stroke-linejoin: miter; stroke-linecap: square"/>
   </g>
   <g id="patch_5">
    <path d="M 57.6 307.584 
L 414.72 307.584 
" style="fill: none; stroke: #000000; stroke-width: 0.8; stroke-linejoin: miter; stroke-linecap: square"/>
   </g>
   <g id="patch_6">
    <path d="M 57.6 41.472 
L 414.72 41.472 
" style="fill: none; stroke: #000000; stroke-width: 0.8; stroke-linejoin: miter; stroke-linecap: square"/>
   </g>
  </g>
 </g>
 <defs>
  <clipPath id="pfa81f6a07d">
   <rect x="57.6" y="41.472" width="357.12" height="266.112"/>
  </clipPath>
 </defs>
</svg>
