<?xml version="1.0" encoding="utf-8" standalone="no"?>
<!DOCTYPE svg PUBLIC "-//W3C//DTD SVG 1.1//EN"
  "http://www.w3.org/Graphics/SVG/1.1/DTD/svg11.dtd">
<svg xmlns:xlink="http://www.w3.org/1999/xlink" width="1440pt" height="720pt" viewBox="0 0 1440 720" xmlns="http://www.w3.org/2000/svg" version="1.1">
 <metadata>
  <rdf:RDF xmlns:dc="http://purl.org/dc/elements/1.1/" xmlns:cc="http://creativecommons.org/ns#" xmlns:rdf="http://www.w3.org/1999/02/22-rdf-syntax-ns#">
   <cc:Work>
    <dc:type rdf:resource="http://purl.org/dc/dcmitype/StillImage"/>
    <dc:date>2023-06-19T15:52:11.845919</dc:date>
    <dc:format>image/svg+xml</dc:format>
    <dc:creator>
     <cc:Agent>
      <dc:title>Matplotlib v3.7.1, https://matplotlib.org/</dc:title>
     </cc:Agent>
    </dc:creator>
   </cc:Work>
  </rdf:RDF>
 </metadata>
 <defs>
  <style type="text/css">*{stroke-linejoin: round; stroke-linecap: butt}</style>
 </defs>
 <g id="figure_1">
  <g id="patch_1">
   <path d="M 0 720 
L 1440 720 
L 1440 0 
L 0 0 
z
" style="fill: #ffffff"/>
  </g>
  <g id="axes_1">
   <g id="patch_2">
    <path d="M 180 640.8 
L 1296 640.8 
L 1296 86.4 
L 180 86.4 
z
" style="fill: #ffffff"/>
   </g>
   <g id="PathCollection_1">
    <defs>
     <path id="m1c053a74dc" d="M 0 3.535534 
C 0.937635 3.535534 1.836992 3.163008 2.5 2.5 
C 3.163008 1.836992 3.535534 0.937635 3.535534 0 
C 3.535534 -0.937635 3.163008 -1.836992 2.5 -2.5 
C 1.836992 -3.163008 0.937635 -3.535534 0 -3.535534 
C -0.937635 -3.535534 -1.836992 -3.163008 -2.5 -2.5 
C -3.163008 -1.836992 -3.535534 -0.937635 -3.535534 0 
C -3.535534 0.937635 -3.163008 1.836992 -2.5 2.5 
C -1.836992 3.163008 -0.937635 3.535534 0 3.535534 
z
" style="stroke: #ffaa88"/>
    </defs>
    <g clip-path="url(#p615ece7f09)">
     <use xlink:href="#m1c053a74dc" x="230.727273" y="433.000783" style="fill: #ffaa88; stroke: #ffaa88"/>
    </g>
   </g>
   <g id="PathCollection_2">
    <g clip-path="url(#p615ece7f09)">
     <use xlink:href="#m1c053a74dc" x="257.86532" y="438.448254" style="fill: #ffaa88; stroke: #ffaa88"/>
    </g>
   </g>
   <g id="PathCollection_3">
    <g clip-path="url(#p615ece7f09)">
     <use xlink:href="#m1c053a74dc" x="286.047138" y="452.175883" style="fill: #ffaa88; stroke: #ffaa88"/>
    </g>
   </g>
   <g id="PathCollection_4">
    <g clip-path="url(#p615ece7f09)">
     <use xlink:href="#m1c053a74dc" x="314.57688" y="449.343196" style="fill: #ffaa88; stroke: #ffaa88"/>
    </g>
   </g>
   <g id="PathCollection_5">
    <g clip-path="url(#p615ece7f09)">
     <use xlink:href="#m1c053a74dc" x="346.237935" y="453.483265" style="fill: #ffaa88; stroke: #ffaa88"/>
    </g>
   </g>
   <g id="PathCollection_6">
    <g clip-path="url(#p615ece7f09)">
     <use xlink:href="#m1c053a74dc" x="373.375982" y="445.42101" style="fill: #ffaa88; stroke: #ffaa88"/>
    </g>
   </g>
   <g id="PathCollection_7">
    <g clip-path="url(#p615ece7f09)">
     <use xlink:href="#m1c053a74dc" x="403.993266" y="443.895725" style="fill: #ffaa88; stroke: #ffaa88"/>
    </g>
   </g>
   <g id="PathCollection_8">
    <g clip-path="url(#p615ece7f09)">
     <use xlink:href="#m1c053a74dc" x="434.61055" y="439.973539" style="fill: #ffaa88; stroke: #ffaa88"/>
    </g>
   </g>
   <g id="PathCollection_9">
    <g clip-path="url(#p615ece7f09)">
     <use xlink:href="#m1c053a74dc" x="462.444444" y="430.386" style="fill: #ffaa88; stroke: #ffaa88"/>
    </g>
   </g>
   <g id="PathCollection_10">
    <g clip-path="url(#p615ece7f09)">
     <use xlink:href="#m1c053a74dc" x="490.974186" y="427.553312" style="fill: #ffaa88; stroke: #ffaa88"/>
    </g>
   </g>
   <g id="PathCollection_11">
    <g clip-path="url(#p615ece7f09)">
     <use xlink:href="#m1c053a74dc" x="519.503928" y="424.938529" style="fill: #ffaa88; stroke: #ffaa88"/>
    </g>
   </g>
   <g id="PathCollection_12">
    <g clip-path="url(#p615ece7f09)">
     <use xlink:href="#m1c053a74dc" x="545.250281" y="418.183656" style="fill: #ffaa88; stroke: #ffaa88"/>
    </g>
   </g>
   <g id="PathCollection_13">
    <g clip-path="url(#p615ece7f09)">
     <use xlink:href="#m1c053a74dc" x="574.127946" y="427.553312" style="fill: #ffaa88; stroke: #ffaa88"/>
    </g>
   </g>
   <g id="PathCollection_14">
    <g clip-path="url(#p615ece7f09)">
     <use xlink:href="#m1c053a74dc" x="605.093154" y="457.623354" style="fill: #ffaa88; stroke: #ffaa88"/>
    </g>
   </g>
   <g id="PathCollection_15">
    <g clip-path="url(#p615ece7f09)">
     <use xlink:href="#m1c053a74dc" x="631.883277" y="486.16809" style="fill: #ffaa88; stroke: #ffaa88"/>
    </g>
   </g>
   <g id="PathCollection_16">
    <g clip-path="url(#p615ece7f09)">
     <use xlink:href="#m1c053a74dc" x="663.196409" y="499.895719" style="fill: #ffaa88; stroke: #ffaa88"/>
    </g>
   </g>
   <g id="PathCollection_17">
    <g clip-path="url(#p615ece7f09)">
     <use xlink:href="#m1c053a74dc" x="685.811448" y="570.712841" style="fill: #ffaa88; stroke: #ffaa88"/>
    </g>
   </g>
   <g id="PathCollection_18">
    <g clip-path="url(#p615ece7f09)">
     <use xlink:href="#m1c053a74dc" x="746.698092" y="610.152529" style="fill: #ffaa88; stroke: #ffaa88"/>
    </g>
   </g>
   <g id="PathCollection_19">
    <g clip-path="url(#p615ece7f09)">
     <use xlink:href="#m1c053a74dc" x="774.531987" y="429.078598" style="fill: #ffaa88; stroke: #ffaa88"/>
    </g>
   </g>
   <g id="PathCollection_20">
    <g clip-path="url(#p615ece7f09)">
     <use xlink:href="#m1c053a74dc" x="809.672278" y="429.078598" style="fill: #ffaa88; stroke: #ffaa88"/>
    </g>
   </g>
   <g id="PathCollection_21">
    <g clip-path="url(#p615ece7f09)">
     <use xlink:href="#m1c053a74dc" x="843.420875" y="435.833471" style="fill: #ffaa88; stroke: #ffaa88"/>
    </g>
   </g>
   <g id="PathCollection_22">
    <g clip-path="url(#p615ece7f09)">
     <use xlink:href="#m1c053a74dc" x="878.213244" y="429.078598" style="fill: #ffaa88; stroke: #ffaa88"/>
    </g>
   </g>
   <g id="PathCollection_23">
    <g clip-path="url(#p615ece7f09)">
     <use xlink:href="#m1c053a74dc" x="912.657688" y="433.218666" style="fill: #ffaa88; stroke: #ffaa88"/>
    </g>
   </g>
   <g id="PathCollection_24">
    <g clip-path="url(#p615ece7f09)">
     <use xlink:href="#m1c053a74dc" x="946.406285" y="419.491058" style="fill: #ffaa88; stroke: #ffaa88"/>
    </g>
   </g>
   <g id="PathCollection_25">
    <g clip-path="url(#p615ece7f09)">
     <use xlink:href="#m1c053a74dc" x="978.06734" y="416.876254" style="fill: #ffaa88; stroke: #ffaa88"/>
    </g>
   </g>
   <g id="PathCollection_26">
    <g clip-path="url(#p615ece7f09)">
     <use xlink:href="#m1c053a74dc" x="1011.815937" y="416.876254" style="fill: #ffaa88; stroke: #ffaa88"/>
    </g>
   </g>
   <g id="PathCollection_27">
    <g clip-path="url(#p615ece7f09)">
     <use xlink:href="#m1c053a74dc" x="1045.564534" y="422.323724" style="fill: #ffaa88; stroke: #ffaa88"/>
    </g>
   </g>
   <g id="PathCollection_28">
    <g clip-path="url(#p615ece7f09)">
     <use xlink:href="#m1c053a74dc" x="1077.921437" y="423.631127" style="fill: #ffaa88; stroke: #ffaa88"/>
    </g>
   </g>
   <g id="PathCollection_29">
    <g clip-path="url(#p615ece7f09)">
     <use xlink:href="#m1c053a74dc" x="1110.626263" y="423.631127" style="fill: #ffaa88; stroke: #ffaa88"/>
    </g>
   </g>
   <g id="PathCollection_30">
    <g clip-path="url(#p615ece7f09)">
     <use xlink:href="#m1c053a74dc" x="1145.766554" y="435.833471" style="fill: #ffaa88; stroke: #ffaa88"/>
    </g>
   </g>
   <g id="PathCollection_31">
    <g clip-path="url(#p615ece7f09)">
     <use xlink:href="#m1c053a74dc" x="1178.47138" y="431.911285" style="fill: #ffaa88; stroke: #ffaa88"/>
    </g>
   </g>
   <g id="PathCollection_32">
    <g clip-path="url(#p615ece7f09)">
     <use xlink:href="#m1c053a74dc" x="1211.176207" y="438.666137" style="fill: #ffaa88; stroke: #ffaa88"/>
    </g>
   </g>
   <g id="matplotlib.axis_1">
    <g id="xtick_1">
     <g id="line2d_1">
      <defs>
       <path id="m92d9cf29df" d="M 0 0 
L 0 3.5 
" style="stroke: #000000; stroke-width: 0.8"/>
      </defs>
      <g>
       <use xlink:href="#m92d9cf29df" x="230.031425" y="640.8" style="stroke: #000000; stroke-width: 0.8"/>
      </g>
     </g>
     <g id="text_1">
      <!-- 0 -->
      <g transform="translate(226.850175 655.398438) scale(0.1 -0.1)">
       <defs>
        <path id="DejaVuSans-30" d="M 2034 4250 
Q 1547 4250 1301 3770 
Q 1056 3291 1056 2328 
Q 1056 1369 1301 889 
Q 1547 409 2034 409 
Q 2525 409 2770 889 
Q 3016 1369 3016 2328 
Q 3016 3291 2770 3770 
Q 2525 4250 2034 4250 
z
M 2034 4750 
Q 2819 4750 3233 4129 
Q 3647 3509 3647 2328 
Q 3647 1150 3233 529 
Q 2819 -91 2034 -91 
Q 1250 -91 836 529 
Q 422 1150 422 2328 
Q 422 3509 836 4129 
Q 1250 4750 2034 4750 
z
" transform="scale(0.015625)"/>
       </defs>
       <use xlink:href="#DejaVuSans-30"/>
      </g>
     </g>
    </g>
    <g id="xtick_2">
     <g id="line2d_2">
      <g>
       <use xlink:href="#m92d9cf29df" x="403.993266" y="640.8" style="stroke: #000000; stroke-width: 0.8"/>
      </g>
     </g>
     <g id="text_2">
      <!-- 500 -->
      <g transform="translate(394.449516 655.398438) scale(0.1 -0.1)">
       <defs>
        <path id="DejaVuSans-35" d="M 691 4666 
L 3169 4666 
L 3169 4134 
L 1269 4134 
L 1269 2991 
Q 1406 3038 1543 3061 
Q 1681 3084 1819 3084 
Q 2600 3084 3056 2656 
Q 3513 2228 3513 1497 
Q 3513 744 3044 326 
Q 2575 -91 1722 -91 
Q 1428 -91 1123 -41 
Q 819 9 494 109 
L 494 744 
Q 775 591 1075 516 
Q 1375 441 1709 441 
Q 2250 441 2565 725 
Q 2881 1009 2881 1497 
Q 2881 1984 2565 2268 
Q 2250 2553 1709 2553 
Q 1456 2553 1204 2497 
Q 953 2441 691 2322 
L 691 4666 
z
" transform="scale(0.015625)"/>
       </defs>
       <use xlink:href="#DejaVuSans-35"/>
       <use xlink:href="#DejaVuSans-30" x="63.623047"/>
       <use xlink:href="#DejaVuSans-30" x="127.246094"/>
      </g>
     </g>
    </g>
    <g id="xtick_3">
     <g id="line2d_3">
      <g>
       <use xlink:href="#m92d9cf29df" x="577.955107" y="640.8" style="stroke: #000000; stroke-width: 0.8"/>
      </g>
     </g>
     <g id="text_3">
      <!-- 1000 -->
      <g transform="translate(565.230107 655.398438) scale(0.1 -0.1)">
       <defs>
        <path id="DejaVuSans-31" d="M 794 531 
L 1825 531 
L 1825 4091 
L 703 3866 
L 703 4441 
L 1819 4666 
L 2450 4666 
L 2450 531 
L 3481 531 
L 3481 0 
L 794 0 
L 794 531 
z
" transform="scale(0.015625)"/>
       </defs>
       <use xlink:href="#DejaVuSans-31"/>
       <use xlink:href="#DejaVuSans-30" x="63.623047"/>
       <use xlink:href="#DejaVuSans-30" x="127.246094"/>
       <use xlink:href="#DejaVuSans-30" x="190.869141"/>
      </g>
     </g>
    </g>
    <g id="xtick_4">
     <g id="line2d_4">
      <g>
       <use xlink:href="#m92d9cf29df" x="751.916947" y="640.8" style="stroke: #000000; stroke-width: 0.8"/>
      </g>
     </g>
     <g id="text_4">
      <!-- 1500 -->
      <g transform="translate(739.191947 655.398438) scale(0.1 -0.1)">
       <use xlink:href="#DejaVuSans-31"/>
       <use xlink:href="#DejaVuSans-35" x="63.623047"/>
       <use xlink:href="#DejaVuSans-30" x="127.246094"/>
       <use xlink:href="#DejaVuSans-30" x="190.869141"/>
      </g>
     </g>
    </g>
    <g id="xtick_5">
     <g id="line2d_5">
      <g>
       <use xlink:href="#m92d9cf29df" x="925.878788" y="640.8" style="stroke: #000000; stroke-width: 0.8"/>
      </g>
     </g>
     <g id="text_5">
      <!-- 2000 -->
      <g transform="translate(913.153788 655.398438) scale(0.1 -0.1)">
       <defs>
        <path id="DejaVuSans-32" d="M 1228 531 
L 3431 531 
L 3431 0 
L 469 0 
L 469 531 
Q 828 903 1448 1529 
Q 2069 2156 2228 2338 
Q 2531 2678 2651 2914 
Q 2772 3150 2772 3378 
Q 2772 3750 2511 3984 
Q 2250 4219 1831 4219 
Q 1534 4219 1204 4116 
Q 875 4013 500 3803 
L 500 4441 
Q 881 4594 1212 4672 
Q 1544 4750 1819 4750 
Q 2544 4750 2975 4387 
Q 3406 4025 3406 3419 
Q 3406 3131 3298 2873 
Q 3191 2616 2906 2266 
Q 2828 2175 2409 1742 
Q 1991 1309 1228 531 
z
" transform="scale(0.015625)"/>
       </defs>
       <use xlink:href="#DejaVuSans-32"/>
       <use xlink:href="#DejaVuSans-30" x="63.623047"/>
       <use xlink:href="#DejaVuSans-30" x="127.246094"/>
       <use xlink:href="#DejaVuSans-30" x="190.869141"/>
      </g>
     </g>
    </g>
    <g id="xtick_6">
     <g id="line2d_6">
      <g>
       <use xlink:href="#m92d9cf29df" x="1099.840629" y="640.8" style="stroke: #000000; stroke-width: 0.8"/>
      </g>
     </g>
     <g id="text_6">
      <!-- 2500 -->
      <g transform="translate(1087.115629 655.398438) scale(0.1 -0.1)">
       <use xlink:href="#DejaVuSans-32"/>
       <use xlink:href="#DejaVuSans-35" x="63.623047"/>
       <use xlink:href="#DejaVuSans-30" x="127.246094"/>
       <use xlink:href="#DejaVuSans-30" x="190.869141"/>
      </g>
     </g>
    </g>
    <g id="xtick_7">
     <g id="line2d_7">
      <g>
       <use xlink:href="#m92d9cf29df" x="1273.802469" y="640.8" style="stroke: #000000; stroke-width: 0.8"/>
      </g>
     </g>
     <g id="text_7">
      <!-- 3000 -->
      <g transform="translate(1261.077469 655.398438) scale(0.1 -0.1)">
       <defs>
        <path id="DejaVuSans-33" d="M 2597 2516 
Q 3050 2419 3304 2112 
Q 3559 1806 3559 1356 
Q 3559 666 3084 287 
Q 2609 -91 1734 -91 
Q 1441 -91 1130 -33 
Q 819 25 488 141 
L 488 750 
Q 750 597 1062 519 
Q 1375 441 1716 441 
Q 2309 441 2620 675 
Q 2931 909 2931 1356 
Q 2931 1769 2642 2001 
Q 2353 2234 1838 2234 
L 1294 2234 
L 1294 2753 
L 1863 2753 
Q 2328 2753 2575 2939 
Q 2822 3125 2822 3475 
Q 2822 3834 2567 4026 
Q 2313 4219 1838 4219 
Q 1578 4219 1281 4162 
Q 984 4106 628 3988 
L 628 4550 
Q 988 4650 1302 4700 
Q 1616 4750 1894 4750 
Q 2613 4750 3031 4423 
Q 3450 4097 3450 3541 
Q 3450 3153 3228 2886 
Q 3006 2619 2597 2516 
z
" transform="scale(0.015625)"/>
       </defs>
       <use xlink:href="#DejaVuSans-33"/>
       <use xlink:href="#DejaVuSans-30" x="63.623047"/>
       <use xlink:href="#DejaVuSans-30" x="127.246094"/>
       <use xlink:href="#DejaVuSans-30" x="190.869141"/>
      </g>
     </g>
    </g>
   </g>
   <g id="matplotlib.axis_2">
    <g id="ytick_1">
     <g id="line2d_8">
      <defs>
       <path id="m45cfe532bb" d="M 0 0 
L -3.5 0 
" style="stroke: #000000; stroke-width: 0.8"/>
      </defs>
      <g>
       <use xlink:href="#m45cfe532bb" x="180" y="538.028016" style="stroke: #000000; stroke-width: 0.8"/>
      </g>
     </g>
     <g id="text_8">
      <!-- 10 -->
      <g transform="translate(160.275 541.827234) scale(0.1 -0.1)">
       <use xlink:href="#DejaVuSans-31"/>
       <use xlink:href="#DejaVuSans-30" x="63.623047"/>
      </g>
     </g>
    </g>
    <g id="ytick_2">
     <g id="line2d_9">
      <g>
       <use xlink:href="#m45cfe532bb" x="180" y="429.078598" style="stroke: #000000; stroke-width: 0.8"/>
      </g>
     </g>
     <g id="text_9">
      <!-- 15 -->
      <g transform="translate(160.275 432.877816) scale(0.1 -0.1)">
       <use xlink:href="#DejaVuSans-31"/>
       <use xlink:href="#DejaVuSans-35" x="63.623047"/>
      </g>
     </g>
    </g>
    <g id="ytick_3">
     <g id="line2d_10">
      <g>
       <use xlink:href="#m45cfe532bb" x="180" y="320.129179" style="stroke: #000000; stroke-width: 0.8"/>
      </g>
     </g>
     <g id="text_10">
      <!-- 20 -->
      <g transform="translate(160.275 323.928398) scale(0.1 -0.1)">
       <use xlink:href="#DejaVuSans-32"/>
       <use xlink:href="#DejaVuSans-30" x="63.623047"/>
      </g>
     </g>
    </g>
    <g id="ytick_4">
     <g id="line2d_11">
      <g>
       <use xlink:href="#m45cfe532bb" x="180" y="211.179761" style="stroke: #000000; stroke-width: 0.8"/>
      </g>
     </g>
     <g id="text_11">
      <!-- 25 -->
      <g transform="translate(160.275 214.97898) scale(0.1 -0.1)">
       <use xlink:href="#DejaVuSans-32"/>
       <use xlink:href="#DejaVuSans-35" x="63.623047"/>
      </g>
     </g>
    </g>
    <g id="ytick_5">
     <g id="line2d_12">
      <g>
       <use xlink:href="#m45cfe532bb" x="180" y="102.230343" style="stroke: #000000; stroke-width: 0.8"/>
      </g>
     </g>
     <g id="text_12">
      <!-- 30 -->
      <g transform="translate(160.275 106.029562) scale(0.1 -0.1)">
       <use xlink:href="#DejaVuSans-33"/>
       <use xlink:href="#DejaVuSans-30" x="63.623047"/>
      </g>
     </g>
    </g>
   </g>
   <g id="line2d_13">
    <path d="M 230.727273 433.000783 
L 231.075196 434.526068 
L 231.42312 430.386 
L 231.771044 429.078598 
L 232.118967 426.24591 
L 232.466891 424.938529 
L 232.814815 412.736185 
L 233.162738 404.456047 
L 233.510662 400.315958 
L 233.858586 392.253683 
L 234.20651 383.973545 
L 234.554433 378.526074 
L 234.902357 377.218693 
L 235.250281 373.078603 
L 235.598204 370.463799 
L 235.946128 366.323751 
L 236.294052 362.183662 
L 236.641975 359.568857 
L 236.989899 356.736191 
L 237.337823 354.121386 
L 237.685746 349.981338 
L 238.03367 349.981338 
L 238.381594 349.981338 
L 238.729517 351.28872 
L 239.077441 351.28872 
L 239.425365 351.28872 
L 239.773288 352.814005 
L 240.121212 355.428809 
L 240.469136 358.261476 
L 240.817059 360.87628 
L 241.164983 365.016328 
L 241.512907 366.323751 
L 241.860831 367.631132 
L 242.208754 370.463799 
L 242.556678 369.156418 
L 242.904602 371.771222 
L 243.252525 371.771222 
L 243.600449 373.078603 
L 243.948373 373.078603 
L 244.296296 375.91127 
L 244.64422 377.218693 
L 244.992144 377.218693 
L 245.340067 380.051359 
L 245.687991 382.666164 
L 246.035915 381.358741 
L 246.383838 381.358741 
L 246.731762 383.973545 
L 247.079686 383.973545 
L 247.427609 388.113635 
L 247.775533 390.946301 
L 248.123457 394.868487 
L 248.47138 394.868487 
L 248.819304 394.868487 
L 249.167228 396.393772 
L 249.515152 397.701154 
L 249.863075 400.315958 
L 250.210999 403.148624 
L 250.558923 404.456047 
L 250.906846 408.596116 
L 251.25477 407.288714 
L 251.602694 408.596116 
L 251.950617 411.2109 
L 252.298541 415.350968 
L 252.646465 415.350968 
L 252.994388 418.183656 
L 253.342312 418.183656 
L 253.690236 420.798439 
L 254.038159 422.105841 
L 254.386083 422.105841 
L 254.734007 423.631127 
L 255.08193 424.938529 
L 255.429854 427.553312 
L 255.777778 427.553312 
L 256.125701 430.386 
L 256.473625 430.386 
L 256.821549 433.000783 
L 257.169473 435.833471 
L 257.517396 438.448254 
" clip-path="url(#p615ece7f09)" style="fill: none; stroke: #6e90f2; stroke-width: 1.5; stroke-linecap: square"/>
   </g>
   <g id="line2d_14">
    <path d="M 257.86532 438.448254 
L 258.213244 438.448254 
L 258.561167 437.140852 
L 258.909091 435.833471 
L 259.257015 437.140852 
L 259.604938 435.833471 
L 259.952862 434.526068 
L 260.300786 435.833471 
L 260.648709 429.078598 
L 260.996633 423.631127 
L 261.344557 418.183656 
L 261.69248 411.2109 
L 262.040404 404.456047 
L 262.388328 399.008576 
L 262.736251 396.393772 
L 263.084175 394.868487 
L 263.432099 389.421016 
L 263.780022 385.280927 
L 264.127946 382.666164 
L 264.47587 380.051359 
L 264.823793 378.526074 
L 265.171717 375.91127 
L 265.519641 374.603889 
L 265.867565 374.603889 
L 266.215488 371.771222 
L 266.563412 371.771222 
L 266.911336 370.463799 
L 267.259259 371.771222 
L 267.607183 369.156418 
L 267.955107 371.771222 
L 268.30303 373.078603 
L 268.650954 375.91127 
L 268.998878 380.051359 
L 269.346801 377.218693 
L 269.694725 381.358741 
L 270.042649 383.973545 
L 270.390572 383.973545 
L 270.738496 385.280927 
L 271.08642 386.806212 
L 271.434343 385.280927 
L 271.782267 390.946301 
L 272.130191 388.113635 
L 272.478114 388.113635 
L 272.826038 389.421016 
L 273.173962 389.421016 
L 273.521886 392.253683 
L 273.869809 393.561106 
L 274.217733 393.561106 
L 274.565657 394.868487 
L 274.91358 397.701154 
L 275.261504 397.701154 
L 275.609428 399.008576 
L 275.957351 400.315958 
L 276.305275 403.148624 
L 276.653199 401.841243 
L 277.001122 404.456047 
L 277.349046 408.596116 
L 277.69697 409.903497 
L 278.044893 412.736185 
L 278.392817 412.736185 
L 278.740741 414.043587 
L 279.088664 416.658371 
L 279.436588 419.491058 
L 279.784512 419.491058 
L 280.132435 420.798439 
L 280.480359 424.938529 
L 280.828283 427.553312 
L 281.176207 430.386 
L 281.52413 430.386 
L 281.872054 430.386 
L 282.219978 431.693381 
L 282.567901 434.526068 
L 282.915825 437.140852 
L 283.263749 439.973539 
L 283.611672 441.280942 
L 283.959596 443.895725 
L 284.30752 445.42101 
L 284.655443 445.42101 
L 285.003367 446.728412 
L 285.351291 448.035794 
L 285.699214 450.650577 
" clip-path="url(#p615ece7f09)" style="fill: none; stroke: #4b64d5; stroke-width: 1.5; stroke-linecap: square"/>
   </g>
   <g id="line2d_15">
    <path d="M 286.047138 452.175883 
L 286.395062 452.175883 
L 286.742985 452.175883 
L 287.090909 446.728412 
L 287.438833 446.728412 
L 287.786756 449.343196 
L 288.13468 448.035794 
L 288.482604 443.895725 
L 288.830527 442.588323 
L 289.178451 438.448254 
L 289.526375 435.833471 
L 289.874299 424.938529 
L 290.222222 419.491058 
L 290.570146 416.658371 
L 290.91807 414.043587 
L 291.265993 407.288714 
L 291.613917 404.456047 
L 291.961841 404.456047 
L 292.309764 404.456047 
L 292.657688 399.008576 
L 293.005612 394.868487 
L 293.353535 393.561106 
L 293.701459 390.946301 
L 294.049383 388.113635 
L 294.397306 388.113635 
L 294.74523 383.973545 
L 295.093154 383.973545 
L 295.441077 381.358741 
L 295.789001 381.358741 
L 296.136925 381.358741 
L 296.484848 382.666164 
L 296.832772 385.280927 
L 297.180696 388.113635 
L 297.52862 389.421016 
L 297.876543 389.421016 
L 298.224467 392.253683 
L 298.572391 393.561106 
L 298.920314 394.868487 
L 299.268238 394.868487 
L 299.616162 397.701154 
L 299.964085 396.393772 
L 300.312009 396.393772 
L 300.659933 396.393772 
L 301.007856 399.008576 
L 301.35578 399.008576 
L 301.703704 397.701154 
L 302.051627 399.008576 
L 302.399551 401.841243 
L 302.747475 401.841243 
L 303.095398 403.148624 
L 303.443322 405.763429 
L 303.791246 405.763429 
L 304.139169 408.596116 
L 304.487093 407.288714 
L 304.835017 409.903497 
L 305.182941 414.043587 
L 305.530864 414.043587 
L 305.878788 414.043587 
L 306.226712 416.658371 
L 306.574635 418.183656 
L 306.922559 418.183656 
L 307.270483 420.798439 
L 307.618406 422.105841 
L 307.96633 426.24591 
L 308.314254 426.24591 
L 308.662177 427.553312 
L 309.010101 430.386 
L 309.358025 433.000783 
L 309.705948 435.833471 
L 310.053872 437.140852 
L 310.401796 437.140852 
L 310.749719 438.448254 
L 311.097643 438.448254 
L 311.445567 442.588323 
L 311.79349 441.280942 
L 312.141414 442.588323 
L 312.489338 443.895725 
L 312.837262 443.895725 
L 313.185185 445.42101 
L 313.533109 446.728412 
L 313.881033 445.42101 
L 314.228956 448.035794 
" clip-path="url(#p615ece7f09)" style="fill: none; stroke: #4b64d5; stroke-width: 1.5; stroke-linecap: square"/>
   </g>
   <g id="line2d_16">
    <path d="M 314.57688 449.343196 
L 314.924804 448.035794 
L 315.272727 449.343196 
L 315.620651 448.035794 
L 315.968575 448.035794 
L 316.316498 446.728412 
L 316.664422 443.895725 
L 317.012346 443.895725 
L 317.360269 441.280942 
L 317.708193 437.140852 
L 318.056117 433.000783 
L 318.40404 429.078598 
L 318.751964 422.105841 
L 319.099888 411.2109 
L 319.447811 405.763429 
L 319.795735 404.456047 
L 320.143659 403.148624 
L 320.491582 397.701154 
L 320.839506 393.561106 
L 321.18743 393.561106 
L 321.535354 390.946301 
L 321.883277 383.973545 
L 322.231201 381.358741 
L 322.579125 382.666164 
L 322.927048 381.358741 
L 323.274972 378.526074 
L 323.622896 375.91127 
L 323.970819 374.603889 
L 324.318743 375.91127 
L 324.666667 375.91127 
L 325.01459 375.91127 
L 325.362514 377.218693 
L 325.710438 380.051359 
L 326.058361 382.666164 
L 326.406285 382.666164 
L 326.754209 386.806212 
L 327.102132 386.806212 
L 327.450056 385.280927 
L 327.79798 386.806212 
L 328.145903 389.421016 
L 328.493827 388.113635 
L 328.841751 390.946301 
L 329.189675 392.253683 
L 329.537598 392.253683 
L 329.885522 396.393772 
L 330.233446 396.393772 
L 330.581369 394.868487 
L 330.929293 396.393772 
L 331.277217 394.868487 
L 331.62514 397.701154 
L 331.973064 399.008576 
L 332.320988 399.008576 
L 332.668911 400.315958 
L 333.016835 401.841243 
L 333.364759 404.456047 
L 333.712682 405.763429 
L 334.060606 408.596116 
L 334.40853 409.903497 
L 334.756453 409.903497 
L 335.104377 411.2109 
L 335.452301 414.043587 
L 335.800224 414.043587 
L 336.148148 414.043587 
L 336.496072 415.350968 
L 336.843996 418.183656 
L 337.191919 419.491058 
L 337.539843 423.631127 
L 337.887767 426.24591 
L 338.23569 423.631127 
L 338.583614 427.553312 
L 338.931538 426.24591 
L 339.279461 431.693381 
L 339.627385 433.000783 
L 339.975309 431.693381 
L 340.323232 434.526068 
L 340.671156 437.140852 
L 341.01908 437.140852 
L 341.367003 438.448254 
L 341.714927 439.973539 
L 342.062851 443.895725 
L 342.410774 442.588323 
L 342.758698 445.42101 
L 343.106622 446.728412 
L 343.454545 449.343196 
L 343.802469 449.343196 
L 344.150393 449.343196 
L 344.498316 452.175883 
L 344.84624 450.650577 
L 345.194164 450.650577 
L 345.542088 453.483265 
L 345.890011 452.175883 
" clip-path="url(#p615ece7f09)" style="fill: none; stroke: #3e51c5; stroke-width: 1.5; stroke-linecap: square"/>
   </g>
   <g id="line2d_17">
    <path d="M 346.237935 453.483265 
L 346.585859 453.483265 
L 346.933782 449.343196 
L 347.281706 448.035794 
L 347.62963 442.588323 
L 347.977553 439.973539 
L 348.325477 430.386 
L 348.673401 426.24591 
L 349.021324 424.938529 
L 349.369248 422.105841 
L 349.717172 418.183656 
L 350.065095 415.350968 
L 350.413019 414.043587 
L 350.760943 414.043587 
L 351.108866 407.288714 
L 351.45679 405.763429 
L 351.804714 403.148624 
L 352.152637 403.148624 
L 352.500561 400.315958 
L 352.848485 399.008576 
L 353.196409 397.701154 
L 353.544332 394.868487 
L 353.892256 396.393772 
L 354.24018 394.868487 
L 354.588103 397.701154 
L 354.936027 400.315958 
L 355.283951 401.841243 
L 355.631874 400.315958 
L 355.979798 401.841243 
L 356.327722 404.456047 
L 356.675645 408.596116 
L 357.023569 407.288714 
L 357.371493 409.903497 
L 357.719416 409.903497 
L 358.06734 412.736185 
L 358.415264 412.736185 
L 358.763187 412.736185 
L 359.111111 411.2109 
L 359.459035 408.596116 
L 359.806958 408.596116 
L 360.154882 408.596116 
L 360.502806 409.903497 
L 360.85073 409.903497 
L 361.198653 412.736185 
L 361.546577 414.043587 
L 361.894501 414.043587 
L 362.242424 414.043587 
L 362.590348 415.350968 
L 362.938272 416.658371 
L 363.286195 416.658371 
L 363.634119 419.491058 
L 363.982043 419.491058 
L 364.329966 420.798439 
L 364.67789 420.798439 
L 365.025814 423.631127 
L 365.373737 423.631127 
L 365.721661 424.938529 
L 366.069585 426.24591 
L 366.417508 433.000783 
L 366.765432 431.693381 
L 367.113356 433.000783 
L 367.461279 433.000783 
L 367.809203 435.833471 
L 368.157127 435.833471 
L 368.505051 435.833471 
L 368.852974 437.140852 
L 369.200898 437.140852 
L 369.548822 439.973539 
L 369.896745 442.588323 
L 370.244669 441.280942 
L 370.592593 442.588323 
L 370.940516 442.588323 
L 371.28844 441.280942 
L 371.636364 441.280942 
L 371.984287 442.588323 
L 372.332211 442.588323 
L 372.680135 445.42101 
L 373.028058 445.42101 
" clip-path="url(#p615ece7f09)" style="fill: none; stroke: #5e7de7; stroke-width: 1.5; stroke-linecap: square"/>
   </g>
   <g id="line2d_18">
    <path d="M 373.375982 445.42101 
L 373.723906 446.728412 
L 374.071829 445.42101 
L 374.419753 442.588323 
L 374.767677 439.973539 
L 375.1156 441.280942 
L 375.463524 441.280942 
L 375.811448 441.280942 
L 376.159371 438.448254 
L 376.507295 433.000783 
L 376.855219 429.078598 
L 377.203143 424.938529 
L 377.551066 416.658371 
L 377.89899 412.736185 
L 378.246914 409.903497 
L 378.594837 407.288714 
L 378.942761 401.841243 
L 379.290685 399.008576 
L 379.638608 396.393772 
L 379.986532 390.946301 
L 380.334456 383.973545 
L 380.682379 383.973545 
L 381.030303 381.358741 
L 381.378227 377.218693 
L 381.72615 378.526074 
L 382.074074 375.91127 
L 382.421998 371.771222 
L 382.769921 370.463799 
L 383.117845 366.323751 
L 383.465769 367.631132 
L 383.813692 367.631132 
L 384.161616 367.631132 
L 384.50954 371.771222 
L 384.857464 373.078603 
L 385.205387 373.078603 
L 385.553311 374.603889 
L 385.901235 374.603889 
L 386.249158 377.218693 
L 386.597082 377.218693 
L 386.945006 378.526074 
L 387.292929 382.666164 
L 387.640853 380.051359 
L 387.988777 380.051359 
L 388.3367 381.358741 
L 388.684624 380.051359 
L 389.032548 378.526074 
L 389.380471 377.218693 
L 389.728395 377.218693 
L 390.076319 381.358741 
L 390.424242 382.666164 
L 390.772166 383.973545 
L 391.12009 386.806212 
L 391.468013 389.421016 
L 391.815937 390.946301 
L 392.163861 389.421016 
L 392.511785 392.253683 
L 392.859708 392.253683 
L 393.207632 394.868487 
L 393.555556 397.701154 
L 393.903479 401.841243 
L 394.251403 401.841243 
L 394.599327 401.841243 
L 394.94725 404.456047 
L 395.295174 404.456047 
L 395.643098 405.763429 
L 395.991021 408.596116 
L 396.338945 411.2109 
L 396.686869 412.736185 
L 397.034792 414.043587 
L 397.382716 415.350968 
L 397.73064 418.183656 
L 398.078563 419.491058 
L 398.426487 422.105841 
L 398.774411 423.631127 
L 399.122334 423.631127 
L 399.470258 426.24591 
L 399.818182 426.24591 
L 400.166105 429.078598 
L 400.514029 431.693381 
L 400.861953 431.693381 
L 401.209877 437.140852 
L 401.5578 439.973539 
L 401.905724 439.973539 
L 402.253648 439.973539 
L 402.601571 439.973539 
L 402.949495 441.280942 
L 403.297419 441.280942 
L 403.645342 442.588323 
" clip-path="url(#p615ece7f09)" style="fill: none; stroke: #4358cb; stroke-width: 1.5; stroke-linecap: square"/>
   </g>
   <g id="line2d_19">
    <path d="M 403.993266 443.895725 
L 404.34119 443.895725 
L 404.689113 443.895725 
L 405.037037 442.588323 
L 405.384961 441.280942 
L 405.732884 439.973539 
L 406.080808 438.448254 
L 406.428732 438.448254 
L 406.776655 437.140852 
L 407.124579 430.386 
L 407.472503 427.553312 
L 407.820426 422.105841 
L 408.16835 409.903497 
L 408.516274 404.456047 
L 408.864198 401.841243 
L 409.212121 399.008576 
L 409.560045 396.393772 
L 409.907969 394.868487 
L 410.255892 392.253683 
L 410.603816 388.113635 
L 410.95174 382.666164 
L 411.299663 377.218693 
L 411.647587 371.771222 
L 411.995511 371.771222 
L 412.343434 371.771222 
L 412.691358 366.323751 
L 413.039282 366.323751 
L 413.387205 367.631132 
L 413.735129 366.323751 
L 414.083053 369.156418 
L 414.430976 369.156418 
L 414.7789 367.631132 
L 415.126824 369.156418 
L 415.474747 370.463799 
L 415.822671 369.156418 
L 416.170595 370.463799 
L 416.518519 374.603889 
L 416.866442 375.91127 
L 417.214366 377.218693 
L 417.56229 378.526074 
L 417.910213 378.526074 
L 418.258137 378.526074 
L 418.606061 377.218693 
L 418.953984 382.666164 
L 419.301908 380.051359 
L 419.649832 381.358741 
L 419.997755 385.280927 
L 420.345679 385.280927 
L 420.693603 386.806212 
L 421.041526 388.113635 
L 421.38945 388.113635 
L 421.737374 390.946301 
L 422.085297 394.868487 
L 422.433221 396.393772 
L 422.781145 397.701154 
L 423.129068 397.701154 
L 423.476992 399.008576 
L 423.824916 399.008576 
L 424.17284 397.701154 
L 424.520763 399.008576 
L 424.868687 401.841243 
L 425.216611 405.763429 
L 425.564534 408.596116 
L 425.912458 409.903497 
L 426.260382 411.2109 
L 426.608305 412.736185 
L 426.956229 412.736185 
L 427.304153 415.350968 
L 427.652076 419.491058 
L 428 418.183656 
L 428.347924 422.105841 
L 428.695847 423.631127 
L 429.043771 423.631127 
L 429.391695 422.105841 
L 429.739618 422.105841 
L 430.087542 423.631127 
L 430.435466 426.24591 
L 430.783389 427.553312 
L 431.131313 429.078598 
L 431.479237 431.693381 
L 431.82716 433.000783 
L 432.175084 434.526068 
L 432.523008 434.526068 
L 432.870932 431.693381 
L 433.218855 434.526068 
L 433.566779 434.526068 
L 433.914703 435.833471 
L 434.262626 435.833471 
" clip-path="url(#p615ece7f09)" style="fill: none; stroke: #5b7ae5; stroke-width: 1.5; stroke-linecap: square"/>
   </g>
   <g id="line2d_20">
    <path d="M 434.61055 439.973539 
L 434.958474 437.140852 
L 435.306397 435.833471 
L 435.654321 431.693381 
L 436.002245 420.798439 
L 436.350168 414.043587 
L 436.698092 407.288714 
L 437.046016 401.841243 
L 437.393939 392.253683 
L 437.741863 386.806212 
L 438.089787 383.973545 
L 438.43771 380.051359 
L 438.785634 377.218693 
L 439.133558 373.078603 
L 439.481481 370.463799 
L 439.829405 369.156418 
L 440.177329 363.708947 
L 440.525253 363.708947 
L 440.873176 360.87628 
L 441.2211 362.183662 
L 441.569024 360.87628 
L 441.916947 360.87628 
L 442.264871 360.87628 
L 442.612795 362.183662 
L 442.960718 362.183662 
L 443.308642 362.183662 
L 443.656566 365.016328 
L 444.004489 366.323751 
L 444.352413 367.631132 
L 444.700337 367.631132 
L 445.04826 370.463799 
L 445.396184 373.078603 
L 445.744108 374.603889 
L 446.092031 375.91127 
L 446.439955 374.603889 
L 446.787879 378.526074 
L 447.135802 381.358741 
L 447.483726 381.358741 
L 447.83165 383.973545 
L 448.179574 382.666164 
L 448.527497 381.358741 
L 448.875421 381.358741 
L 449.223345 380.051359 
L 449.571268 383.973545 
L 449.919192 385.280927 
L 450.267116 383.973545 
L 450.615039 385.280927 
L 450.962963 383.973545 
L 451.310887 385.280927 
L 451.65881 388.113635 
L 452.006734 386.806212 
L 452.354658 386.806212 
L 452.702581 390.946301 
L 453.050505 393.561106 
L 453.398429 392.253683 
L 453.746352 392.253683 
L 454.094276 397.701154 
L 454.4422 397.701154 
L 454.790123 396.393772 
L 455.138047 400.315958 
L 455.485971 403.148624 
L 455.833895 405.763429 
L 456.181818 407.288714 
L 456.529742 408.596116 
L 456.877666 409.903497 
L 457.225589 412.736185 
L 457.573513 412.736185 
L 457.921437 415.350968 
L 458.26936 422.105841 
L 458.617284 422.105841 
L 458.965208 423.631127 
L 459.313131 424.938529 
L 459.661055 424.938529 
L 460.008979 422.105841 
L 460.356902 423.631127 
L 460.704826 423.631127 
L 461.05275 422.105841 
L 461.400673 423.631127 
L 461.748597 427.553312 
L 462.096521 430.386 
" clip-path="url(#p615ece7f09)" style="fill: none; stroke: #6180e9; stroke-width: 1.5; stroke-linecap: square"/>
   </g>
   <g id="line2d_21">
    <path d="M 462.444444 430.386 
L 462.792368 430.386 
L 463.140292 429.078598 
L 463.488215 426.24591 
L 463.836139 423.631127 
L 464.184063 422.105841 
L 464.531987 422.105841 
L 464.87991 419.491058 
L 465.227834 409.903497 
L 465.575758 403.148624 
L 465.923681 397.701154 
L 466.271605 389.421016 
L 466.619529 385.280927 
L 466.967452 381.358741 
L 467.315376 378.526074 
L 467.6633 374.603889 
L 468.011223 369.156418 
L 468.359147 366.323751 
L 468.707071 363.708947 
L 469.054994 363.708947 
L 469.402918 356.736191 
L 469.750842 352.814005 
L 470.098765 352.814005 
L 470.446689 349.981338 
L 470.794613 352.814005 
L 471.142536 351.28872 
L 471.49046 351.28872 
L 471.838384 351.28872 
L 472.186308 349.981338 
L 472.534231 352.814005 
L 472.882155 351.28872 
L 473.230079 354.121386 
L 473.578002 359.568857 
L 473.925926 362.183662 
L 474.27385 360.87628 
L 474.621773 363.708947 
L 474.969697 362.183662 
L 475.317621 363.708947 
L 475.665544 366.323751 
L 476.013468 367.631132 
L 476.361392 370.463799 
L 476.709315 373.078603 
L 477.057239 374.603889 
L 477.405163 380.051359 
L 477.753086 388.113635 
L 478.10101 388.113635 
L 478.448934 386.806212 
L 478.796857 385.280927 
L 479.144781 381.358741 
L 479.492705 378.526074 
L 479.840629 380.051359 
L 480.188552 382.666164 
L 480.536476 390.946301 
L 480.8844 393.561106 
L 481.232323 394.868487 
L 481.580247 396.393772 
L 481.928171 399.008576 
L 482.276094 400.315958 
L 482.624018 404.456047 
L 482.971942 403.148624 
L 483.319865 403.148624 
L 483.667789 401.841243 
L 484.015713 403.148624 
L 484.363636 401.841243 
L 484.71156 401.841243 
L 485.059484 403.148624 
L 485.407407 405.763429 
L 485.755331 408.596116 
L 486.103255 412.736185 
L 486.451178 412.736185 
L 486.799102 415.350968 
L 487.147026 416.658371 
L 487.494949 415.350968 
L 487.842873 415.350968 
L 488.190797 415.350968 
L 488.538721 418.183656 
L 488.886644 423.631127 
L 489.234568 424.938529 
L 489.582492 426.24591 
L 489.930415 427.553312 
L 490.278339 426.24591 
L 490.626263 426.24591 
" clip-path="url(#p615ece7f09)" style="fill: none; stroke: #4961d2; stroke-width: 1.5; stroke-linecap: square"/>
   </g>
   <g id="line2d_22">
    <path d="M 490.974186 427.553312 
L 491.32211 424.938529 
L 491.670034 426.24591 
L 492.017957 423.631127 
L 492.365881 420.798439 
L 492.713805 419.491058 
L 493.061728 412.736185 
L 493.409652 408.596116 
L 493.757576 405.763429 
L 494.105499 404.456047 
L 494.453423 403.148624 
L 494.801347 403.148624 
L 495.14927 400.315958 
L 495.497194 400.315958 
L 495.845118 388.113635 
L 496.193042 383.973545 
L 496.540965 378.526074 
L 496.888889 373.078603 
L 497.236813 373.078603 
L 497.584736 371.771222 
L 497.93266 373.078603 
L 498.280584 375.91127 
L 498.628507 369.156418 
L 498.976431 366.323751 
L 499.324355 365.016328 
L 499.672278 365.016328 
L 500.020202 363.708947 
L 500.368126 367.631132 
L 500.716049 370.463799 
L 501.063973 373.078603 
L 501.411897 374.603889 
L 501.75982 375.91127 
L 502.107744 377.218693 
L 502.455668 377.218693 
L 502.803591 380.051359 
L 503.151515 381.358741 
L 503.499439 382.666164 
L 503.847363 382.666164 
L 504.195286 383.973545 
L 504.54321 382.666164 
L 504.891134 382.666164 
L 505.239057 381.358741 
L 505.586981 388.113635 
L 505.934905 390.946301 
L 506.282828 393.561106 
L 506.630752 390.946301 
L 506.978676 390.946301 
L 507.326599 386.806212 
L 507.674523 388.113635 
L 508.022447 386.806212 
L 508.37037 388.113635 
L 508.718294 390.946301 
L 509.066218 393.561106 
L 509.414141 393.561106 
L 509.762065 399.008576 
L 510.109989 399.008576 
L 510.457912 399.008576 
L 510.805836 396.393772 
L 511.15376 397.701154 
L 511.501684 397.701154 
L 511.849607 399.008576 
L 512.197531 394.868487 
L 512.545455 400.315958 
L 512.893378 401.841243 
L 513.241302 403.148624 
L 513.589226 401.841243 
L 513.937149 404.456047 
L 514.285073 407.288714 
L 514.632997 407.288714 
L 514.98092 408.596116 
L 515.328844 409.903497 
L 515.676768 414.043587 
L 516.024691 414.043587 
L 516.372615 414.043587 
L 516.720539 418.183656 
L 517.068462 418.183656 
L 517.416386 419.491058 
L 517.76431 423.631127 
L 518.112233 424.938529 
L 518.460157 426.24591 
L 518.808081 427.553312 
L 519.156004 426.24591 
" clip-path="url(#p615ece7f09)" style="fill: none; stroke: #6687ed; stroke-width: 1.5; stroke-linecap: square"/>
   </g>
   <g id="line2d_23">
    <path d="M 519.503928 424.938529 
L 519.851852 420.798439 
L 520.199776 418.183656 
L 520.547699 416.658371 
L 520.895623 416.658371 
L 521.243547 412.736185 
L 521.59147 408.596116 
L 521.939394 404.456047 
L 522.287318 393.561106 
L 522.635241 388.113635 
L 522.983165 382.666164 
L 523.331089 375.91127 
L 523.679012 370.463799 
L 524.026936 366.323751 
L 524.37486 360.87628 
L 524.722783 359.568857 
L 525.070707 355.428809 
L 525.418631 354.121386 
L 525.766554 349.981338 
L 526.114478 347.366534 
L 526.462402 347.366534 
L 526.810325 343.226444 
L 527.158249 341.919063 
L 527.506173 337.778974 
L 527.854097 331.024121 
L 528.20202 326.884032 
L 528.549944 325.57665 
L 528.897868 331.024121 
L 529.245791 349.981338 
L 529.593715 359.568857 
L 529.941639 365.016328 
L 530.289562 363.708947 
L 530.637486 355.428809 
L 530.98541 351.28872 
L 531.333333 346.059153 
L 531.681257 349.981338 
L 532.029181 365.016328 
L 532.377104 373.078603 
L 532.725028 377.218693 
L 533.072952 375.91127 
L 533.420875 362.183662 
L 533.768799 356.736191 
L 534.116723 352.814005 
L 534.464646 354.121386 
L 534.81257 370.463799 
L 535.160494 374.603889 
L 535.508418 383.973545 
L 535.856341 385.280927 
L 536.204265 371.771222 
L 536.552189 366.323751 
L 536.900112 363.708947 
L 537.248036 363.708947 
L 537.59596 378.526074 
L 537.943883 386.806212 
L 538.291807 393.561106 
L 538.639731 399.008576 
L 538.987654 392.253683 
L 539.335578 383.973545 
L 539.683502 378.526074 
L 540.031425 373.078603 
L 540.379349 378.526074 
L 540.727273 390.946301 
L 541.075196 394.868487 
L 541.42312 404.456047 
L 541.771044 407.288714 
L 542.118967 403.148624 
L 542.466891 396.393772 
L 542.814815 392.253683 
L 543.162738 388.113635 
L 543.510662 397.701154 
L 543.858586 404.456047 
L 544.20651 414.043587 
L 544.554433 420.798439 
L 544.902357 422.105841 
" clip-path="url(#p615ece7f09)" style="fill: none; stroke: #7ea1fa; stroke-width: 1.5; stroke-linecap: square"/>
   </g>
   <g id="line2d_24">
    <path d="M 545.250281 418.183656 
L 545.598204 412.736185 
L 545.946128 408.596116 
L 546.294052 412.736185 
L 546.641975 415.350968 
L 546.989899 419.491058 
L 547.337823 422.105841 
L 547.685746 418.183656 
L 548.03367 414.043587 
L 548.381594 409.903497 
L 548.729517 403.148624 
L 549.077441 403.148624 
L 549.425365 404.456047 
L 549.773288 403.148624 
L 550.121212 394.868487 
L 550.469136 385.280927 
L 550.817059 375.91127 
L 551.164983 365.016328 
L 551.512907 354.121386 
L 551.860831 354.121386 
L 552.208754 355.428809 
L 552.556678 356.736191 
L 552.904602 358.261476 
L 553.252525 356.736191 
L 553.600449 349.981338 
L 553.948373 346.059153 
L 554.296296 339.086397 
L 554.64422 340.393778 
L 554.992144 340.393778 
L 555.340067 343.226444 
L 555.687991 347.366534 
L 556.035915 344.533867 
L 556.383838 341.919063 
L 556.731762 339.086397 
L 557.079686 339.086397 
L 557.427609 343.226444 
L 557.775533 344.533867 
L 558.123457 352.814005 
L 558.47138 363.708947 
L 558.819304 362.183662 
L 559.167228 352.814005 
L 559.515152 336.471592 
L 559.863075 352.814005 
L 560.210999 363.708947 
L 560.558923 359.568857 
L 560.906846 348.673915 
L 561.25477 370.463799 
L 561.602694 388.113635 
L 561.950617 390.946301 
L 562.298541 392.253683 
L 562.646465 370.463799 
L 562.994388 355.428809 
L 563.342312 352.814005 
L 563.690236 354.121386 
L 564.038159 366.323751 
L 564.386083 352.814005 
L 564.734007 340.393778 
L 565.08193 351.28872 
L 565.429854 397.701154 
L 565.777778 400.315958 
L 566.125701 389.421016 
L 566.473625 382.666164 
L 566.821549 385.280927 
L 567.169473 396.393772 
L 567.517396 404.456047 
L 567.86532 404.456047 
L 568.213244 390.946301 
L 568.561167 389.421016 
L 568.909091 394.868487 
L 569.257015 397.701154 
L 569.604938 394.868487 
L 569.952862 394.868487 
L 570.300786 396.393772 
L 570.648709 400.315958 
L 570.996633 400.315958 
L 571.344557 397.701154 
L 571.69248 392.253683 
L 572.040404 388.113635 
L 572.388328 397.701154 
L 572.736251 403.148624 
L 573.084175 409.903497 
L 573.432099 416.658371 
L 573.780022 424.938529 
" clip-path="url(#p615ece7f09)" style="fill: none; stroke: #8db0fe; stroke-width: 1.5; stroke-linecap: square"/>
   </g>
   <g id="line2d_25">
    <path d="M 574.127946 427.553312 
L 574.47587 430.386 
L 574.823793 430.386 
L 575.171717 424.938529 
L 575.519641 420.798439 
L 575.867565 418.183656 
L 576.215488 418.183656 
L 576.563412 419.491058 
L 576.911336 418.183656 
L 577.259259 415.350968 
L 577.607183 404.456047 
L 577.955107 385.280927 
L 578.30303 385.280927 
L 578.650954 385.280927 
L 578.998878 380.051359 
L 579.346801 367.631132 
L 579.694725 363.708947 
L 580.042649 362.183662 
L 580.390572 360.87628 
L 580.738496 356.736191 
L 581.08642 352.814005 
L 581.434343 352.814005 
L 581.782267 358.261476 
L 582.130191 408.596116 
L 582.478114 415.350968 
L 582.826038 404.456047 
L 583.173962 377.218693 
L 583.521886 331.024121 
L 583.869809 315.98909 
L 584.217733 302.261482 
L 584.565657 299.646677 
L 584.91358 318.603894 
L 585.261504 331.024121 
L 585.609428 339.086397 
L 585.957351 348.673915 
L 586.305275 340.393778 
L 586.653199 331.024121 
L 587.001122 321.436561 
L 587.349046 319.911276 
L 587.69697 303.786767 
L 588.044893 302.261482 
L 588.392817 310.541619 
L 588.740741 328.191455 
L 589.088664 351.28872 
L 589.436588 360.87628 
L 589.784512 356.736191 
L 590.132435 349.981338 
L 590.480359 341.919063 
L 590.828283 336.471592 
L 591.176207 339.086397 
L 591.52413 354.121386 
L 591.872054 351.28872 
L 592.219978 354.121386 
L 592.567901 352.814005 
L 592.915825 346.059153 
L 593.263749 343.226444 
L 593.611672 344.533867 
L 593.959596 349.981338 
L 594.30752 355.428809 
L 594.655443 369.156418 
L 595.003367 374.603889 
L 595.351291 380.051359 
L 595.699214 388.113635 
L 596.047138 403.148624 
L 596.395062 408.596116 
L 596.742985 409.903497 
L 597.090909 405.763429 
L 597.438833 414.043587 
L 597.786756 419.491058 
L 598.13468 419.491058 
L 598.482604 422.105841 
L 598.830527 424.938529 
L 599.178451 429.078598 
L 599.526375 430.386 
L 599.874299 433.000783 
L 600.222222 438.448254 
L 600.570146 439.973539 
L 600.91807 434.526068 
L 601.265993 429.078598 
L 601.613917 426.24591 
L 601.961841 430.386 
L 602.309764 430.386 
L 602.657688 429.078598 
L 603.005612 439.973539 
L 603.353535 441.280942 
L 603.701459 441.280942 
L 604.049383 448.035794 
L 604.397306 450.650577 
L 604.74523 453.483265 
" clip-path="url(#p615ece7f09)" style="fill: none; stroke: #98b9ff; stroke-width: 1.5; stroke-linecap: square"/>
   </g>
   <g id="line2d_26">
    <path d="M 605.093154 457.623354 
L 605.441077 461.763423 
L 605.789001 460.238138 
L 606.136925 457.623354 
L 606.484848 452.175883 
L 606.832772 443.895725 
L 607.180696 433.000783 
L 607.52862 426.24591 
L 607.876543 419.491058 
L 608.224467 414.043587 
L 608.572391 403.148624 
L 608.920314 400.315958 
L 609.268238 399.008576 
L 609.616162 401.841243 
L 609.964085 403.148624 
L 610.312009 405.763429 
L 610.659933 409.903497 
L 611.007856 407.288714 
L 611.35578 399.008576 
L 611.703704 392.253683 
L 612.051627 385.280927 
L 612.399551 383.973545 
L 612.747475 383.973545 
L 613.095398 383.973545 
L 613.443322 386.806212 
L 613.791246 385.280927 
L 614.139169 388.113635 
L 614.487093 388.113635 
L 614.835017 388.113635 
L 615.182941 388.113635 
L 615.530864 383.973545 
L 615.878788 386.806212 
L 616.226712 388.113635 
L 616.574635 389.421016 
L 616.922559 394.868487 
L 617.270483 396.393772 
L 617.618406 394.868487 
L 617.96633 393.561106 
L 618.314254 392.253683 
L 618.662177 392.253683 
L 619.010101 392.253683 
L 619.358025 392.253683 
L 619.705948 396.393772 
L 620.053872 400.315958 
L 620.401796 405.763429 
L 620.749719 408.596116 
L 621.097643 409.903497 
L 621.445567 407.288714 
L 621.79349 405.763429 
L 622.141414 404.456047 
L 622.489338 407.288714 
L 622.837262 408.596116 
L 623.185185 408.596116 
L 623.533109 408.596116 
L 623.881033 414.043587 
L 624.228956 416.658371 
L 624.57688 418.183656 
L 624.924804 419.491058 
L 625.272727 424.938529 
L 625.620651 426.24591 
L 625.968575 427.553312 
L 626.316498 427.553312 
L 626.664422 426.24591 
L 627.012346 427.553312 
L 627.360269 429.078598 
L 627.708193 430.386 
L 628.056117 435.833471 
L 628.40404 437.140852 
L 628.751964 442.588323 
L 629.099888 448.035794 
L 629.447811 418.183656 
L 629.795735 415.350968 
L 630.143659 430.386 
L 630.491582 438.448254 
L 630.839506 438.448254 
L 631.18743 458.930736 
L 631.535354 469.825677 
" clip-path="url(#p615ece7f09)" style="fill: none; stroke: #a6c4fe; stroke-width: 1.5; stroke-linecap: square"/>
   </g>
   <g id="line2d_27">
    <path d="M 631.883277 486.16809 
L 632.231201 494.448248 
L 632.579125 475.273148 
L 632.927048 445.42101 
L 633.274972 427.553312 
L 633.622896 418.183656 
L 633.970819 405.763429 
L 634.318743 403.148624 
L 634.666667 409.903497 
L 635.01459 415.350968 
L 635.362514 408.596116 
L 635.710438 404.456047 
L 636.058361 407.288714 
L 636.406285 408.596116 
L 636.754209 411.2109 
L 637.102132 414.043587 
L 637.450056 416.658371 
L 637.79798 419.491058 
L 638.145903 422.105841 
L 638.493827 418.183656 
L 638.841751 414.043587 
L 639.189675 399.008576 
L 639.537598 394.868487 
L 639.885522 389.421016 
L 640.233446 385.280927 
L 640.581369 382.666164 
L 640.929293 382.666164 
L 641.277217 385.280927 
L 641.62514 386.806212 
L 641.973064 393.561106 
L 642.320988 394.868487 
L 642.668911 397.701154 
L 643.016835 397.701154 
L 643.364759 401.841243 
L 643.712682 408.596116 
L 644.060606 416.658371 
L 644.40853 423.631127 
L 644.756453 433.000783 
L 645.104377 434.526068 
L 645.452301 431.693381 
L 645.800224 433.000783 
L 646.148148 430.386 
L 646.496072 429.078598 
L 646.843996 420.798439 
L 647.191919 408.596116 
L 647.539843 401.841243 
L 647.887767 405.763429 
L 648.23569 404.456047 
L 648.583614 403.148624 
L 648.931538 404.456047 
L 649.279461 405.763429 
L 649.627385 412.736185 
L 649.975309 423.631127 
L 650.323232 437.140852 
L 650.671156 435.833471 
L 651.01908 433.000783 
L 651.367003 433.000783 
L 651.714927 429.078598 
L 652.062851 424.938529 
L 652.410774 420.798439 
L 652.758698 418.183656 
L 653.106622 419.491058 
L 653.454545 423.631127 
L 653.802469 426.24591 
L 654.150393 434.526068 
L 654.498316 450.650577 
L 654.84624 449.343196 
L 655.194164 448.035794 
L 655.542088 453.483265 
L 655.890011 465.685609 
L 656.237935 469.825677 
L 656.585859 475.273148 
L 656.933782 475.273148 
L 657.281706 448.035794 
L 657.62963 443.895725 
L 657.977553 446.728412 
L 658.325477 453.483265 
L 658.673401 479.413238 
L 659.021324 492.922963 
L 659.369248 495.755651 
L 659.717172 495.755651 
L 660.065095 480.720619 
L 660.413019 461.763423 
L 660.760943 442.588323 
L 661.108866 441.280942 
L 661.45679 465.685609 
L 661.804714 482.245904 
L 662.152637 494.448248 
L 662.500561 499.895719 
L 662.848485 507.957974 
" clip-path="url(#p615ece7f09)" style="fill: none; stroke: #e3d9d3; stroke-width: 1.5; stroke-linecap: square"/>
   </g>
   <g id="line2d_28">
    <path d="M 663.196409 499.895719 
L 663.544332 486.16809 
L 663.892256 472.658365 
L 664.24018 446.728412 
L 664.588103 434.526068 
L 664.936027 423.631127 
L 665.283951 408.596116 
L 665.631874 399.008576 
L 665.979798 400.315958 
L 666.327722 412.736185 
L 666.675645 423.631127 
L 667.023569 438.448254 
L 667.371493 445.42101 
L 667.719416 446.728412 
L 668.06734 439.973539 
L 668.415264 397.701154 
L 668.763187 363.708947 
L 669.111111 355.428809 
L 669.459035 375.91127 
L 669.806958 365.016328 
L 670.154882 363.708947 
L 670.502806 360.87628 
L 670.85073 351.28872 
L 671.198653 295.506629 
L 671.546577 291.36654 
L 671.894501 291.36654 
L 672.242424 280.471598 
L 672.590348 266.961852 
L 672.938272 314.463805 
L 673.286195 369.156418 
L 673.634119 388.113635 
L 673.982043 405.763429 
L 674.329966 412.736185 
L 674.67789 409.903497 
L 675.025814 408.596116 
L 675.373737 452.175883 
L 675.721661 486.16809 
L 676.069585 492.922963 
L 676.417508 473.965767 
L 676.765432 448.035794 
L 677.113356 458.930736 
L 677.461279 389.421016 
L 677.809203 303.786767 
L 678.157127 302.261482 
L 678.505051 340.393778 
L 678.852974 373.078603 
L 679.200898 420.798439 
L 679.548822 490.30818 
L 679.896745 494.448248 
L 680.244669 489.000777 
L 680.592593 480.720619 
L 680.940516 456.098048 
L 681.28844 438.448254 
L 681.636364 427.553312 
L 681.984287 426.24591 
L 682.332211 434.526068 
L 682.680135 439.973539 
L 683.028058 446.728412 
L 683.375982 453.483265 
L 683.723906 465.685609 
L 684.071829 478.105836 
L 684.419753 491.615561 
L 684.767677 516.238132 
L 685.1156 551.537741 
L 685.463524 563.740085 
" clip-path="url(#p615ece7f09)" style="fill: none; stroke: #d24b40; stroke-width: 1.5; stroke-linecap: square"/>
   </g>
   <g id="line2d_29">
    <path d="M 685.811448 570.712841 
L 686.159371 565.26537 
L 686.507295 520.160318 
L 687.89899 426.24591 
L 688.246914 429.078598 
L 688.594837 435.833471 
L 688.942761 439.973539 
L 689.290685 434.526068 
L 689.638608 424.938529 
L 690.334456 392.253683 
L 690.682379 371.771222 
L 691.030303 367.631132 
L 691.378227 370.463799 
L 691.72615 377.218693 
L 692.074074 412.736185 
L 693.117845 437.140852 
L 693.465769 437.140852 
L 693.813692 415.350968 
L 694.857464 315.98909 
L 695.205387 319.911276 
L 695.553311 360.87628 
L 695.901235 388.113635 
L 696.249158 426.24591 
L 696.597082 431.693381 
L 696.945006 431.693381 
L 697.292929 437.140852 
L 697.640853 449.343196 
L 697.988777 441.280942 
L 699.032548 374.603889 
L 699.380471 373.078603 
L 699.728395 375.91127 
L 700.076319 381.358741 
L 700.424242 445.42101 
L 700.772166 483.553307 
L 701.12009 495.755651 
L 701.468013 491.615561 
L 701.815937 489.000777 
L 702.163861 484.860709 
L 702.511785 469.825677 
L 702.859708 443.895725 
L 703.207632 394.868487 
L 703.903479 362.183662 
L 704.251403 355.428809 
L 704.599327 367.631132 
L 705.643098 452.175883 
L 705.991021 486.16809 
L 706.338945 479.413238 
L 707.034792 424.938529 
L 707.382716 381.358741 
L 707.73064 381.358741 
L 708.078563 394.868487 
L 708.426487 422.105841 
L 708.774411 514.712847 
L 709.122334 533.887947 
L 709.470258 513.405445 
L 709.818182 471.13308 
L 710.166105 343.226444 
L 711.209877 111.6 
L 711.5578 132.082502 
L 712.601571 314.463805 
L 712.949495 445.42101 
L 713.297419 482.245904 
L 713.645342 479.413238 
L 713.993266 483.553307 
L 714.689113 419.491058 
L 715.384961 352.814005 
L 715.732884 358.261476 
L 716.428732 416.658371 
L 717.124579 510.790661 
L 717.472503 528.440476 
L 717.820426 520.160318 
L 718.516274 491.615561 
L 718.864198 486.16809 
L 719.212121 486.16809 
L 719.560045 487.475492 
L 719.907969 487.475492 
L 720.255892 495.755651 
L 721.299663 531.055259 
L 721.647587 527.133074 
L 722.343434 512.098063 
L 722.691358 498.370434 
L 723.039282 497.063032 
L 723.387205 497.063032 
L 723.735129 502.510503 
L 724.083053 503.817905 
L 724.430976 494.448248 
L 725.126824 438.448254 
L 725.474747 366.323751 
L 725.822671 344.533867 
L 726.170595 340.393778 
L 726.518519 348.673915 
L 726.866442 371.771222 
L 727.214366 374.603889 
L 727.56229 370.463799 
L 727.910213 360.87628 
L 728.258137 334.946307 
L 728.606061 326.884032 
L 728.953984 324.051365 
L 729.301908 329.498836 
L 729.649832 351.28872 
L 729.997755 358.261476 
L 730.345679 359.568857 
L 730.693603 359.568857 
L 731.041526 349.981338 
L 731.38945 355.428809 
L 732.085297 419.491058 
L 732.433221 476.58055 
L 733.129068 521.467699 
L 733.476992 517.545534 
L 733.824916 497.063032 
L 734.17284 492.922963 
L 734.520763 499.895719 
L 734.868687 495.755651 
L 735.564534 464.378207 
L 735.912458 442.588323 
L 736.260382 435.833471 
L 736.608305 448.035794 
L 737.304153 463.070825 
L 737.652076 464.378207 
L 738 449.343196 
L 739.391695 336.471592 
L 739.739618 328.191455 
L 740.087542 333.638926 
L 740.435466 328.191455 
L 740.783389 329.498836 
L 741.479237 382.666164 
L 741.82716 408.596116 
L 742.175084 486.16809 
L 742.523008 533.887947 
L 742.870932 551.537741 
L 743.218855 516.238132 
L 743.566779 359.568857 
L 743.914703 292.891825 
L 744.262626 262.821804 
L 744.61055 268.269275 
L 745.306397 419.491058 
L 745.654321 480.720619 
L 746.002245 510.790661 
L 746.350168 595.117508 
L 746.350168 595.117508 
" clip-path="url(#p615ece7f09)" style="fill: none; stroke: #b40426; stroke-width: 1.5; stroke-linecap: square"/>
   </g>
   <g id="line2d_30">
    <path d="M 746.698092 610.152529 
L 747.046016 589.670037 
L 747.393939 544.782889 
L 747.741863 435.833471 
L 748.089787 383.973545 
L 748.43771 340.393778 
L 748.785634 324.051365 
L 749.133558 418.183656 
L 749.481481 492.922963 
L 749.829405 556.985212 
L 750.177329 615.6 
L 750.525253 606.01245 
L 750.873176 528.440476 
L 751.2211 461.763423 
L 751.569024 416.658371 
L 751.916947 341.919063 
L 752.264871 341.919063 
L 752.612795 343.226444 
L 752.960718 346.059153 
L 753.308642 347.366534 
L 753.656566 350.199201 
L 754.004489 352.814005 
L 754.352413 354.121386 
L 754.700337 356.954094 
L 755.04826 355.646671 
L 755.396184 355.646671 
L 755.744108 358.261476 
L 756.092031 355.646671 
L 756.439955 356.954094 
L 756.787879 359.568857 
L 757.135802 361.094142 
L 757.483726 363.708947 
L 757.83165 366.541613 
L 758.179574 366.541613 
L 758.527497 369.156418 
L 758.875421 366.541613 
L 759.223345 369.156418 
L 759.571268 369.156418 
L 759.919192 369.156418 
L 760.267116 373.296507 
L 760.615039 374.603889 
L 760.962963 375.91127 
L 761.310887 375.91127 
L 761.65881 380.051359 
L 762.006734 378.743978 
L 762.354658 378.743978 
L 762.702581 384.191449 
L 763.050505 388.113635 
L 763.398429 389.63892 
L 763.746352 390.946301 
L 764.094276 392.253683 
L 764.4422 393.561106 
L 764.790123 395.086391 
L 765.138047 395.086391 
L 765.485971 396.393772 
L 765.833895 400.533862 
L 766.181818 401.841243 
L 766.529742 404.456047 
L 766.877666 407.288714 
L 767.225589 405.981333 
L 767.573513 409.903497 
L 767.921437 408.596116 
L 768.26936 408.596116 
L 768.617284 412.736185 
L 768.965208 412.736185 
L 769.313131 414.043587 
L 769.661055 418.183656 
L 770.008979 418.183656 
L 770.356902 421.016343 
L 770.704826 421.016343 
L 771.05275 422.323724 
L 771.400673 421.016343 
L 771.748597 422.323724 
L 772.096521 424.938529 
L 772.444444 423.631127 
L 772.792368 426.463814 
L 773.140292 430.386 
L 773.488215 429.078598 
L 773.836139 429.078598 
L 774.184063 427.771195 
" clip-path="url(#p615ece7f09)" style="fill: none; stroke: #f7b79b; stroke-width: 1.5; stroke-linecap: square"/>
   </g>
   <g id="line2d_31">
    <path d="M 774.531987 429.078598 
L 774.87991 430.386 
L 775.227834 431.911285 
L 775.575758 430.386 
L 775.923681 429.078598 
L 776.271605 427.771195 
L 776.619529 424.938529 
L 776.967452 422.323724 
L 777.315376 421.016343 
L 777.6633 415.350968 
L 778.011223 411.428783 
L 778.359147 401.841243 
L 778.707071 396.393772 
L 779.054994 390.946301 
L 779.402918 385.49883 
L 779.750842 377.436555 
L 780.098765 371.989084 
L 780.446689 370.463799 
L 780.794613 369.156418 
L 781.142536 362.401565 
L 781.49046 359.568857 
L 781.838384 359.568857 
L 782.186308 358.261476 
L 782.534231 352.814005 
L 782.882155 351.506624 
L 783.230079 350.199201 
L 783.578002 350.199201 
L 783.925926 346.059153 
L 784.27385 346.059153 
L 784.621773 346.059153 
L 784.969697 347.366534 
L 785.317621 347.366534 
L 785.665544 350.199201 
L 786.013468 351.506624 
L 786.361392 354.121386 
L 786.709315 356.954094 
L 787.057239 359.568857 
L 787.405163 358.261476 
L 787.753086 358.261476 
L 788.10101 359.568857 
L 788.448934 362.401565 
L 788.796857 362.401565 
L 789.144781 363.708947 
L 789.492705 366.541613 
L 789.840629 366.541613 
L 790.188552 365.016328 
L 790.536476 363.708947 
L 790.8844 365.016328 
L 791.232323 366.541613 
L 791.580247 367.849036 
L 791.928171 371.989084 
L 792.276094 371.989084 
L 792.624018 373.296507 
L 792.971942 373.296507 
L 793.319865 374.603889 
L 793.667789 375.91127 
L 794.015713 378.743978 
L 794.363636 380.051359 
L 794.71156 380.051359 
L 795.059484 382.666164 
L 795.407407 384.191449 
L 795.755331 382.666164 
L 796.103255 384.191449 
L 796.451178 386.806212 
L 796.799102 392.253683 
L 797.147026 393.561106 
L 797.494949 392.253683 
L 797.842873 395.086391 
L 798.190797 395.086391 
L 798.538721 397.701154 
L 798.886644 400.533862 
L 799.234568 401.841243 
L 799.582492 403.148624 
L 799.930415 403.148624 
L 800.278339 404.456047 
L 800.626263 408.596116 
L 800.974186 407.288714 
L 801.32211 409.903497 
L 801.670034 411.428783 
L 802.017957 409.903497 
L 802.365881 412.736185 
L 802.713805 412.736185 
L 803.061728 414.043587 
L 803.409652 416.876254 
L 803.757576 418.183656 
L 804.105499 416.876254 
L 804.453423 416.876254 
L 804.801347 418.183656 
L 805.14927 418.183656 
L 805.497194 419.491058 
L 805.845118 421.016343 
L 806.193042 419.491058 
L 806.540965 423.631127 
L 806.888889 424.938529 
L 807.236813 423.631127 
L 807.584736 426.463814 
L 807.93266 427.771195 
L 808.280584 427.771195 
L 808.628507 429.078598 
L 808.976431 427.771195 
L 809.324355 429.078598 
" clip-path="url(#p615ece7f09)" style="fill: none; stroke: #93b5fe; stroke-width: 1.5; stroke-linecap: square"/>
   </g>
   <g id="line2d_32">
    <path d="M 809.672278 429.078598 
L 810.020202 430.386 
L 810.368126 429.078598 
L 810.716049 429.078598 
L 811.063973 429.078598 
L 811.411897 427.771195 
L 811.75982 426.463814 
L 812.107744 426.463814 
L 812.455668 423.631127 
L 812.803591 421.016343 
L 813.151515 411.428783 
L 813.499439 408.596116 
L 813.847363 404.456047 
L 814.195286 397.701154 
L 814.54321 389.63892 
L 814.891134 388.113635 
L 815.239057 382.666164 
L 815.586981 382.666164 
L 815.934905 381.358741 
L 816.282828 380.051359 
L 816.630752 377.436555 
L 816.978676 374.603889 
L 817.326599 369.156418 
L 817.674523 369.156418 
L 818.022447 365.016328 
L 818.37037 363.708947 
L 818.718294 362.401565 
L 819.066218 362.401565 
L 819.414141 362.401565 
L 819.762065 361.094142 
L 820.109989 361.094142 
L 820.457912 363.708947 
L 820.805836 367.849036 
L 821.15376 367.849036 
L 821.501684 370.463799 
L 821.849607 370.463799 
L 822.197531 373.296507 
L 822.545455 374.603889 
L 822.893378 374.603889 
L 823.241302 374.603889 
L 823.589226 375.91127 
L 823.937149 374.603889 
L 824.285073 380.051359 
L 824.632997 378.743978 
L 824.98092 378.743978 
L 825.328844 378.743978 
L 825.676768 381.358741 
L 826.024691 381.358741 
L 826.372615 385.49883 
L 826.720539 381.358741 
L 827.068462 385.49883 
L 827.416386 384.191449 
L 827.76431 385.49883 
L 828.112233 388.113635 
L 828.460157 386.806212 
L 828.808081 389.63892 
L 829.156004 390.946301 
L 829.503928 392.253683 
L 829.851852 395.086391 
L 830.199776 395.086391 
L 830.547699 399.008576 
L 830.895623 397.701154 
L 831.243547 400.533862 
L 831.59147 401.841243 
L 831.939394 403.148624 
L 832.287318 404.456047 
L 832.635241 408.596116 
L 832.983165 408.596116 
L 833.331089 408.596116 
L 833.679012 409.903497 
L 834.026936 414.043587 
L 834.37486 415.350968 
L 834.722783 415.350968 
L 835.070707 414.043587 
L 835.418631 415.350968 
L 835.766554 416.876254 
L 836.114478 419.491058 
L 836.462402 419.491058 
L 836.810325 419.491058 
L 837.158249 418.183656 
L 837.506173 423.631127 
L 837.854097 421.016343 
L 838.20202 423.631127 
L 838.549944 424.938529 
L 838.897868 427.771195 
L 839.245791 429.078598 
L 839.593715 431.911285 
L 839.941639 431.911285 
L 840.289562 429.078598 
L 840.637486 427.771195 
L 840.98541 430.386 
L 841.333333 431.911285 
L 841.681257 431.911285 
L 842.029181 431.911285 
L 842.377104 434.526068 
L 842.725028 434.526068 
L 843.072952 433.218666 
" clip-path="url(#p615ece7f09)" style="fill: none; stroke: #3e51c5; stroke-width: 1.5; stroke-linecap: square"/>
   </g>
   <g id="line2d_33">
    <path d="M 843.420875 435.833471 
L 843.768799 433.218666 
L 844.116723 434.526068 
L 844.464646 433.218666 
L 844.81257 433.218666 
L 845.160494 430.386 
L 845.508418 429.078598 
L 845.856341 427.771195 
L 846.204265 426.463814 
L 846.552189 421.016343 
L 846.900112 415.350968 
L 847.248036 412.736185 
L 847.59596 408.596116 
L 847.943883 397.701154 
L 848.291807 390.946301 
L 848.639731 386.806212 
L 848.987654 384.191449 
L 849.335578 378.743978 
L 849.683502 375.91127 
L 850.031425 373.296507 
L 850.379349 370.463799 
L 850.727273 369.156418 
L 851.075196 366.541613 
L 851.42312 362.401565 
L 851.771044 361.094142 
L 852.118967 358.261476 
L 852.466891 355.646671 
L 852.814815 352.814005 
L 853.162738 354.121386 
L 853.510662 351.506624 
L 853.858586 352.814005 
L 854.20651 352.814005 
L 854.554433 354.121386 
L 854.902357 352.814005 
L 855.250281 354.121386 
L 855.598204 355.646671 
L 855.946128 356.954094 
L 856.294052 359.568857 
L 856.641975 362.401565 
L 856.989899 363.708947 
L 857.337823 361.094142 
L 857.685746 363.708947 
L 858.03367 363.708947 
L 858.381594 365.016328 
L 858.729517 365.016328 
L 859.077441 367.849036 
L 859.425365 367.849036 
L 859.773288 369.156418 
L 860.121212 370.463799 
L 860.469136 370.463799 
L 860.817059 369.156418 
L 861.164983 370.463799 
L 861.512907 371.989084 
L 861.860831 374.603889 
L 862.208754 373.296507 
L 862.556678 375.91127 
L 862.904602 377.436555 
L 863.252525 380.051359 
L 863.600449 380.051359 
L 863.948373 380.051359 
L 864.296296 380.051359 
L 864.64422 385.49883 
L 864.992144 385.49883 
L 865.340067 385.49883 
L 865.687991 388.113635 
L 866.035915 390.946301 
L 866.383838 392.253683 
L 866.731762 392.253683 
L 867.079686 395.086391 
L 867.427609 396.393772 
L 867.775533 397.701154 
L 868.123457 400.533862 
L 868.47138 399.008576 
L 868.819304 401.841243 
L 869.167228 404.456047 
L 869.515152 404.456047 
L 869.863075 404.456047 
L 870.210999 405.981333 
L 870.558923 408.596116 
L 870.906846 408.596116 
L 871.25477 411.428783 
L 871.602694 414.043587 
L 871.950617 415.350968 
L 872.298541 418.183656 
L 872.646465 415.350968 
L 872.994388 416.876254 
L 873.342312 416.876254 
L 873.690236 416.876254 
L 874.038159 419.491058 
L 874.386083 421.016343 
L 874.734007 422.323724 
L 875.08193 422.323724 
L 875.429854 424.938529 
L 875.777778 426.463814 
L 876.125701 424.938529 
L 876.473625 424.938529 
L 876.821549 427.771195 
L 877.169473 427.771195 
L 877.517396 427.771195 
L 877.86532 429.078598 
" clip-path="url(#p615ece7f09)" style="fill: none; stroke: #4f69d9; stroke-width: 1.5; stroke-linecap: square"/>
   </g>
   <g id="line2d_34">
    <path d="M 878.213244 429.078598 
L 878.561167 429.078598 
L 878.909091 429.078598 
L 879.257015 427.771195 
L 879.604938 426.463814 
L 879.952862 426.463814 
L 880.300786 426.463814 
L 880.648709 426.463814 
L 880.996633 423.631127 
L 881.344557 419.491058 
L 881.69248 414.043587 
L 882.040404 409.903497 
L 882.388328 403.148624 
L 882.736251 393.561106 
L 883.084175 388.113635 
L 883.432099 384.191449 
L 883.780022 381.358741 
L 884.127946 373.296507 
L 884.47587 367.849036 
L 884.823793 367.849036 
L 885.171717 363.708947 
L 885.519641 359.568857 
L 885.867565 358.261476 
L 886.215488 356.954094 
L 886.563412 355.646671 
L 886.911336 351.506624 
L 887.259259 350.199201 
L 887.607183 348.673915 
L 887.955107 347.366534 
L 888.30303 347.366534 
L 888.650954 348.673915 
L 888.998878 347.366534 
L 889.346801 350.199201 
L 889.694725 350.199201 
L 890.042649 350.199201 
L 890.390572 354.121386 
L 890.738496 355.646671 
L 891.08642 358.261476 
L 891.434343 358.261476 
L 891.782267 358.261476 
L 892.130191 361.094142 
L 892.478114 361.094142 
L 892.826038 362.401565 
L 893.173962 362.401565 
L 893.521886 365.016328 
L 893.869809 365.016328 
L 894.217733 365.016328 
L 894.565657 366.541613 
L 894.91358 365.016328 
L 895.261504 370.463799 
L 895.609428 370.463799 
L 895.957351 371.989084 
L 896.305275 371.989084 
L 896.653199 373.296507 
L 897.001122 373.296507 
L 897.349046 374.603889 
L 897.69697 378.743978 
L 898.044893 381.358741 
L 898.392817 381.358741 
L 898.740741 381.358741 
L 899.088664 382.666164 
L 899.436588 384.191449 
L 899.784512 385.49883 
L 900.132435 384.191449 
L 900.480359 389.63892 
L 900.828283 392.253683 
L 901.176207 392.253683 
L 901.52413 395.086391 
L 901.872054 397.701154 
L 902.219978 400.533862 
L 902.567901 401.841243 
L 902.915825 403.148624 
L 903.263749 404.456047 
L 903.611672 405.981333 
L 903.959596 407.288714 
L 904.30752 405.981333 
L 904.655443 407.288714 
L 905.003367 408.596116 
L 905.351291 409.903497 
L 905.699214 411.428783 
L 906.047138 414.043587 
L 906.395062 418.183656 
L 906.742985 421.016343 
L 907.090909 421.016343 
L 907.438833 421.016343 
L 907.786756 423.631127 
L 908.13468 421.016343 
L 908.482604 419.491058 
L 908.830527 421.016343 
L 909.178451 421.016343 
L 909.526375 423.631127 
L 909.874299 423.631127 
L 910.222222 424.938529 
L 910.570146 426.463814 
L 910.91807 430.386 
L 911.265993 429.078598 
L 911.613917 430.386 
L 911.961841 435.833471 
L 912.309764 434.526068 
" clip-path="url(#p615ece7f09)" style="fill: none; stroke: #506bda; stroke-width: 1.5; stroke-linecap: square"/>
   </g>
   <g id="line2d_35">
    <path d="M 912.657688 433.218666 
L 913.005612 431.911285 
L 913.353535 433.218666 
L 913.701459 431.911285 
L 914.049383 427.771195 
L 914.397306 427.771195 
L 914.74523 433.218666 
L 915.093154 430.386 
L 915.441077 429.078598 
L 915.789001 429.078598 
L 916.136925 424.938529 
L 916.484848 422.323724 
L 916.832772 418.183656 
L 917.180696 411.428783 
L 917.52862 397.701154 
L 917.876543 392.253683 
L 918.224467 386.806212 
L 918.572391 380.051359 
L 918.920314 370.463799 
L 919.268238 370.463799 
L 919.616162 367.849036 
L 919.964085 366.541613 
L 920.312009 363.708947 
L 920.659933 361.094142 
L 921.007856 362.401565 
L 921.35578 361.094142 
L 921.703704 352.814005 
L 922.051627 351.506624 
L 922.399551 347.366534 
L 922.747475 347.366534 
L 923.095398 343.226444 
L 923.443322 343.226444 
L 923.791246 343.226444 
L 924.139169 343.226444 
L 924.487093 348.673915 
L 924.835017 350.199201 
L 925.182941 351.506624 
L 925.530864 352.814005 
L 925.878788 358.261476 
L 926.226712 358.261476 
L 926.574635 358.261476 
L 926.922559 358.261476 
L 927.270483 356.954094 
L 927.618406 356.954094 
L 927.96633 358.261476 
L 928.314254 359.568857 
L 928.662177 361.094142 
L 929.010101 361.094142 
L 929.358025 365.016328 
L 929.705948 365.016328 
L 930.053872 366.541613 
L 930.401796 367.849036 
L 930.749719 367.849036 
L 931.097643 367.849036 
L 931.445567 367.849036 
L 931.79349 370.463799 
L 932.141414 371.989084 
L 932.489338 373.296507 
L 932.837262 374.603889 
L 933.185185 378.743978 
L 933.533109 377.436555 
L 933.881033 381.358741 
L 934.228956 384.191449 
L 934.57688 384.191449 
L 934.924804 385.49883 
L 935.272727 385.49883 
L 935.620651 386.806212 
L 935.968575 385.49883 
L 936.316498 388.113635 
L 936.664422 390.946301 
L 937.012346 392.253683 
L 937.360269 395.086391 
L 937.708193 396.393772 
L 938.056117 399.008576 
L 938.40404 400.533862 
L 938.751964 400.533862 
L 939.099888 403.148624 
L 939.447811 401.841243 
L 939.795735 404.456047 
L 940.143659 404.456047 
L 940.491582 405.981333 
L 940.839506 405.981333 
L 941.18743 404.456047 
L 941.535354 407.288714 
L 941.883277 407.288714 
L 942.231201 407.288714 
L 942.579125 408.596116 
L 942.927048 412.736185 
L 943.274972 412.736185 
L 943.622896 412.736185 
L 943.970819 414.043587 
L 944.318743 414.043587 
L 944.666667 412.736185 
L 945.01459 415.350968 
L 945.362514 416.876254 
L 945.710438 418.183656 
L 946.058361 418.183656 
" clip-path="url(#p615ece7f09)" style="fill: none; stroke: #5a78e4; stroke-width: 1.5; stroke-linecap: square"/>
   </g>
   <g id="line2d_36">
    <path d="M 946.406285 419.491058 
L 946.754209 418.183656 
L 947.102132 418.183656 
L 947.450056 418.183656 
L 947.79798 415.350968 
L 948.145903 418.183656 
L 948.493827 418.183656 
L 948.841751 416.876254 
L 949.189675 415.350968 
L 949.537598 412.736185 
L 949.885522 407.288714 
L 950.233446 401.841243 
L 950.581369 397.701154 
L 950.929293 386.806212 
L 951.277217 381.358741 
L 951.62514 378.743978 
L 951.973064 377.436555 
L 952.320988 371.989084 
L 952.668911 369.156418 
L 953.016835 366.541613 
L 953.364759 365.016328 
L 953.712682 359.568857 
L 954.060606 358.261476 
L 954.40853 356.954094 
L 954.756453 355.646671 
L 955.104377 352.814005 
L 955.452301 351.506624 
L 955.800224 348.673915 
L 956.148148 351.506624 
L 956.496072 350.199201 
L 956.843996 350.199201 
L 957.191919 348.673915 
L 957.539843 351.506624 
L 957.887767 355.646671 
L 958.23569 355.646671 
L 958.583614 358.261476 
L 958.931538 359.568857 
L 959.279461 359.568857 
L 959.627385 362.401565 
L 959.975309 361.094142 
L 960.323232 362.401565 
L 960.671156 362.401565 
L 961.01908 363.708947 
L 961.367003 365.016328 
L 961.714927 363.708947 
L 962.062851 366.541613 
L 962.410774 366.541613 
L 962.758698 366.541613 
L 963.106622 367.849036 
L 963.454545 370.463799 
L 963.802469 371.989084 
L 964.150393 370.463799 
L 964.498316 373.296507 
L 964.84624 373.296507 
L 965.194164 373.296507 
L 965.542088 375.91127 
L 965.890011 373.296507 
L 966.237935 377.436555 
L 966.585859 378.743978 
L 966.933782 380.051359 
L 967.281706 381.358741 
L 967.62963 384.191449 
L 967.977553 384.191449 
L 968.325477 382.666164 
L 968.673401 386.806212 
L 969.021324 386.806212 
L 969.369248 388.113635 
L 969.717172 388.113635 
L 970.065095 389.63892 
L 970.413019 395.086391 
L 970.760943 396.393772 
L 971.108866 397.701154 
L 971.45679 397.701154 
L 971.804714 399.008576 
L 972.152637 400.533862 
L 972.500561 400.533862 
L 972.848485 400.533862 
L 973.196409 405.981333 
L 973.544332 405.981333 
L 973.892256 407.288714 
L 974.24018 405.981333 
L 974.588103 408.596116 
L 974.936027 409.903497 
L 975.283951 412.736185 
L 975.631874 414.043587 
L 975.979798 412.736185 
L 976.327722 414.043587 
L 976.675645 414.043587 
L 977.023569 414.043587 
L 977.371493 415.350968 
L 977.719416 416.876254 
" clip-path="url(#p615ece7f09)" style="fill: none; stroke: #455cce; stroke-width: 1.5; stroke-linecap: square"/>
   </g>
   <g id="line2d_37">
    <path d="M 978.06734 416.876254 
L 978.415264 416.876254 
L 978.763187 416.876254 
L 979.111111 415.350968 
L 979.459035 412.736185 
L 979.806958 412.736185 
L 980.154882 411.428783 
L 980.502806 411.428783 
L 980.85073 409.903497 
L 981.198653 407.288714 
L 981.546577 405.981333 
L 981.894501 400.533862 
L 982.242424 393.561106 
L 982.590348 385.49883 
L 982.938272 375.91127 
L 983.286195 370.463799 
L 983.634119 361.094142 
L 983.982043 355.646671 
L 984.329966 351.506624 
L 984.67789 350.199201 
L 985.025814 346.059153 
L 985.373737 346.059153 
L 985.721661 339.086397 
L 986.069585 337.778974 
L 986.417508 332.331503 
L 986.765432 332.331503 
L 987.113356 328.191455 
L 987.461279 326.884032 
L 987.809203 324.269269 
L 988.157127 324.269269 
L 988.505051 320.129179 
L 988.852974 318.821798 
L 989.200898 320.129179 
L 989.548822 322.743984 
L 989.896745 328.191455 
L 990.244669 328.191455 
L 990.592593 329.71674 
L 990.940516 332.331503 
L 991.28844 335.164211 
L 991.636364 335.164211 
L 991.984287 336.471592 
L 992.332211 337.778974 
L 992.680135 340.611682 
L 993.028058 339.086397 
L 993.375982 340.611682 
L 993.723906 341.919063 
L 994.071829 343.226444 
L 994.419753 341.919063 
L 994.767677 347.366534 
L 995.1156 347.366534 
L 995.463524 348.673915 
L 995.811448 350.199201 
L 996.159371 348.673915 
L 996.507295 350.199201 
L 996.855219 354.121386 
L 997.203143 352.814005 
L 997.551066 354.121386 
L 997.89899 352.814005 
L 998.246914 361.094142 
L 998.594837 361.094142 
L 998.942761 363.708947 
L 999.290685 363.708947 
L 999.638608 365.016328 
L 999.986532 366.541613 
L 1000.334456 369.156418 
L 1000.682379 370.463799 
L 1001.030303 374.603889 
L 1001.378227 375.91127 
L 1001.72615 377.436555 
L 1002.074074 378.743978 
L 1002.421998 378.743978 
L 1002.769921 381.358741 
L 1003.117845 385.49883 
L 1003.465769 388.113635 
L 1003.813692 388.113635 
L 1004.161616 392.253683 
L 1004.50954 392.253683 
L 1004.857464 392.253683 
L 1005.205387 395.086391 
L 1005.553311 393.561106 
L 1005.901235 397.701154 
L 1006.249158 399.008576 
L 1006.597082 401.841243 
L 1006.945006 403.148624 
L 1007.292929 404.456047 
L 1007.640853 405.981333 
L 1007.988777 407.288714 
L 1008.3367 405.981333 
L 1008.684624 408.596116 
L 1009.032548 408.596116 
L 1009.380471 411.428783 
L 1009.728395 409.903497 
L 1010.076319 411.428783 
L 1010.424242 411.428783 
L 1010.772166 415.350968 
L 1011.12009 414.043587 
L 1011.468013 415.350968 
" clip-path="url(#p615ece7f09)" style="fill: none; stroke: #5875e1; stroke-width: 1.5; stroke-linecap: square"/>
   </g>
   <g id="line2d_38">
    <path d="M 1011.815937 416.876254 
L 1012.163861 416.876254 
L 1012.511785 418.183656 
L 1012.859708 415.350968 
L 1013.207632 415.350968 
L 1013.555556 409.903497 
L 1013.903479 407.288714 
L 1014.251403 404.456047 
L 1014.599327 403.148624 
L 1014.94725 393.561106 
L 1015.295174 386.806212 
L 1015.643098 378.743978 
L 1015.991021 373.296507 
L 1016.338945 361.094142 
L 1016.686869 355.646671 
L 1017.034792 351.506624 
L 1017.382716 348.673915 
L 1017.73064 344.533867 
L 1018.078563 343.226444 
L 1018.426487 339.086397 
L 1018.774411 336.471592 
L 1019.122334 332.331503 
L 1019.470258 331.024121 
L 1019.818182 329.71674 
L 1020.166105 329.71674 
L 1020.514029 326.884032 
L 1020.861953 325.57665 
L 1021.209877 324.269269 
L 1021.5578 324.269269 
L 1021.905724 324.269269 
L 1022.253648 324.269269 
L 1022.601571 325.57665 
L 1022.949495 326.884032 
L 1023.297419 329.71674 
L 1023.645342 331.024121 
L 1023.993266 336.471592 
L 1024.34119 339.086397 
L 1024.689113 340.611682 
L 1025.037037 343.226444 
L 1025.384961 343.226444 
L 1025.732884 343.226444 
L 1026.080808 346.059153 
L 1026.428732 344.533867 
L 1026.776655 347.366534 
L 1027.124579 348.673915 
L 1027.472503 347.366534 
L 1027.820426 348.673915 
L 1028.16835 348.673915 
L 1028.516274 351.506624 
L 1028.864198 355.646671 
L 1029.212121 358.261476 
L 1029.560045 358.261476 
L 1029.907969 359.568857 
L 1030.255892 362.401565 
L 1030.603816 362.401565 
L 1030.95174 365.016328 
L 1031.299663 365.016328 
L 1031.647587 369.156418 
L 1031.995511 369.156418 
L 1032.343434 370.463799 
L 1032.691358 371.989084 
L 1033.039282 375.91127 
L 1033.387205 377.436555 
L 1033.735129 380.051359 
L 1034.083053 381.358741 
L 1034.430976 384.191449 
L 1034.7789 385.49883 
L 1035.126824 386.806212 
L 1035.474747 386.806212 
L 1035.822671 393.561106 
L 1036.170595 393.561106 
L 1036.518519 393.561106 
L 1036.866442 395.086391 
L 1037.214366 396.393772 
L 1037.56229 396.393772 
L 1037.910213 396.393772 
L 1038.258137 397.701154 
L 1038.606061 401.841243 
L 1038.953984 404.456047 
L 1039.301908 404.456047 
L 1039.649832 403.148624 
L 1039.997755 405.981333 
L 1040.345679 407.288714 
L 1040.693603 408.596116 
L 1041.041526 407.288714 
L 1041.38945 408.596116 
L 1041.737374 412.736185 
L 1042.085297 411.428783 
L 1042.433221 412.736185 
L 1042.781145 416.876254 
L 1043.129068 419.491058 
L 1043.476992 416.876254 
L 1043.824916 418.183656 
L 1044.17284 418.183656 
L 1044.520763 419.491058 
L 1044.868687 421.016343 
L 1045.216611 421.016343 
" clip-path="url(#p615ece7f09)" style="fill: none; stroke: #4a63d3; stroke-width: 1.5; stroke-linecap: square"/>
   </g>
   <g id="line2d_39">
    <path d="M 1045.564534 422.323724 
L 1045.912458 422.323724 
L 1046.260382 421.016343 
L 1046.608305 419.491058 
L 1046.956229 419.491058 
L 1047.304153 415.350968 
L 1047.652076 415.350968 
L 1048 415.350968 
L 1048.347924 407.288714 
L 1048.695847 400.533862 
L 1049.043771 396.393772 
L 1049.391695 389.63892 
L 1049.739618 378.743978 
L 1050.087542 373.296507 
L 1050.435466 370.463799 
L 1050.783389 366.541613 
L 1051.131313 362.401565 
L 1051.479237 361.094142 
L 1051.82716 358.261476 
L 1052.175084 356.954094 
L 1052.523008 351.506624 
L 1052.870932 351.506624 
L 1053.218855 350.199201 
L 1053.566779 347.366534 
L 1053.914703 343.226444 
L 1054.262626 343.226444 
L 1054.61055 340.611682 
L 1054.958474 340.611682 
L 1055.306397 339.086397 
L 1055.654321 340.611682 
L 1056.002245 341.919063 
L 1056.350168 343.226444 
L 1056.698092 348.673915 
L 1057.046016 350.199201 
L 1057.393939 351.506624 
L 1057.741863 352.814005 
L 1058.089787 354.121386 
L 1058.43771 354.121386 
L 1058.785634 355.646671 
L 1059.133558 355.646671 
L 1059.481481 356.954094 
L 1059.829405 359.568857 
L 1060.177329 359.568857 
L 1060.525253 361.094142 
L 1060.873176 361.094142 
L 1061.2211 362.401565 
L 1061.569024 363.708947 
L 1061.916947 362.401565 
L 1062.264871 362.401565 
L 1062.612795 366.541613 
L 1062.960718 366.541613 
L 1063.308642 367.849036 
L 1063.656566 371.989084 
L 1064.004489 371.989084 
L 1064.352413 370.463799 
L 1064.700337 375.91127 
L 1065.04826 374.603889 
L 1065.396184 377.436555 
L 1065.744108 380.051359 
L 1066.092031 382.666164 
L 1066.439955 385.49883 
L 1066.787879 386.806212 
L 1067.135802 385.49883 
L 1067.483726 388.113635 
L 1067.83165 390.946301 
L 1068.179574 392.253683 
L 1068.527497 390.946301 
L 1068.875421 393.561106 
L 1069.223345 396.393772 
L 1069.571268 400.533862 
L 1069.919192 400.533862 
L 1070.267116 400.533862 
L 1070.615039 403.148624 
L 1070.962963 404.456047 
L 1071.310887 404.456047 
L 1071.65881 404.456047 
L 1072.006734 407.288714 
L 1072.354658 408.596116 
L 1072.702581 407.288714 
L 1073.050505 409.903497 
L 1073.398429 411.428783 
L 1073.746352 411.428783 
L 1074.094276 409.903497 
L 1074.4422 411.428783 
L 1074.790123 418.183656 
L 1075.138047 419.491058 
L 1075.485971 416.876254 
L 1075.833895 418.183656 
L 1076.181818 418.183656 
L 1076.529742 419.491058 
L 1076.877666 419.491058 
L 1077.225589 421.016343 
L 1077.573513 422.323724 
" clip-path="url(#p615ece7f09)" style="fill: none; stroke: #3b4cc0; stroke-width: 1.5; stroke-linecap: square"/>
   </g>
   <g id="line2d_40">
    <path d="M 1077.921437 423.631127 
L 1078.26936 423.631127 
L 1078.617284 422.323724 
L 1078.965208 421.016343 
L 1079.313131 421.016343 
L 1079.661055 421.016343 
L 1080.008979 419.491058 
L 1080.356902 416.876254 
L 1080.704826 418.183656 
L 1081.05275 415.350968 
L 1081.400673 408.596116 
L 1081.748597 399.008576 
L 1082.096521 392.253683 
L 1082.444444 385.49883 
L 1082.792368 381.358741 
L 1083.140292 377.436555 
L 1083.488215 374.603889 
L 1083.836139 371.989084 
L 1084.184063 367.849036 
L 1084.531987 366.541613 
L 1084.87991 366.541613 
L 1085.227834 362.401565 
L 1085.575758 359.568857 
L 1085.923681 356.954094 
L 1086.271605 354.121386 
L 1086.619529 352.814005 
L 1086.967452 354.121386 
L 1087.315376 350.199201 
L 1087.6633 347.366534 
L 1088.011223 347.366534 
L 1088.359147 348.673915 
L 1088.707071 351.506624 
L 1089.054994 354.121386 
L 1089.402918 354.121386 
L 1089.750842 355.646671 
L 1090.098765 358.261476 
L 1090.446689 359.568857 
L 1090.794613 359.568857 
L 1091.142536 361.094142 
L 1091.49046 361.094142 
L 1091.838384 361.094142 
L 1092.186308 361.094142 
L 1092.534231 361.094142 
L 1092.882155 363.708947 
L 1093.230079 362.401565 
L 1093.578002 365.016328 
L 1093.925926 366.541613 
L 1094.27385 365.016328 
L 1094.621773 366.541613 
L 1094.969697 366.541613 
L 1095.317621 367.849036 
L 1095.665544 370.463799 
L 1096.013468 370.463799 
L 1096.361392 369.156418 
L 1096.709315 370.463799 
L 1097.057239 375.91127 
L 1097.405163 375.91127 
L 1097.753086 378.743978 
L 1098.10101 380.051359 
L 1098.448934 382.666164 
L 1098.796857 381.358741 
L 1099.144781 384.191449 
L 1099.492705 381.358741 
L 1099.840629 382.666164 
L 1100.188552 388.113635 
L 1100.536476 390.946301 
L 1100.8844 390.946301 
L 1101.232323 390.946301 
L 1101.580247 395.086391 
L 1101.928171 395.086391 
L 1102.276094 397.701154 
L 1102.624018 399.008576 
L 1102.971942 404.456047 
L 1103.319865 404.456047 
L 1103.667789 407.288714 
L 1104.015713 407.288714 
L 1104.363636 408.596116 
L 1104.71156 411.428783 
L 1105.059484 409.903497 
L 1105.407407 411.428783 
L 1105.755331 412.736185 
L 1106.103255 411.428783 
L 1106.451178 414.043587 
L 1106.799102 418.183656 
L 1107.147026 416.876254 
L 1107.494949 416.876254 
L 1107.842873 418.183656 
L 1108.190797 421.016343 
L 1108.538721 418.183656 
L 1108.886644 419.491058 
L 1109.234568 421.016343 
L 1109.582492 419.491058 
L 1109.930415 421.016343 
L 1110.278339 422.323724 
" clip-path="url(#p615ece7f09)" style="fill: none; stroke: #455cce; stroke-width: 1.5; stroke-linecap: square"/>
   </g>
   <g id="line2d_41">
    <path d="M 1110.626263 423.631127 
L 1110.974186 423.631127 
L 1111.32211 421.016343 
L 1111.670034 422.323724 
L 1112.017957 421.016343 
L 1112.365881 421.016343 
L 1112.713805 419.491058 
L 1113.061728 418.183656 
L 1113.409652 416.876254 
L 1113.757576 411.428783 
L 1114.105499 407.288714 
L 1114.453423 400.533862 
L 1114.801347 393.561106 
L 1115.14927 382.666164 
L 1115.497194 377.436555 
L 1115.845118 370.463799 
L 1116.193042 366.541613 
L 1116.540965 359.568857 
L 1116.888889 356.954094 
L 1117.236813 355.646671 
L 1117.584736 354.121386 
L 1117.93266 347.366534 
L 1118.280584 347.366534 
L 1118.628507 347.366534 
L 1118.976431 344.533867 
L 1119.324355 341.919063 
L 1119.672278 336.471592 
L 1120.020202 339.086397 
L 1120.368126 337.778974 
L 1120.716049 335.164211 
L 1121.063973 335.164211 
L 1121.411897 335.164211 
L 1121.75982 337.778974 
L 1122.107744 341.919063 
L 1122.455668 341.919063 
L 1122.803591 344.533867 
L 1123.151515 344.533867 
L 1123.499439 347.366534 
L 1123.847363 350.199201 
L 1124.195286 351.506624 
L 1124.54321 352.814005 
L 1124.891134 354.121386 
L 1125.239057 355.646671 
L 1125.586981 356.954094 
L 1125.934905 355.646671 
L 1126.282828 358.261476 
L 1126.630752 356.954094 
L 1126.978676 355.646671 
L 1127.326599 359.568857 
L 1127.674523 362.401565 
L 1128.022447 362.401565 
L 1128.37037 365.016328 
L 1128.718294 365.016328 
L 1129.066218 367.849036 
L 1129.414141 369.156418 
L 1129.762065 370.463799 
L 1130.109989 371.989084 
L 1130.457912 374.603889 
L 1130.805836 375.91127 
L 1131.15376 377.436555 
L 1131.501684 378.743978 
L 1131.849607 380.051359 
L 1132.197531 382.666164 
L 1132.545455 385.49883 
L 1132.893378 388.113635 
L 1133.241302 389.63892 
L 1133.589226 390.946301 
L 1133.937149 393.561106 
L 1134.285073 395.086391 
L 1134.632997 396.393772 
L 1134.98092 397.701154 
L 1135.328844 401.841243 
L 1135.676768 401.841243 
L 1136.024691 405.981333 
L 1136.372615 407.288714 
L 1136.720539 409.903497 
L 1137.068462 409.903497 
L 1137.416386 409.903497 
L 1137.76431 412.736185 
L 1138.112233 412.736185 
L 1138.460157 415.350968 
L 1138.808081 418.183656 
L 1139.156004 418.183656 
L 1139.503928 416.876254 
L 1139.851852 421.016343 
L 1140.199776 422.323724 
L 1140.547699 423.631127 
L 1140.895623 423.631127 
L 1141.243547 423.631127 
L 1141.59147 427.771195 
L 1141.939394 424.938529 
L 1142.287318 427.771195 
L 1142.635241 430.386 
L 1142.983165 430.386 
L 1143.331089 431.911285 
L 1143.679012 430.386 
L 1144.026936 430.386 
L 1144.37486 433.218666 
L 1144.722783 434.526068 
L 1145.070707 435.833471 
L 1145.418631 435.833471 
" clip-path="url(#p615ece7f09)" style="fill: none; stroke: #536edd; stroke-width: 1.5; stroke-linecap: square"/>
   </g>
   <g id="line2d_42">
    <path d="M 1145.766554 435.833471 
L 1146.114478 434.526068 
L 1146.462402 434.526068 
L 1146.810325 434.526068 
L 1147.158249 431.911285 
L 1147.506173 429.078598 
L 1147.854097 427.771195 
L 1148.20202 426.463814 
L 1148.549944 415.350968 
L 1148.897868 408.596116 
L 1149.245791 404.456047 
L 1149.593715 397.701154 
L 1149.941639 386.806212 
L 1150.289562 381.358741 
L 1150.637486 380.051359 
L 1150.98541 378.743978 
L 1151.333333 373.296507 
L 1151.681257 370.463799 
L 1152.029181 369.156418 
L 1152.377104 365.016328 
L 1152.725028 366.541613 
L 1153.072952 362.401565 
L 1153.420875 361.094142 
L 1153.768799 356.954094 
L 1154.116723 354.121386 
L 1154.464646 352.814005 
L 1154.81257 350.199201 
L 1155.160494 352.814005 
L 1155.508418 351.506624 
L 1155.856341 354.121386 
L 1156.204265 355.646671 
L 1156.552189 356.954094 
L 1156.900112 359.568857 
L 1157.248036 362.401565 
L 1157.59596 361.094142 
L 1157.943883 363.708947 
L 1158.291807 365.016328 
L 1158.639731 367.849036 
L 1158.987654 365.016328 
L 1159.335578 367.849036 
L 1159.683502 371.989084 
L 1160.031425 370.463799 
L 1160.379349 371.989084 
L 1160.727273 371.989084 
L 1161.075196 371.989084 
L 1161.42312 373.296507 
L 1161.771044 375.91127 
L 1162.118967 374.603889 
L 1162.466891 378.743978 
L 1162.814815 378.743978 
L 1163.162738 380.051359 
L 1163.510662 380.051359 
L 1163.858586 381.358741 
L 1164.20651 384.191449 
L 1164.554433 384.191449 
L 1164.902357 388.113635 
L 1165.250281 389.63892 
L 1165.598204 392.253683 
L 1165.946128 392.253683 
L 1166.294052 393.561106 
L 1166.641975 396.393772 
L 1166.989899 397.701154 
L 1167.337823 397.701154 
L 1167.685746 399.008576 
L 1168.03367 401.841243 
L 1168.381594 403.148624 
L 1168.729517 404.456047 
L 1169.077441 407.288714 
L 1169.425365 405.981333 
L 1169.773288 408.596116 
L 1170.121212 412.736185 
L 1170.469136 412.736185 
L 1170.817059 412.736185 
L 1171.164983 412.736185 
L 1171.512907 414.043587 
L 1171.860831 412.736185 
L 1172.208754 416.876254 
L 1172.556678 416.876254 
L 1172.904602 418.183656 
L 1173.252525 419.491058 
L 1173.600449 421.016343 
L 1173.948373 421.016343 
L 1174.296296 423.631127 
L 1174.64422 421.016343 
L 1174.992144 424.938529 
L 1175.340067 424.938529 
L 1175.687991 426.463814 
L 1176.035915 426.463814 
L 1176.383838 426.463814 
L 1176.731762 426.463814 
L 1177.079686 429.078598 
L 1177.427609 429.078598 
L 1177.775533 430.386 
L 1178.123457 431.911285 
" clip-path="url(#p615ece7f09)" style="fill: none; stroke: #4257c9; stroke-width: 1.5; stroke-linecap: square"/>
   </g>
   <g id="line2d_43">
    <path d="M 1178.47138 431.911285 
L 1178.819304 430.386 
L 1179.167228 431.911285 
L 1179.515152 429.078598 
L 1179.863075 430.386 
L 1180.210999 430.386 
L 1180.558923 429.078598 
L 1180.906846 429.078598 
L 1181.25477 427.771195 
L 1181.602694 427.771195 
L 1181.950617 419.491058 
L 1182.298541 416.876254 
L 1182.646465 414.043587 
L 1182.994388 408.596116 
L 1183.342312 397.701154 
L 1183.690236 395.086391 
L 1184.038159 393.561106 
L 1184.386083 392.253683 
L 1184.734007 386.806212 
L 1185.08193 382.666164 
L 1185.429854 381.358741 
L 1185.777778 381.358741 
L 1186.125701 377.436555 
L 1186.473625 377.436555 
L 1186.821549 377.436555 
L 1187.169473 375.91127 
L 1187.517396 371.989084 
L 1187.86532 373.296507 
L 1188.213244 370.463799 
L 1188.561167 367.849036 
L 1188.909091 370.463799 
L 1189.257015 367.849036 
L 1189.604938 370.463799 
L 1189.952862 371.989084 
L 1190.300786 374.603889 
L 1190.648709 375.91127 
L 1190.996633 378.743978 
L 1191.344557 380.051359 
L 1191.69248 380.051359 
L 1192.040404 378.743978 
L 1192.388328 380.051359 
L 1192.736251 382.666164 
L 1193.084175 384.191449 
L 1193.432099 382.666164 
L 1193.780022 384.191449 
L 1194.127946 386.806212 
L 1194.47587 385.49883 
L 1194.823793 388.113635 
L 1195.171717 388.113635 
L 1195.519641 389.63892 
L 1195.867565 393.561106 
L 1196.215488 392.253683 
L 1196.563412 392.253683 
L 1196.911336 393.561106 
L 1197.259259 396.393772 
L 1197.607183 396.393772 
L 1197.955107 396.393772 
L 1198.30303 399.008576 
L 1198.650954 400.533862 
L 1198.998878 400.533862 
L 1199.346801 401.841243 
L 1199.694725 405.981333 
L 1200.042649 405.981333 
L 1200.390572 407.288714 
L 1200.738496 407.288714 
L 1201.08642 411.428783 
L 1201.434343 412.736185 
L 1201.782267 412.736185 
L 1202.130191 411.428783 
L 1202.478114 414.043587 
L 1202.826038 416.876254 
L 1203.173962 418.183656 
L 1203.521886 416.876254 
L 1203.869809 421.016343 
L 1204.217733 421.016343 
L 1204.565657 421.016343 
L 1204.91358 421.016343 
L 1205.261504 421.016343 
L 1205.609428 423.631127 
L 1205.957351 427.771195 
L 1206.305275 426.463814 
L 1206.653199 430.386 
L 1207.001122 431.911285 
L 1207.349046 431.911285 
L 1207.69697 433.218666 
L 1208.044893 433.218666 
L 1208.392817 434.526068 
L 1208.740741 434.526068 
L 1209.088664 434.526068 
L 1209.436588 435.833471 
L 1209.784512 435.833471 
L 1210.132435 437.358756 
L 1210.480359 435.833471 
L 1210.828283 437.358756 
" clip-path="url(#p615ece7f09)" style="fill: none; stroke: #3b4cc0; stroke-width: 1.5; stroke-linecap: square"/>
   </g>
   <g id="line2d_44">
    <path d="M 1211.176207 438.666137 
L 1211.52413 435.833471 
L 1211.872054 435.833471 
L 1212.219978 437.358756 
L 1212.567901 434.526068 
L 1212.915825 437.358756 
L 1213.263749 433.218666 
L 1213.611672 430.386 
L 1213.959596 430.386 
L 1214.30752 424.938529 
L 1214.655443 419.491058 
L 1215.003367 418.183656 
L 1215.351291 407.288714 
L 1215.699214 401.841243 
L 1216.047138 395.086391 
L 1216.395062 389.63892 
L 1216.742985 384.191449 
L 1217.090909 380.051359 
L 1217.438833 380.051359 
L 1217.786756 378.743978 
L 1218.13468 374.603889 
L 1218.482604 374.603889 
L 1218.830527 370.463799 
L 1219.178451 369.156418 
L 1219.526375 363.708947 
L 1219.874299 361.094142 
L 1220.222222 361.094142 
L 1220.570146 359.568857 
L 1220.91807 355.646671 
L 1221.265993 356.954094 
L 1221.613917 355.646671 
L 1221.961841 358.261476 
L 1222.309764 359.568857 
L 1222.657688 359.568857 
L 1223.005612 362.401565 
L 1223.353535 365.016328 
L 1223.701459 365.016328 
L 1224.049383 366.541613 
L 1224.397306 367.849036 
L 1224.74523 367.849036 
L 1225.093154 367.849036 
L 1225.441077 367.849036 
L 1225.789001 367.849036 
L 1226.136925 369.156418 
L 1226.484848 371.989084 
L 1226.832772 371.989084 
L 1227.180696 370.463799 
L 1227.52862 373.296507 
L 1227.876543 375.91127 
L 1228.224467 374.603889 
L 1228.572391 375.91127 
L 1228.920314 375.91127 
L 1229.268238 375.91127 
L 1229.616162 375.91127 
L 1229.964085 378.743978 
L 1230.312009 381.358741 
L 1230.659933 385.49883 
L 1231.007856 385.49883 
L 1231.35578 386.806212 
L 1231.703704 389.63892 
L 1232.051627 388.113635 
L 1232.399551 388.113635 
L 1232.747475 390.946301 
L 1233.095398 390.946301 
L 1233.443322 395.086391 
L 1233.791246 395.086391 
L 1234.139169 397.701154 
L 1234.487093 401.841243 
L 1234.835017 399.008576 
L 1235.182941 403.148624 
L 1235.530864 403.148624 
L 1235.878788 403.148624 
L 1236.226712 407.288714 
L 1236.574635 409.903497 
L 1236.922559 412.736185 
L 1237.270483 412.736185 
L 1237.618406 414.043587 
L 1237.96633 415.350968 
L 1238.314254 415.350968 
L 1238.662177 415.350968 
L 1239.010101 418.183656 
L 1239.358025 419.491058 
L 1239.705948 419.491058 
L 1240.053872 423.631127 
L 1240.401796 423.631127 
L 1240.749719 423.631127 
L 1241.097643 426.463814 
L 1241.445567 424.938529 
L 1241.79349 424.938529 
L 1242.141414 427.771195 
L 1242.489338 429.078598 
L 1242.837262 430.386 
L 1243.185185 427.771195 
L 1243.533109 429.078598 
L 1243.881033 430.386 
L 1244.228956 430.386 
L 1244.57688 430.386 
L 1244.924804 433.218666 
L 1245.272727 433.218666 
" clip-path="url(#p615ece7f09)" style="fill: none; stroke: #5470de; stroke-width: 1.5; stroke-linecap: square"/>
   </g>
   <g id="patch_3">
    <path d="M 180 640.8 
L 180 86.4 
" style="fill: none; stroke: #000000; stroke-width: 0.8; stroke-linejoin: miter; stroke-linecap: square"/>
   </g>
   <g id="patch_4">
    <path d="M 1296 640.8 
L 1296 86.4 
" style="fill: none; stroke: #000000; stroke-width: 0.8; stroke-linejoin: miter; stroke-linecap: square"/>
   </g>
   <g id="patch_5">
    <path d="M 180 640.8 
L 1296 640.8 
" style="fill: none; stroke: #000000; stroke-width: 0.8; stroke-linejoin: miter; stroke-linecap: square"/>
   </g>
   <g id="patch_6">
    <path d="M 180 86.4 
L 1296 86.4 
" style="fill: none; stroke: #000000; stroke-width: 0.8; stroke-linejoin: miter; stroke-linecap: square"/>
   </g>
  </g>
 </g>
 <defs>
  <clipPath id="p615ece7f09">
   <rect x="180" y="86.4" width="1116" height="554.4"/>
  </clipPath>
 </defs>
</svg>
