<?xml version="1.0" encoding="utf-8" standalone="no"?>
<!DOCTYPE svg PUBLIC "-//W3C//DTD SVG 1.1//EN"
  "http://www.w3.org/Graphics/SVG/1.1/DTD/svg11.dtd">
<svg xmlns:xlink="http://www.w3.org/1999/xlink" width="1440pt" height="720pt" viewBox="0 0 1440 720" xmlns="http://www.w3.org/2000/svg" version="1.1">
 <metadata>
  <rdf:RDF xmlns:dc="http://purl.org/dc/elements/1.1/" xmlns:cc="http://creativecommons.org/ns#" xmlns:rdf="http://www.w3.org/1999/02/22-rdf-syntax-ns#">
   <cc:Work>
    <dc:type rdf:resource="http://purl.org/dc/dcmitype/StillImage"/>
    <dc:date>2023-06-19T15:53:34.443869</dc:date>
    <dc:format>image/svg+xml</dc:format>
    <dc:creator>
     <cc:Agent>
      <dc:title>Matplotlib v3.7.1, https://matplotlib.org/</dc:title>
     </cc:Agent>
    </dc:creator>
   </cc:Work>
  </rdf:RDF>
 </metadata>
 <defs>
  <style type="text/css">*{stroke-linejoin: round; stroke-linecap: butt}</style>
 </defs>
 <g id="figure_1">
  <g id="patch_1">
   <path d="M 0 720 
L 1440 720 
L 1440 0 
L 0 0 
z
" style="fill: #ffffff"/>
  </g>
  <g id="axes_1">
   <g id="patch_2">
    <path d="M 180 640.8 
L 1296 640.8 
L 1296 86.4 
L 180 86.4 
z
" style="fill: #ffffff"/>
   </g>
   <g id="matplotlib.axis_1">
    <g id="xtick_1">
     <g id="line2d_1">
      <defs>
       <path id="m09f5d96b9a" d="M 0 0 
L 0 3.5 
" style="stroke: #000000; stroke-width: 0.8"/>
      </defs>
      <g>
       <use xlink:href="#m09f5d96b9a" x="230.727273" y="640.8" style="stroke: #000000; stroke-width: 0.8"/>
      </g>
     </g>
     <g id="text_1">
      <!-- 0 -->
      <g transform="translate(227.546023 655.398438) scale(0.1 -0.1)">
       <defs>
        <path id="DejaVuSans-30" d="M 2034 4250 
Q 1547 4250 1301 3770 
Q 1056 3291 1056 2328 
Q 1056 1369 1301 889 
Q 1547 409 2034 409 
Q 2525 409 2770 889 
Q 3016 1369 3016 2328 
Q 3016 3291 2770 3770 
Q 2525 4250 2034 4250 
z
M 2034 4750 
Q 2819 4750 3233 4129 
Q 3647 3509 3647 2328 
Q 3647 1150 3233 529 
Q 2819 -91 2034 -91 
Q 1250 -91 836 529 
Q 422 1150 422 2328 
Q 422 3509 836 4129 
Q 1250 4750 2034 4750 
z
" transform="scale(0.015625)"/>
       </defs>
       <use xlink:href="#DejaVuSans-30"/>
      </g>
     </g>
    </g>
    <g id="xtick_2">
     <g id="line2d_2">
      <g>
       <use xlink:href="#m09f5d96b9a" x="399.874564" y="640.8" style="stroke: #000000; stroke-width: 0.8"/>
      </g>
     </g>
     <g id="text_2">
      <!-- 500 -->
      <g transform="translate(390.330814 655.398438) scale(0.1 -0.1)">
       <defs>
        <path id="DejaVuSans-35" d="M 691 4666 
L 3169 4666 
L 3169 4134 
L 1269 4134 
L 1269 2991 
Q 1406 3038 1543 3061 
Q 1681 3084 1819 3084 
Q 2600 3084 3056 2656 
Q 3513 2228 3513 1497 
Q 3513 744 3044 326 
Q 2575 -91 1722 -91 
Q 1428 -91 1123 -41 
Q 819 9 494 109 
L 494 744 
Q 775 591 1075 516 
Q 1375 441 1709 441 
Q 2250 441 2565 725 
Q 2881 1009 2881 1497 
Q 2881 1984 2565 2268 
Q 2250 2553 1709 2553 
Q 1456 2553 1204 2497 
Q 953 2441 691 2322 
L 691 4666 
z
" transform="scale(0.015625)"/>
       </defs>
       <use xlink:href="#DejaVuSans-35"/>
       <use xlink:href="#DejaVuSans-30" x="63.623047"/>
       <use xlink:href="#DejaVuSans-30" x="127.246094"/>
      </g>
     </g>
    </g>
    <g id="xtick_3">
     <g id="line2d_3">
      <g>
       <use xlink:href="#m09f5d96b9a" x="569.021856" y="640.8" style="stroke: #000000; stroke-width: 0.8"/>
      </g>
     </g>
     <g id="text_3">
      <!-- 1000 -->
      <g transform="translate(556.296856 655.398438) scale(0.1 -0.1)">
       <defs>
        <path id="DejaVuSans-31" d="M 794 531 
L 1825 531 
L 1825 4091 
L 703 3866 
L 703 4441 
L 1819 4666 
L 2450 4666 
L 2450 531 
L 3481 531 
L 3481 0 
L 794 0 
L 794 531 
z
" transform="scale(0.015625)"/>
       </defs>
       <use xlink:href="#DejaVuSans-31"/>
       <use xlink:href="#DejaVuSans-30" x="63.623047"/>
       <use xlink:href="#DejaVuSans-30" x="127.246094"/>
       <use xlink:href="#DejaVuSans-30" x="190.869141"/>
      </g>
     </g>
    </g>
    <g id="xtick_4">
     <g id="line2d_4">
      <g>
       <use xlink:href="#m09f5d96b9a" x="738.169147" y="640.8" style="stroke: #000000; stroke-width: 0.8"/>
      </g>
     </g>
     <g id="text_4">
      <!-- 1500 -->
      <g transform="translate(725.444147 655.398438) scale(0.1 -0.1)">
       <use xlink:href="#DejaVuSans-31"/>
       <use xlink:href="#DejaVuSans-35" x="63.623047"/>
       <use xlink:href="#DejaVuSans-30" x="127.246094"/>
       <use xlink:href="#DejaVuSans-30" x="190.869141"/>
      </g>
     </g>
    </g>
    <g id="xtick_5">
     <g id="line2d_5">
      <g>
       <use xlink:href="#m09f5d96b9a" x="907.316439" y="640.8" style="stroke: #000000; stroke-width: 0.8"/>
      </g>
     </g>
     <g id="text_5">
      <!-- 2000 -->
      <g transform="translate(894.591439 655.398438) scale(0.1 -0.1)">
       <defs>
        <path id="DejaVuSans-32" d="M 1228 531 
L 3431 531 
L 3431 0 
L 469 0 
L 469 531 
Q 828 903 1448 1529 
Q 2069 2156 2228 2338 
Q 2531 2678 2651 2914 
Q 2772 3150 2772 3378 
Q 2772 3750 2511 3984 
Q 2250 4219 1831 4219 
Q 1534 4219 1204 4116 
Q 875 4013 500 3803 
L 500 4441 
Q 881 4594 1212 4672 
Q 1544 4750 1819 4750 
Q 2544 4750 2975 4387 
Q 3406 4025 3406 3419 
Q 3406 3131 3298 2873 
Q 3191 2616 2906 2266 
Q 2828 2175 2409 1742 
Q 1991 1309 1228 531 
z
" transform="scale(0.015625)"/>
       </defs>
       <use xlink:href="#DejaVuSans-32"/>
       <use xlink:href="#DejaVuSans-30" x="63.623047"/>
       <use xlink:href="#DejaVuSans-30" x="127.246094"/>
       <use xlink:href="#DejaVuSans-30" x="190.869141"/>
      </g>
     </g>
    </g>
    <g id="xtick_6">
     <g id="line2d_6">
      <g>
       <use xlink:href="#m09f5d96b9a" x="1076.46373" y="640.8" style="stroke: #000000; stroke-width: 0.8"/>
      </g>
     </g>
     <g id="text_6">
      <!-- 2500 -->
      <g transform="translate(1063.73873 655.398438) scale(0.1 -0.1)">
       <use xlink:href="#DejaVuSans-32"/>
       <use xlink:href="#DejaVuSans-35" x="63.623047"/>
       <use xlink:href="#DejaVuSans-30" x="127.246094"/>
       <use xlink:href="#DejaVuSans-30" x="190.869141"/>
      </g>
     </g>
    </g>
    <g id="xtick_7">
     <g id="line2d_7">
      <g>
       <use xlink:href="#m09f5d96b9a" x="1245.611022" y="640.8" style="stroke: #000000; stroke-width: 0.8"/>
      </g>
     </g>
     <g id="text_7">
      <!-- 3000 -->
      <g transform="translate(1232.886022 655.398438) scale(0.1 -0.1)">
       <defs>
        <path id="DejaVuSans-33" d="M 2597 2516 
Q 3050 2419 3304 2112 
Q 3559 1806 3559 1356 
Q 3559 666 3084 287 
Q 2609 -91 1734 -91 
Q 1441 -91 1130 -33 
Q 819 25 488 141 
L 488 750 
Q 750 597 1062 519 
Q 1375 441 1716 441 
Q 2309 441 2620 675 
Q 2931 909 2931 1356 
Q 2931 1769 2642 2001 
Q 2353 2234 1838 2234 
L 1294 2234 
L 1294 2753 
L 1863 2753 
Q 2328 2753 2575 2939 
Q 2822 3125 2822 3475 
Q 2822 3834 2567 4026 
Q 2313 4219 1838 4219 
Q 1578 4219 1281 4162 
Q 984 4106 628 3988 
L 628 4550 
Q 988 4650 1302 4700 
Q 1616 4750 1894 4750 
Q 2613 4750 3031 4423 
Q 3450 4097 3450 3541 
Q 3450 3153 3228 2886 
Q 3006 2619 2597 2516 
z
" transform="scale(0.015625)"/>
       </defs>
       <use xlink:href="#DejaVuSans-33"/>
       <use xlink:href="#DejaVuSans-30" x="63.623047"/>
       <use xlink:href="#DejaVuSans-30" x="127.246094"/>
       <use xlink:href="#DejaVuSans-30" x="190.869141"/>
      </g>
     </g>
    </g>
   </g>
   <g id="matplotlib.axis_2">
    <g id="ytick_1">
     <g id="line2d_8">
      <defs>
       <path id="m5e2b0d7124" d="M 0 0 
L -3.5 0 
" style="stroke: #000000; stroke-width: 0.8"/>
      </defs>
      <g>
       <use xlink:href="#m5e2b0d7124" x="180" y="538.028016" style="stroke: #000000; stroke-width: 0.8"/>
      </g>
     </g>
     <g id="text_8">
      <!-- 10 -->
      <g transform="translate(160.275 541.827234) scale(0.1 -0.1)">
       <use xlink:href="#DejaVuSans-31"/>
       <use xlink:href="#DejaVuSans-30" x="63.623047"/>
      </g>
     </g>
    </g>
    <g id="ytick_2">
     <g id="line2d_9">
      <g>
       <use xlink:href="#m5e2b0d7124" x="180" y="429.078598" style="stroke: #000000; stroke-width: 0.8"/>
      </g>
     </g>
     <g id="text_9">
      <!-- 15 -->
      <g transform="translate(160.275 432.877816) scale(0.1 -0.1)">
       <use xlink:href="#DejaVuSans-31"/>
       <use xlink:href="#DejaVuSans-35" x="63.623047"/>
      </g>
     </g>
    </g>
    <g id="ytick_3">
     <g id="line2d_10">
      <g>
       <use xlink:href="#m5e2b0d7124" x="180" y="320.129179" style="stroke: #000000; stroke-width: 0.8"/>
      </g>
     </g>
     <g id="text_10">
      <!-- 20 -->
      <g transform="translate(160.275 323.928398) scale(0.1 -0.1)">
       <use xlink:href="#DejaVuSans-32"/>
       <use xlink:href="#DejaVuSans-30" x="63.623047"/>
      </g>
     </g>
    </g>
    <g id="ytick_4">
     <g id="line2d_11">
      <g>
       <use xlink:href="#m5e2b0d7124" x="180" y="211.179761" style="stroke: #000000; stroke-width: 0.8"/>
      </g>
     </g>
     <g id="text_11">
      <!-- 25 -->
      <g transform="translate(160.275 214.97898) scale(0.1 -0.1)">
       <use xlink:href="#DejaVuSans-32"/>
       <use xlink:href="#DejaVuSans-35" x="63.623047"/>
      </g>
     </g>
    </g>
    <g id="ytick_5">
     <g id="line2d_12">
      <g>
       <use xlink:href="#m5e2b0d7124" x="180" y="102.230343" style="stroke: #000000; stroke-width: 0.8"/>
      </g>
     </g>
     <g id="text_12">
      <!-- 30 -->
      <g transform="translate(160.275 106.029562) scale(0.1 -0.1)">
       <use xlink:href="#DejaVuSans-33"/>
       <use xlink:href="#DejaVuSans-30" x="63.623047"/>
      </g>
     </g>
    </g>
   </g>
   <g id="line2d_13">
    <path d="M 230.727273 434.526068 
L 231.065567 434.526068 
L 231.403862 433.000783 
L 231.742156 434.526068 
L 232.080451 430.386 
L 232.418746 429.078598 
L 232.75704 426.24591 
L 233.095335 424.938529 
L 233.771924 404.456047 
L 234.110219 400.315958 
L 235.125102 378.526074 
L 235.463397 377.218693 
L 235.801691 373.078603 
L 236.139986 370.463799 
L 236.816575 362.183662 
L 237.831459 354.121386 
L 238.169754 349.981338 
L 238.846343 349.981338 
L 239.184637 351.28872 
L 239.861226 351.28872 
L 240.199521 352.814005 
L 241.214405 360.87628 
L 241.552699 365.016328 
L 242.229289 367.631132 
L 242.567583 370.463799 
L 242.905878 369.156418 
L 243.244172 371.771222 
L 243.582467 371.771222 
L 243.920761 373.078603 
L 244.259056 373.078603 
L 244.597351 375.91127 
L 244.935645 377.218693 
L 245.27394 377.218693 
L 245.950529 382.666164 
L 246.288824 381.358741 
L 246.627118 381.358741 
L 246.965413 383.973545 
L 247.303707 383.973545 
L 247.980296 390.946301 
L 248.318591 394.868487 
L 248.99518 394.868487 
L 249.671769 397.701154 
L 250.348359 403.148624 
L 250.686653 404.456047 
L 251.024948 408.596116 
L 251.363242 407.288714 
L 251.701537 408.596116 
L 252.039831 411.2109 
L 252.378126 415.350968 
L 252.716421 415.350968 
L 253.054715 418.183656 
L 253.39301 418.183656 
L 253.731304 420.798439 
L 254.069599 422.105841 
L 254.407894 422.105841 
L 255.084483 424.938529 
L 255.422777 427.553312 
L 255.761072 427.553312 
L 256.099366 430.386 
L 256.437661 430.386 
L 257.452545 438.448254 
L 258.129134 438.448254 
L 258.805723 435.833471 
L 259.144018 437.140852 
L 259.820607 434.526068 
L 260.158901 435.833471 
L 260.835491 423.631127 
L 261.51208 411.2109 
L 262.188669 399.008576 
L 262.526964 396.393772 
L 262.865258 394.868487 
L 263.541847 385.280927 
L 264.218436 380.051359 
L 264.556731 378.526074 
L 264.895026 375.91127 
L 265.23332 374.603889 
L 265.571615 374.603889 
L 265.909909 371.771222 
L 266.248204 371.771222 
L 266.586499 370.463799 
L 266.924793 371.771222 
L 267.263088 369.156418 
L 267.601382 371.771222 
L 267.939677 373.078603 
L 268.277971 375.91127 
L 268.616266 380.051359 
L 268.954561 377.218693 
L 269.292855 381.358741 
L 269.63115 383.973545 
L 269.969444 383.973545 
L 270.646034 386.806212 
L 270.984328 385.280927 
L 271.322623 390.946301 
L 271.660917 388.113635 
L 271.999212 388.113635 
L 272.337506 389.421016 
L 272.675801 389.421016 
L 273.014096 392.253683 
L 273.35239 393.561106 
L 273.690685 393.561106 
L 274.028979 394.868487 
L 274.367274 397.701154 
L 274.705569 397.701154 
L 275.382158 400.315958 
L 275.720452 403.148624 
L 276.058747 401.841243 
L 276.397041 404.456047 
L 276.735336 408.596116 
L 277.073631 409.903497 
L 277.411925 412.736185 
L 277.75022 412.736185 
L 278.088514 414.043587 
L 278.765104 419.491058 
L 279.103398 419.491058 
L 279.441693 420.798439 
L 279.779987 424.938529 
L 280.456576 430.386 
L 281.133166 430.386 
L 281.47146 431.693381 
L 282.486344 439.973539 
L 282.824639 441.280942 
L 283.162933 443.895725 
L 283.501228 445.42101 
L 283.839522 445.42101 
L 284.516111 448.035794 
L 284.854406 450.650577 
L 285.192701 452.175883 
L 285.86929 452.175883 
L 286.207584 446.728412 
L 286.545879 446.728412 
L 286.884174 449.343196 
L 287.222468 448.035794 
L 287.560763 443.895725 
L 287.899057 442.588323 
L 288.237352 438.448254 
L 288.575646 435.833471 
L 288.913941 424.938529 
L 289.252236 419.491058 
L 289.928825 414.043587 
L 290.267119 407.288714 
L 290.605414 404.456047 
L 291.282003 404.456047 
L 291.958592 394.868487 
L 292.296887 393.561106 
L 292.973476 388.113635 
L 293.311771 388.113635 
L 293.650065 383.973545 
L 293.98836 383.973545 
L 294.326654 381.358741 
L 295.003244 381.358741 
L 295.341538 382.666164 
L 296.018127 388.113635 
L 296.356422 389.421016 
L 296.694716 389.421016 
L 297.033011 392.253683 
L 297.7096 394.868487 
L 298.047895 394.868487 
L 298.386189 397.701154 
L 298.724484 396.393772 
L 299.401073 396.393772 
L 299.739368 399.008576 
L 300.077662 399.008576 
L 300.415957 397.701154 
L 300.754251 399.008576 
L 301.092546 401.841243 
L 301.430841 401.841243 
L 301.769135 403.148624 
L 302.10743 405.763429 
L 302.445724 405.763429 
L 302.784019 408.596116 
L 303.122313 407.288714 
L 303.460608 409.903497 
L 303.798903 414.043587 
L 304.475492 414.043587 
L 304.813786 416.658371 
L 305.152081 418.183656 
L 305.490376 418.183656 
L 305.82867 420.798439 
L 306.166965 422.105841 
L 306.505259 426.24591 
L 306.843554 426.24591 
L 307.181848 427.553312 
L 308.196732 435.833471 
L 308.535027 437.140852 
L 308.873321 437.140852 
L 309.211616 438.448254 
L 309.549911 438.448254 
L 309.888205 442.588323 
L 310.2265 441.280942 
L 310.903089 443.895725 
L 311.241383 443.895725 
L 311.917973 446.728412 
L 312.256267 445.42101 
L 312.594562 448.035794 
L 312.932856 449.343196 
L 313.271151 448.035794 
L 313.609446 449.343196 
L 313.94774 448.035794 
L 314.286035 448.035794 
L 314.624329 446.728412 
L 314.962624 443.895725 
L 315.300918 443.895725 
L 315.639213 441.280942 
L 316.654097 429.078598 
L 316.992391 422.105841 
L 317.330686 411.2109 
L 317.668981 405.763429 
L 318.34557 403.148624 
L 319.022159 393.561106 
L 319.360453 393.561106 
L 319.698748 390.946301 
L 320.037043 383.973545 
L 320.375337 381.358741 
L 320.713632 382.666164 
L 321.051926 381.358741 
L 321.728516 375.91127 
L 322.06681 374.603889 
L 322.405105 375.91127 
L 323.081694 375.91127 
L 323.419988 377.218693 
L 324.096578 382.666164 
L 324.434872 382.666164 
L 324.773167 386.806212 
L 325.111461 386.806212 
L 325.449756 385.280927 
L 325.788051 386.806212 
L 326.126345 389.421016 
L 326.46464 388.113635 
L 326.802934 390.946301 
L 327.141229 392.253683 
L 327.479523 392.253683 
L 327.817818 396.393772 
L 328.156113 396.393772 
L 328.494407 394.868487 
L 328.832702 396.393772 
L 329.170996 394.868487 
L 329.509291 397.701154 
L 329.847586 399.008576 
L 330.18588 399.008576 
L 330.862469 401.841243 
L 331.200764 404.456047 
L 331.539058 405.763429 
L 331.877353 408.596116 
L 332.215648 409.903497 
L 332.553942 409.903497 
L 332.892237 411.2109 
L 333.230531 414.043587 
L 333.907121 414.043587 
L 334.245415 415.350968 
L 334.58371 418.183656 
L 334.922004 419.491058 
L 335.260299 423.631127 
L 335.598593 426.24591 
L 335.936888 423.631127 
L 336.275183 427.553312 
L 336.613477 426.24591 
L 336.951772 431.693381 
L 337.290066 433.000783 
L 337.628361 431.693381 
L 338.30495 437.140852 
L 338.643245 437.140852 
L 339.319834 439.973539 
L 339.658128 443.895725 
L 339.996423 442.588323 
L 340.334718 445.42101 
L 340.673012 446.728412 
L 341.011307 449.343196 
L 341.687896 449.343196 
L 342.026191 452.175883 
L 342.364485 450.650577 
L 342.70278 450.650577 
L 343.041074 453.483265 
L 343.379369 452.175883 
L 343.717663 453.483265 
L 344.055958 453.483265 
L 344.394253 449.343196 
L 344.732547 448.035794 
L 345.070842 442.588323 
L 345.409136 439.973539 
L 345.747431 430.386 
L 346.085726 426.24591 
L 346.42402 424.938529 
L 346.762315 422.105841 
L 347.438904 415.350968 
L 347.777198 414.043587 
L 348.115493 414.043587 
L 348.453788 407.288714 
L 348.792082 405.763429 
L 349.130377 403.148624 
L 349.468671 403.148624 
L 349.806966 400.315958 
L 350.483555 397.701154 
L 350.82185 394.868487 
L 351.160144 396.393772 
L 351.498439 394.868487 
L 352.175028 400.315958 
L 352.513323 401.841243 
L 352.851617 400.315958 
L 353.189912 401.841243 
L 353.528206 404.456047 
L 353.866501 408.596116 
L 354.204796 407.288714 
L 354.54309 409.903497 
L 354.881385 409.903497 
L 355.219679 412.736185 
L 355.896268 412.736185 
L 356.234563 411.2109 
L 356.572858 408.596116 
L 357.249447 408.596116 
L 357.587741 409.903497 
L 357.926036 409.903497 
L 358.264331 412.736185 
L 358.602625 414.043587 
L 359.279214 414.043587 
L 359.955803 416.658371 
L 360.294098 416.658371 
L 360.632393 419.491058 
L 360.970687 419.491058 
L 361.308982 420.798439 
L 361.647276 420.798439 
L 361.985571 423.631127 
L 362.323866 423.631127 
L 363.000455 426.24591 
L 363.338749 433.000783 
L 363.677044 431.693381 
L 364.015338 433.000783 
L 364.353633 433.000783 
L 364.691928 435.833471 
L 365.368517 435.833471 
L 365.706811 437.140852 
L 366.045106 437.140852 
L 366.721695 442.588323 
L 367.05999 441.280942 
L 367.398284 442.588323 
L 367.736579 442.588323 
L 368.074873 441.280942 
L 368.413168 441.280942 
L 368.751463 442.588323 
L 369.089757 442.588323 
L 369.428052 445.42101 
L 370.104641 445.42101 
L 370.442936 446.728412 
L 370.78123 445.42101 
L 371.457819 439.973539 
L 371.796114 441.280942 
L 372.472703 441.280942 
L 372.810998 438.448254 
L 373.487587 429.078598 
L 373.825881 424.938529 
L 374.164176 416.658371 
L 374.840765 409.903497 
L 375.17906 407.288714 
L 375.517354 401.841243 
L 376.193943 396.393772 
L 376.870533 383.973545 
L 377.208827 383.973545 
L 377.547122 381.358741 
L 377.885416 377.218693 
L 378.223711 378.526074 
L 378.562006 375.91127 
L 378.9003 371.771222 
L 379.238595 370.463799 
L 379.576889 366.323751 
L 379.915184 367.631132 
L 380.591773 367.631132 
L 380.930068 371.771222 
L 381.268362 373.078603 
L 381.606657 373.078603 
L 381.944951 374.603889 
L 382.283246 374.603889 
L 382.621541 377.218693 
L 382.959835 377.218693 
L 383.29813 378.526074 
L 383.636424 382.666164 
L 383.974719 380.051359 
L 384.313013 380.051359 
L 384.651308 381.358741 
L 385.666192 377.218693 
L 386.004486 377.218693 
L 386.342781 381.358741 
L 387.01937 383.973545 
L 387.695959 389.421016 
L 388.034254 390.946301 
L 388.372548 389.421016 
L 388.710843 392.253683 
L 389.049138 392.253683 
L 389.725727 397.701154 
L 390.064021 401.841243 
L 390.740611 401.841243 
L 391.078905 404.456047 
L 391.4172 404.456047 
L 391.755494 405.763429 
L 392.432083 411.2109 
L 393.446967 415.350968 
L 393.785262 418.183656 
L 394.123556 419.491058 
L 394.461851 422.105841 
L 394.800146 423.631127 
L 395.13844 423.631127 
L 395.476735 426.24591 
L 395.815029 426.24591 
L 396.491618 431.693381 
L 396.829913 431.693381 
L 397.168208 437.140852 
L 397.506502 439.973539 
L 398.521386 439.973539 
L 398.85968 441.280942 
L 399.197975 441.280942 
L 399.874564 443.895725 
L 400.551153 443.895725 
L 401.904332 438.448254 
L 402.242626 438.448254 
L 402.580921 437.140852 
L 402.919215 430.386 
L 403.25751 427.553312 
L 403.595805 422.105841 
L 403.934099 409.903497 
L 404.272394 404.456047 
L 405.287278 396.393772 
L 405.625572 394.868487 
L 405.963867 392.253683 
L 406.640456 382.666164 
L 407.317045 371.771222 
L 407.993634 371.771222 
L 408.331929 366.323751 
L 408.670223 366.323751 
L 409.008518 367.631132 
L 409.346813 366.323751 
L 409.685107 369.156418 
L 410.023402 369.156418 
L 410.361696 367.631132 
L 411.038285 370.463799 
L 411.37658 369.156418 
L 411.714875 370.463799 
L 412.053169 374.603889 
L 413.068053 378.526074 
L 413.744642 378.526074 
L 414.082937 377.218693 
L 414.421231 382.666164 
L 414.759526 380.051359 
L 415.09782 381.358741 
L 415.436115 385.280927 
L 415.77441 385.280927 
L 416.450999 388.113635 
L 416.789293 388.113635 
L 417.127588 390.946301 
L 417.465883 394.868487 
L 418.142472 397.701154 
L 418.480766 397.701154 
L 418.819061 399.008576 
L 419.157355 399.008576 
L 419.49565 397.701154 
L 419.833945 399.008576 
L 420.172239 401.841243 
L 420.848828 408.596116 
L 421.863712 412.736185 
L 422.202007 412.736185 
L 422.540301 415.350968 
L 422.878596 419.491058 
L 423.21689 418.183656 
L 423.555185 422.105841 
L 423.89348 423.631127 
L 424.231774 423.631127 
L 424.570069 422.105841 
L 424.908363 422.105841 
L 425.246658 423.631127 
L 425.584953 426.24591 
L 426.261542 429.078598 
L 426.599836 431.693381 
L 427.276425 434.526068 
L 427.61472 434.526068 
L 427.953015 431.693381 
L 428.291309 434.526068 
L 428.629604 434.526068 
L 428.967898 435.833471 
L 429.306193 435.833471 
L 429.644488 439.973539 
L 429.982782 437.140852 
L 430.321077 435.833471 
L 430.659371 431.693381 
L 430.997666 420.798439 
L 432.689139 386.806212 
L 433.027433 383.973545 
L 434.042317 373.078603 
L 434.380612 370.463799 
L 434.718906 369.156418 
L 435.057201 363.708947 
L 435.395495 363.708947 
L 435.73379 360.87628 
L 436.072085 362.183662 
L 436.410379 360.87628 
L 437.086968 360.87628 
L 437.425263 362.183662 
L 438.101852 362.183662 
L 438.440147 365.016328 
L 439.116736 367.631132 
L 439.45503 367.631132 
L 440.13162 373.078603 
L 440.808209 375.91127 
L 441.146503 374.603889 
L 441.823093 381.358741 
L 442.161387 381.358741 
L 442.499682 383.973545 
L 443.176271 381.358741 
L 443.514565 381.358741 
L 443.85286 380.051359 
L 444.191155 383.973545 
L 444.529449 385.280927 
L 444.867744 383.973545 
L 445.206038 385.280927 
L 445.544333 383.973545 
L 445.882628 385.280927 
L 446.220922 388.113635 
L 446.559217 386.806212 
L 446.897511 386.806212 
L 447.235806 390.946301 
L 447.5741 393.561106 
L 447.912395 392.253683 
L 448.25069 392.253683 
L 448.588984 397.701154 
L 448.927279 397.701154 
L 449.265573 396.393772 
L 449.942163 403.148624 
L 450.280457 405.763429 
L 451.295341 409.903497 
L 451.633635 412.736185 
L 451.97193 412.736185 
L 452.310225 415.350968 
L 452.648519 422.105841 
L 452.986814 422.105841 
L 453.663403 424.938529 
L 454.001698 424.938529 
L 454.339992 422.105841 
L 454.678287 423.631127 
L 455.016581 423.631127 
L 455.354876 422.105841 
L 455.69317 423.631127 
L 456.36976 430.386 
L 457.046349 430.386 
L 457.384643 429.078598 
L 458.061233 423.631127 
L 458.399527 422.105841 
L 458.737822 422.105841 
L 459.076116 419.491058 
L 459.752705 403.148624 
L 460.091 397.701154 
L 460.429295 389.421016 
L 461.105884 381.358741 
L 461.444178 378.526074 
L 461.782473 374.603889 
L 462.120768 369.156418 
L 462.797357 363.708947 
L 463.135651 363.708947 
L 463.473946 356.736191 
L 463.81224 352.814005 
L 464.150535 352.814005 
L 464.48883 349.981338 
L 464.827124 352.814005 
L 465.165419 351.28872 
L 465.842008 351.28872 
L 466.180303 349.981338 
L 466.518597 352.814005 
L 466.856892 351.28872 
L 467.195186 354.121386 
L 467.533481 359.568857 
L 467.871775 362.183662 
L 468.21007 360.87628 
L 468.548365 363.708947 
L 468.886659 362.183662 
L 469.224954 363.708947 
L 469.563248 366.323751 
L 469.901543 367.631132 
L 470.578132 373.078603 
L 470.916427 374.603889 
L 471.254721 380.051359 
L 471.593016 388.113635 
L 471.93131 388.113635 
L 472.6079 385.280927 
L 473.284489 378.526074 
L 473.622783 380.051359 
L 473.961078 382.666164 
L 474.299373 390.946301 
L 474.637667 393.561106 
L 475.314256 396.393772 
L 475.652551 399.008576 
L 475.990845 400.315958 
L 476.32914 404.456047 
L 476.667435 403.148624 
L 477.005729 403.148624 
L 477.344024 401.841243 
L 477.682318 403.148624 
L 478.020613 401.841243 
L 478.358908 401.841243 
L 478.697202 403.148624 
L 479.373791 408.596116 
L 479.712086 412.736185 
L 480.05038 412.736185 
L 480.388675 415.350968 
L 480.72697 416.658371 
L 481.065264 415.350968 
L 481.741853 415.350968 
L 482.080148 418.183656 
L 482.418443 423.631127 
L 483.433326 427.553312 
L 483.771621 426.24591 
L 484.109915 426.24591 
L 484.44821 427.553312 
L 484.786505 424.938529 
L 485.124799 426.24591 
L 485.801388 420.798439 
L 486.139683 419.491058 
L 486.477978 412.736185 
L 487.154567 405.763429 
L 487.831156 403.148624 
L 488.16945 403.148624 
L 488.507745 400.315958 
L 488.84604 400.315958 
L 489.184334 388.113635 
L 489.860923 378.526074 
L 490.199218 373.078603 
L 490.537513 373.078603 
L 490.875807 371.771222 
L 491.214102 373.078603 
L 491.552396 375.91127 
L 491.890691 369.156418 
L 492.228985 366.323751 
L 492.56728 365.016328 
L 492.905575 365.016328 
L 493.243869 363.708947 
L 493.920458 370.463799 
L 494.258753 373.078603 
L 495.273637 377.218693 
L 495.611931 377.218693 
L 495.950226 380.051359 
L 496.626815 382.666164 
L 496.96511 382.666164 
L 497.303404 383.973545 
L 497.641699 382.666164 
L 497.979993 382.666164 
L 498.318288 381.358741 
L 498.656582 388.113635 
L 499.333172 393.561106 
L 499.671466 390.946301 
L 500.009761 390.946301 
L 500.348055 386.806212 
L 500.68635 388.113635 
L 501.024645 386.806212 
L 501.362939 388.113635 
L 502.039528 393.561106 
L 502.377823 393.561106 
L 502.716117 399.008576 
L 503.392707 399.008576 
L 503.731001 396.393772 
L 504.069296 397.701154 
L 504.40759 397.701154 
L 504.745885 399.008576 
L 505.08418 394.868487 
L 505.422474 400.315958 
L 506.099063 403.148624 
L 506.437358 401.841243 
L 507.113947 407.288714 
L 507.452242 407.288714 
L 508.128831 409.903497 
L 508.467125 414.043587 
L 509.143715 414.043587 
L 509.482009 418.183656 
L 509.820304 418.183656 
L 510.158598 419.491058 
L 510.496893 423.631127 
L 511.511777 427.553312 
L 512.188366 424.938529 
L 512.52666 420.798439 
L 512.864955 418.183656 
L 513.20325 416.658371 
L 513.541544 416.658371 
L 514.556428 404.456047 
L 514.894722 393.561106 
L 516.92449 360.87628 
L 517.262785 359.568857 
L 517.601079 355.428809 
L 517.939374 354.121386 
L 518.277668 349.981338 
L 518.615963 347.366534 
L 518.954257 347.366534 
L 519.292552 343.226444 
L 519.630847 341.919063 
L 519.969141 337.778974 
L 520.307436 331.024121 
L 520.64573 326.884032 
L 520.984025 325.57665 
L 521.32232 331.024121 
L 521.660614 349.981338 
L 521.998909 359.568857 
L 522.337203 365.016328 
L 522.675498 363.708947 
L 523.013792 355.428809 
L 523.690382 346.059153 
L 524.028676 349.981338 
L 524.366971 365.016328 
L 524.705265 373.078603 
L 525.04356 377.218693 
L 525.381855 375.91127 
L 525.720149 362.183662 
L 526.396738 352.814005 
L 526.735033 354.121386 
L 527.073327 370.463799 
L 527.411622 374.603889 
L 527.749917 383.973545 
L 528.088211 385.280927 
L 528.426506 371.771222 
L 528.7648 366.323751 
L 529.103095 363.708947 
L 529.44139 363.708947 
L 529.779684 378.526074 
L 530.456273 393.561106 
L 530.794568 399.008576 
L 532.147746 373.078603 
L 532.486041 378.526074 
L 532.824335 390.946301 
L 533.16263 394.868487 
L 533.500925 404.456047 
L 533.839219 407.288714 
L 534.177514 403.148624 
L 534.515808 396.393772 
L 535.192397 388.113635 
L 536.207281 414.043587 
L 536.545576 420.798439 
L 536.88387 422.105841 
L 537.222165 418.183656 
L 537.898754 408.596116 
L 538.237049 412.736185 
L 538.575343 415.350968 
L 538.913638 419.491058 
L 539.251932 422.105841 
L 540.266816 409.903497 
L 540.605111 403.148624 
L 540.943405 403.148624 
L 541.2817 404.456047 
L 541.619995 403.148624 
L 542.634878 375.91127 
L 543.311467 354.121386 
L 543.649762 354.121386 
L 544.664646 358.261476 
L 545.00294 356.736191 
L 545.341235 349.981338 
L 545.67953 346.059153 
L 546.017824 339.086397 
L 546.356119 340.393778 
L 546.694413 340.393778 
L 547.032708 343.226444 
L 547.371002 347.366534 
L 548.385886 339.086397 
L 548.724181 339.086397 
L 549.062475 343.226444 
L 549.40077 344.533867 
L 550.077359 363.708947 
L 550.415654 362.183662 
L 550.753948 352.814005 
L 551.092243 336.471592 
L 551.430537 352.814005 
L 551.768832 363.708947 
L 552.107127 359.568857 
L 552.445421 348.673915 
L 553.12201 388.113635 
L 553.460305 390.946301 
L 553.7986 392.253683 
L 554.475189 355.428809 
L 554.813483 352.814005 
L 555.151778 354.121386 
L 555.490072 366.323751 
L 556.166662 340.393778 
L 556.504956 351.28872 
L 556.843251 397.701154 
L 557.181545 400.315958 
L 557.51984 389.421016 
L 557.858135 382.666164 
L 558.196429 385.280927 
L 558.873018 404.456047 
L 559.211313 404.456047 
L 559.549607 390.946301 
L 559.887902 389.421016 
L 560.226197 394.868487 
L 560.564491 397.701154 
L 560.902786 394.868487 
L 561.24108 394.868487 
L 561.579375 396.393772 
L 561.91767 400.315958 
L 562.255964 400.315958 
L 562.594259 397.701154 
L 563.270848 388.113635 
L 563.609142 397.701154 
L 564.285732 409.903497 
L 564.962321 424.938529 
L 565.63891 430.386 
L 565.977205 430.386 
L 566.653794 420.798439 
L 566.992088 418.183656 
L 567.330383 418.183656 
L 567.668677 419.491058 
L 568.006972 418.183656 
L 568.345267 415.350968 
L 568.683561 404.456047 
L 569.021856 385.280927 
L 569.698445 385.280927 
L 570.03674 380.051359 
L 570.375034 367.631132 
L 570.713329 363.708947 
L 571.389918 360.87628 
L 572.066507 352.814005 
L 572.404802 352.814005 
L 572.743096 358.261476 
L 573.081391 408.596116 
L 573.419685 415.350968 
L 573.75798 404.456047 
L 574.096275 377.218693 
L 574.434569 331.024121 
L 575.111158 302.261482 
L 575.449453 299.646677 
L 575.787747 318.603894 
L 576.126042 331.024121 
L 576.802631 348.673915 
L 577.817515 321.436561 
L 578.15581 319.911276 
L 578.494104 303.786767 
L 578.832399 302.261482 
L 579.170693 310.541619 
L 580.185577 360.87628 
L 580.523872 356.736191 
L 581.538755 336.471592 
L 581.87705 339.086397 
L 582.215345 354.121386 
L 582.553639 351.28872 
L 582.891934 354.121386 
L 583.230228 352.814005 
L 583.568523 346.059153 
L 583.906817 343.226444 
L 584.245112 344.533867 
L 584.921701 355.428809 
L 585.259996 369.156418 
L 585.936585 380.051359 
L 586.27488 388.113635 
L 586.613174 403.148624 
L 586.951469 408.596116 
L 587.289763 409.903497 
L 587.628058 405.763429 
L 587.966352 414.043587 
L 588.304647 419.491058 
L 588.642942 419.491058 
L 589.319531 424.938529 
L 589.657825 429.078598 
L 589.99612 430.386 
L 590.334415 433.000783 
L 590.672709 438.448254 
L 591.011004 439.973539 
L 591.687593 429.078598 
L 592.025887 426.24591 
L 592.364182 430.386 
L 592.702477 430.386 
L 593.040771 429.078598 
L 593.379066 439.973539 
L 593.71736 441.280942 
L 594.055655 441.280942 
L 594.393949 448.035794 
L 595.070539 453.483265 
L 595.747128 461.763423 
L 596.085422 460.238138 
L 596.423717 457.623354 
L 596.762012 452.175883 
L 598.11519 419.491058 
L 598.453484 414.043587 
L 598.791779 403.148624 
L 599.130074 400.315958 
L 599.468368 399.008576 
L 599.806663 401.841243 
L 600.144957 403.148624 
L 600.483252 405.763429 
L 600.821547 409.903497 
L 601.159841 407.288714 
L 601.83643 392.253683 
L 602.174725 385.280927 
L 602.513019 383.973545 
L 603.189609 383.973545 
L 603.527903 386.806212 
L 603.866198 385.280927 
L 604.204492 388.113635 
L 605.219376 388.113635 
L 605.557671 383.973545 
L 605.895965 386.806212 
L 606.572554 389.421016 
L 606.910849 394.868487 
L 607.249144 396.393772 
L 608.264027 392.253683 
L 609.278911 392.253683 
L 610.632089 408.596116 
L 610.970384 409.903497 
L 611.308679 407.288714 
L 611.985268 404.456047 
L 612.323562 407.288714 
L 612.661857 408.596116 
L 613.338446 408.596116 
L 613.676741 414.043587 
L 614.015035 416.658371 
L 614.691624 419.491058 
L 615.029919 424.938529 
L 615.706508 427.553312 
L 616.044803 427.553312 
L 616.383097 426.24591 
L 617.397981 430.386 
L 617.736276 435.833471 
L 618.07457 437.140852 
L 618.751159 448.035794 
L 619.089454 418.183656 
L 619.427749 415.350968 
L 619.766043 430.386 
L 620.104338 438.448254 
L 620.442632 438.448254 
L 620.780927 458.930736 
L 621.119222 469.825677 
L 621.457516 486.16809 
L 621.795811 494.448248 
L 622.134105 475.273148 
L 622.4724 445.42101 
L 622.810694 427.553312 
L 623.487284 405.763429 
L 623.825578 403.148624 
L 624.502167 415.350968 
L 624.840462 408.596116 
L 625.178757 404.456047 
L 625.517051 407.288714 
L 625.855346 408.596116 
L 627.546819 422.105841 
L 628.223408 414.043587 
L 628.561702 399.008576 
L 629.914881 382.666164 
L 630.253175 382.666164 
L 630.59147 385.280927 
L 630.929764 386.806212 
L 631.268059 393.561106 
L 631.606354 394.868487 
L 631.944648 397.701154 
L 632.282943 397.701154 
L 632.621237 401.841243 
L 633.636121 423.631127 
L 633.974416 433.000783 
L 634.31271 434.526068 
L 634.651005 431.693381 
L 634.989299 433.000783 
L 635.327594 430.386 
L 635.665889 429.078598 
L 636.004183 420.798439 
L 636.342478 408.596116 
L 636.680772 401.841243 
L 637.019067 405.763429 
L 637.695656 403.148624 
L 638.372245 405.763429 
L 638.71054 412.736185 
L 639.387129 437.140852 
L 639.725424 435.833471 
L 640.063718 433.000783 
L 640.402013 433.000783 
L 641.755191 418.183656 
L 642.093486 419.491058 
L 642.43178 423.631127 
L 642.770075 426.24591 
L 643.108369 434.526068 
L 643.446664 450.650577 
L 644.123253 448.035794 
L 644.461548 453.483265 
L 644.799842 465.685609 
L 645.476432 475.273148 
L 645.814726 475.273148 
L 646.153021 448.035794 
L 646.491315 443.895725 
L 646.82961 446.728412 
L 647.167904 453.483265 
L 647.506199 479.413238 
L 647.844494 492.922963 
L 648.182788 495.755651 
L 648.521083 495.755651 
L 649.197672 461.763423 
L 649.535967 442.588323 
L 649.874261 441.280942 
L 650.55085 482.245904 
L 650.889145 494.448248 
L 651.227439 499.895719 
L 651.565734 507.957974 
L 651.904029 499.895719 
L 652.580618 472.658365 
L 652.918912 446.728412 
L 654.272091 399.008576 
L 654.610385 400.315958 
L 655.625269 438.448254 
L 655.963564 445.42101 
L 656.301858 446.728412 
L 656.640153 439.973539 
L 657.316742 363.708947 
L 657.655037 355.428809 
L 657.993331 375.91127 
L 658.331626 365.016328 
L 658.66992 363.708947 
L 659.008215 360.87628 
L 659.346509 351.28872 
L 659.684804 295.506629 
L 660.023099 291.36654 
L 660.361393 291.36654 
L 661.037982 266.961852 
L 661.714572 369.156418 
L 662.391161 405.763429 
L 662.729455 412.736185 
L 663.06775 409.903497 
L 663.406044 408.596116 
L 664.082634 486.16809 
L 664.420928 492.922963 
L 664.759223 473.965767 
L 665.097517 448.035794 
L 665.435812 458.930736 
L 666.112401 303.786767 
L 666.450696 302.261482 
L 667.465579 420.798439 
L 667.803874 490.30818 
L 668.142169 494.448248 
L 668.480463 489.000777 
L 668.818758 480.720619 
L 669.495347 438.448254 
L 669.833642 427.553312 
L 670.171936 426.24591 
L 670.510231 434.526068 
L 671.18682 446.728412 
L 671.525114 453.483265 
L 672.539998 491.615561 
L 672.878293 516.238132 
L 673.216587 551.537741 
L 673.554882 563.740085 
L 673.893177 570.712841 
L 674.231471 565.26537 
L 674.569766 520.160318 
L 675.922944 426.24591 
L 676.261239 429.078598 
L 676.599533 435.833471 
L 676.937828 439.973539 
L 677.276122 434.526068 
L 677.614417 424.938529 
L 678.291006 392.253683 
L 678.629301 371.771222 
L 678.967595 367.631132 
L 679.30589 370.463799 
L 679.644184 377.218693 
L 679.982479 412.736185 
L 680.997363 437.140852 
L 681.335657 437.140852 
L 681.673952 415.350968 
L 682.688836 315.98909 
L 683.02713 319.911276 
L 683.365425 360.87628 
L 683.703719 388.113635 
L 684.042014 426.24591 
L 684.380309 431.693381 
L 684.718603 431.693381 
L 685.056898 437.140852 
L 685.395192 449.343196 
L 685.733487 441.280942 
L 686.748371 374.603889 
L 687.086665 373.078603 
L 687.42496 375.91127 
L 687.763254 381.358741 
L 688.101549 445.42101 
L 688.439844 483.553307 
L 688.778138 495.755651 
L 689.116433 491.615561 
L 689.454727 489.000777 
L 689.793022 484.860709 
L 690.131316 469.825677 
L 690.469611 443.895725 
L 690.807906 394.868487 
L 691.484495 362.183662 
L 691.822789 355.428809 
L 692.161084 367.631132 
L 693.175968 452.175883 
L 693.514262 486.16809 
L 693.852557 479.413238 
L 694.529146 424.938529 
L 694.867441 381.358741 
L 695.205735 381.358741 
L 695.54403 394.868487 
L 695.882324 422.105841 
L 696.220619 514.712847 
L 696.558914 533.887947 
L 696.897208 513.405445 
L 697.235503 471.13308 
L 697.573797 343.226444 
L 698.588681 111.6 
L 698.926976 132.082502 
L 699.941859 314.463805 
L 700.280154 445.42101 
L 700.618449 482.245904 
L 700.956743 479.413238 
L 701.295038 483.553307 
L 701.971627 419.491058 
L 702.648216 352.814005 
L 702.986511 358.261476 
L 703.6631 416.658371 
L 704.339689 510.790661 
L 704.677984 528.440476 
L 705.016278 520.160318 
L 705.692867 491.615561 
L 706.031162 486.16809 
L 706.369456 486.16809 
L 706.707751 487.475492 
L 707.046046 487.475492 
L 707.38434 495.755651 
L 708.399224 531.055259 
L 708.737519 527.133074 
L 709.414108 512.098063 
L 709.752402 498.370434 
L 710.090697 497.063032 
L 710.428991 497.063032 
L 710.767286 502.510503 
L 711.105581 503.817905 
L 711.443875 494.448248 
L 712.120464 438.448254 
L 712.458759 366.323751 
L 712.797054 344.533867 
L 713.135348 340.393778 
L 713.473643 348.673915 
L 713.811937 371.771222 
L 714.150232 374.603889 
L 714.488526 370.463799 
L 714.826821 360.87628 
L 715.165116 334.946307 
L 715.50341 326.884032 
L 715.841705 324.051365 
L 716.179999 329.498836 
L 716.518294 351.28872 
L 716.856589 358.261476 
L 717.194883 359.568857 
L 717.533178 359.568857 
L 717.871472 349.981338 
L 718.209767 355.428809 
L 718.886356 419.491058 
L 719.224651 476.58055 
L 719.90124 521.467699 
L 720.239534 517.545534 
L 720.577829 497.063032 
L 720.916124 492.922963 
L 721.254418 499.895719 
L 721.592713 495.755651 
L 722.269302 464.378207 
L 722.607596 442.588323 
L 722.945891 435.833471 
L 723.284186 448.035794 
L 723.960775 463.070825 
L 724.299069 464.378207 
L 724.637364 449.343196 
L 725.990542 336.471592 
L 726.328837 328.191455 
L 726.667131 333.638926 
L 727.005426 328.191455 
L 727.343721 329.498836 
L 728.02031 382.666164 
L 728.358604 408.596116 
L 728.696899 486.16809 
L 729.035194 533.887947 
L 729.373488 551.537741 
L 729.711783 516.238132 
L 730.050077 359.568857 
L 730.388372 292.891825 
L 730.726666 262.821804 
L 731.064961 268.269275 
L 731.74155 419.491058 
L 732.079845 480.720619 
L 732.418139 510.790661 
L 732.756434 595.117508 
L 733.094729 610.152529 
L 733.433023 589.670037 
L 733.771318 544.782889 
L 734.109612 435.833471 
L 734.786201 340.393778 
L 735.124496 324.051365 
L 735.801085 492.922963 
L 736.477674 615.6 
L 736.815969 606.01245 
L 737.492558 461.763423 
L 737.830853 416.658371 
L 738.169147 341.919063 
L 738.507442 341.919063 
L 738.845736 343.226444 
L 739.184031 346.059153 
L 739.522326 347.366534 
L 740.198915 352.814005 
L 740.537209 354.121386 
L 740.875504 356.954094 
L 741.213799 355.646671 
L 741.552093 355.646671 
L 741.890388 358.261476 
L 742.228682 355.646671 
L 742.566977 356.954094 
L 742.905271 359.568857 
L 743.243566 361.094142 
L 743.920155 366.541613 
L 744.25845 366.541613 
L 744.596744 369.156418 
L 744.935039 366.541613 
L 745.273334 369.156418 
L 745.949923 369.156418 
L 746.288217 373.296507 
L 746.964806 375.91127 
L 747.303101 375.91127 
L 747.641396 380.051359 
L 747.97969 378.743978 
L 748.317985 378.743978 
L 748.994574 388.113635 
L 750.009458 392.253683 
L 750.686047 395.086391 
L 751.024341 395.086391 
L 751.362636 396.393772 
L 751.700931 400.533862 
L 752.039225 401.841243 
L 752.715814 407.288714 
L 753.054109 405.981333 
L 753.392404 409.903497 
L 753.730698 408.596116 
L 754.068993 408.596116 
L 754.407287 412.736185 
L 754.745582 412.736185 
L 755.083876 414.043587 
L 755.422171 418.183656 
L 755.760466 418.183656 
L 756.09876 421.016343 
L 756.437055 421.016343 
L 756.775349 422.323724 
L 757.113644 421.016343 
L 757.451939 422.323724 
L 757.790233 424.938529 
L 758.128528 423.631127 
L 758.466822 426.463814 
L 758.805117 430.386 
L 759.143411 429.078598 
L 759.481706 429.078598 
L 759.820001 427.771195 
L 760.834884 431.911285 
L 761.849768 427.771195 
L 762.526357 422.323724 
L 762.864652 421.016343 
L 763.541241 411.428783 
L 763.879536 401.841243 
L 764.894419 385.49883 
L 765.571009 371.989084 
L 766.247598 369.156418 
L 766.585892 362.401565 
L 766.924187 359.568857 
L 767.262481 359.568857 
L 767.600776 358.261476 
L 767.939071 352.814005 
L 768.61566 350.199201 
L 768.953954 350.199201 
L 769.292249 346.059153 
L 769.968838 346.059153 
L 770.307133 347.366534 
L 770.645427 347.366534 
L 770.983722 350.199201 
L 771.322016 351.506624 
L 772.3369 359.568857 
L 772.675195 358.261476 
L 773.013489 358.261476 
L 773.351784 359.568857 
L 773.690079 362.401565 
L 774.028373 362.401565 
L 774.366668 363.708947 
L 774.704962 366.541613 
L 775.043257 366.541613 
L 775.719846 363.708947 
L 776.73473 367.849036 
L 777.073024 371.989084 
L 777.411319 371.989084 
L 777.749614 373.296507 
L 778.087908 373.296507 
L 778.764497 375.91127 
L 779.102792 378.743978 
L 779.441086 380.051359 
L 779.779381 380.051359 
L 780.117676 382.666164 
L 780.45597 384.191449 
L 780.794265 382.666164 
L 781.132559 384.191449 
L 781.470854 386.806212 
L 781.809149 392.253683 
L 782.147443 393.561106 
L 782.485738 392.253683 
L 782.824032 395.086391 
L 783.162327 395.086391 
L 783.838916 400.533862 
L 784.515505 403.148624 
L 784.8538 403.148624 
L 785.192094 404.456047 
L 785.530389 408.596116 
L 785.868684 407.288714 
L 786.206978 409.903497 
L 786.545273 411.428783 
L 786.883567 409.903497 
L 787.221862 412.736185 
L 787.560156 412.736185 
L 787.898451 414.043587 
L 788.236746 416.876254 
L 788.57504 418.183656 
L 788.913335 416.876254 
L 789.251629 416.876254 
L 789.589924 418.183656 
L 789.928218 418.183656 
L 790.604808 421.016343 
L 790.943102 419.491058 
L 791.281397 423.631127 
L 791.619691 424.938529 
L 791.957986 423.631127 
L 792.296281 426.463814 
L 792.634575 427.771195 
L 792.97287 427.771195 
L 793.311164 429.078598 
L 793.649459 427.771195 
L 793.987753 429.078598 
L 794.326048 429.078598 
L 794.664343 430.386 
L 795.002637 429.078598 
L 795.679226 429.078598 
L 796.355816 426.463814 
L 796.69411 426.463814 
L 797.370699 421.016343 
L 797.708994 411.428783 
L 798.047288 408.596116 
L 798.385583 404.456047 
L 799.062172 389.63892 
L 799.400467 388.113635 
L 799.738761 382.666164 
L 800.077056 382.666164 
L 800.753645 380.051359 
L 801.430234 374.603889 
L 801.768529 369.156418 
L 802.106823 369.156418 
L 802.445118 365.016328 
L 803.121707 362.401565 
L 803.798296 362.401565 
L 804.136591 361.094142 
L 804.474886 361.094142 
L 804.81318 363.708947 
L 805.151475 367.849036 
L 805.489769 367.849036 
L 805.828064 370.463799 
L 806.166358 370.463799 
L 806.504653 373.296507 
L 806.842948 374.603889 
L 807.519537 374.603889 
L 807.857831 375.91127 
L 808.196126 374.603889 
L 808.534421 380.051359 
L 808.872715 378.743978 
L 809.549304 378.743978 
L 809.887599 381.358741 
L 810.225893 381.358741 
L 810.564188 385.49883 
L 810.902483 381.358741 
L 811.240777 385.49883 
L 811.579072 384.191449 
L 811.917366 385.49883 
L 812.255661 388.113635 
L 812.593956 386.806212 
L 812.93225 389.63892 
L 813.608839 392.253683 
L 813.947134 395.086391 
L 814.285428 395.086391 
L 814.623723 399.008576 
L 814.962018 397.701154 
L 815.300312 400.533862 
L 816.315196 404.456047 
L 816.653491 408.596116 
L 817.33008 408.596116 
L 817.668374 409.903497 
L 818.006669 414.043587 
L 818.344963 415.350968 
L 818.683258 415.350968 
L 819.021553 414.043587 
L 819.698142 416.876254 
L 820.036436 419.491058 
L 820.713026 419.491058 
L 821.05132 418.183656 
L 821.389615 423.631127 
L 821.727909 421.016343 
L 822.066204 423.631127 
L 822.404498 424.938529 
L 822.742793 427.771195 
L 823.081088 429.078598 
L 823.419382 431.911285 
L 823.757677 431.911285 
L 824.095971 429.078598 
L 824.434266 427.771195 
L 824.772561 430.386 
L 825.110855 431.911285 
L 825.787444 431.911285 
L 826.125739 434.526068 
L 826.464033 434.526068 
L 826.802328 433.218666 
L 827.140623 435.833471 
L 827.478917 433.218666 
L 827.817212 434.526068 
L 828.155506 433.218666 
L 828.493801 433.218666 
L 828.832096 430.386 
L 829.846979 426.463814 
L 830.523568 415.350968 
L 830.861863 412.736185 
L 831.200158 408.596116 
L 831.538452 397.701154 
L 831.876747 390.946301 
L 832.215041 386.806212 
L 832.553336 384.191449 
L 832.891631 378.743978 
L 833.906514 370.463799 
L 834.244809 369.156418 
L 834.583103 366.541613 
L 834.921398 362.401565 
L 835.259693 361.094142 
L 836.274576 352.814005 
L 836.612871 354.121386 
L 836.951166 351.506624 
L 837.28946 352.814005 
L 837.627755 352.814005 
L 837.966049 354.121386 
L 838.304344 352.814005 
L 839.319228 356.954094 
L 839.995817 362.401565 
L 840.334111 363.708947 
L 840.672406 361.094142 
L 841.010701 363.708947 
L 841.348995 363.708947 
L 841.68729 365.016328 
L 842.025584 365.016328 
L 842.363879 367.849036 
L 842.702173 367.849036 
L 843.378763 370.463799 
L 843.717057 370.463799 
L 844.055352 369.156418 
L 844.731941 371.989084 
L 845.070236 374.603889 
L 845.40853 373.296507 
L 845.746825 375.91127 
L 846.085119 377.436555 
L 846.423414 380.051359 
L 847.438298 380.051359 
L 847.776592 385.49883 
L 848.453181 385.49883 
L 849.129771 390.946301 
L 849.468065 392.253683 
L 849.80636 392.253683 
L 850.144654 395.086391 
L 850.821243 397.701154 
L 851.159538 400.533862 
L 851.497833 399.008576 
L 852.174422 404.456047 
L 852.851011 404.456047 
L 853.189306 405.981333 
L 853.5276 408.596116 
L 853.865895 408.596116 
L 854.542484 414.043587 
L 854.880778 415.350968 
L 855.219073 418.183656 
L 855.557368 415.350968 
L 855.895662 416.876254 
L 856.572251 416.876254 
L 856.910546 419.491058 
L 857.587135 422.323724 
L 857.92543 422.323724 
L 858.263724 424.938529 
L 858.602019 426.463814 
L 858.940313 424.938529 
L 859.278608 424.938529 
L 859.616903 427.771195 
L 860.293492 427.771195 
L 860.631786 429.078598 
L 861.64667 429.078598 
L 862.323259 426.463814 
L 863.338143 426.463814 
L 863.676438 423.631127 
L 864.691321 409.903497 
L 865.029616 403.148624 
L 865.367911 393.561106 
L 866.0445 384.191449 
L 866.382794 381.358741 
L 867.059383 367.849036 
L 867.397678 367.849036 
L 868.074267 359.568857 
L 869.089151 355.646671 
L 869.427446 351.506624 
L 870.442329 347.366534 
L 870.780624 347.366534 
L 871.118918 348.673915 
L 871.457213 347.366534 
L 871.795508 350.199201 
L 872.472097 350.199201 
L 872.810391 354.121386 
L 873.148686 355.646671 
L 873.486981 358.261476 
L 874.16357 358.261476 
L 874.501864 361.094142 
L 874.840159 361.094142 
L 875.178453 362.401565 
L 875.516748 362.401565 
L 875.855043 365.016328 
L 876.531632 365.016328 
L 876.869926 366.541613 
L 877.208221 365.016328 
L 877.546516 370.463799 
L 877.88481 370.463799 
L 878.223105 371.989084 
L 878.561399 371.989084 
L 878.899694 373.296507 
L 879.237988 373.296507 
L 879.576283 374.603889 
L 879.914578 378.743978 
L 880.252872 381.358741 
L 880.929461 381.358741 
L 881.944345 385.49883 
L 882.28264 384.191449 
L 882.620934 389.63892 
L 882.959229 392.253683 
L 883.297523 392.253683 
L 884.312407 400.533862 
L 886.00388 407.288714 
L 886.342175 405.981333 
L 887.695353 411.428783 
L 888.033648 414.043587 
L 888.710237 421.016343 
L 889.386826 421.016343 
L 889.72512 423.631127 
L 890.063415 421.016343 
L 890.40171 419.491058 
L 890.740004 421.016343 
L 891.078299 421.016343 
L 891.416593 423.631127 
L 891.754888 423.631127 
L 892.431477 426.463814 
L 892.769772 430.386 
L 893.108066 429.078598 
L 893.446361 430.386 
L 893.784655 435.833471 
L 894.799539 431.911285 
L 895.137834 433.218666 
L 895.476128 431.911285 
L 895.814423 427.771195 
L 896.152718 427.771195 
L 896.491012 433.218666 
L 896.829307 430.386 
L 897.167601 429.078598 
L 897.505896 429.078598 
L 897.84419 424.938529 
L 898.182485 422.323724 
L 898.52078 418.183656 
L 898.859074 411.428783 
L 899.197369 397.701154 
L 900.212253 380.051359 
L 900.550547 370.463799 
L 900.888842 370.463799 
L 901.227136 367.849036 
L 901.565431 366.541613 
L 902.24202 361.094142 
L 902.580315 362.401565 
L 902.918609 361.094142 
L 903.256904 352.814005 
L 903.595198 351.506624 
L 903.933493 347.366534 
L 904.271788 347.366534 
L 904.610082 343.226444 
L 905.624966 343.226444 
L 905.96326 348.673915 
L 906.978144 352.814005 
L 907.316439 358.261476 
L 908.331323 358.261476 
L 908.669617 356.954094 
L 909.007912 356.954094 
L 910.022795 361.094142 
L 910.36109 361.094142 
L 910.699385 365.016328 
L 911.037679 365.016328 
L 911.714268 367.849036 
L 912.729152 367.849036 
L 913.067447 370.463799 
L 914.08233 374.603889 
L 914.420625 378.743978 
L 914.75892 377.436555 
L 915.435509 384.191449 
L 915.773803 384.191449 
L 916.112098 385.49883 
L 916.450393 385.49883 
L 916.788687 386.806212 
L 917.126982 385.49883 
L 917.803571 390.946301 
L 918.141865 392.253683 
L 918.48016 395.086391 
L 918.818455 396.393772 
L 919.156749 399.008576 
L 919.495044 400.533862 
L 919.833338 400.533862 
L 920.171633 403.148624 
L 920.509928 401.841243 
L 920.848222 404.456047 
L 921.186517 404.456047 
L 921.524811 405.981333 
L 921.863106 405.981333 
L 922.2014 404.456047 
L 922.539695 407.288714 
L 923.216284 407.288714 
L 923.554579 408.596116 
L 923.892873 412.736185 
L 924.569463 412.736185 
L 924.907757 414.043587 
L 925.246052 414.043587 
L 925.584346 412.736185 
L 925.922641 415.350968 
L 926.59923 418.183656 
L 926.937525 418.183656 
L 927.275819 419.491058 
L 927.614114 418.183656 
L 928.290703 418.183656 
L 928.628998 415.350968 
L 928.967292 418.183656 
L 929.305587 418.183656 
L 929.982176 415.350968 
L 930.32047 412.736185 
L 931.335354 397.701154 
L 931.673649 386.806212 
L 932.011943 381.358741 
L 932.350238 378.743978 
L 932.688533 377.436555 
L 933.026827 371.989084 
L 933.703416 366.541613 
L 934.041711 365.016328 
L 934.380005 359.568857 
L 935.394889 355.646671 
L 935.733184 352.814005 
L 936.071478 351.506624 
L 936.409773 348.673915 
L 936.748068 351.506624 
L 937.086362 350.199201 
L 937.424657 350.199201 
L 937.762951 348.673915 
L 938.101246 351.506624 
L 938.43954 355.646671 
L 938.777835 355.646671 
L 939.11613 358.261476 
L 939.454424 359.568857 
L 939.792719 359.568857 
L 940.131013 362.401565 
L 940.469308 361.094142 
L 940.807603 362.401565 
L 941.145897 362.401565 
L 941.822486 365.016328 
L 942.160781 363.708947 
L 942.499075 366.541613 
L 943.175665 366.541613 
L 943.513959 367.849036 
L 943.852254 370.463799 
L 944.190548 371.989084 
L 944.528843 370.463799 
L 944.867138 373.296507 
L 945.543727 373.296507 
L 945.882021 375.91127 
L 946.220316 373.296507 
L 946.55861 377.436555 
L 947.573494 381.358741 
L 947.911789 384.191449 
L 948.250083 384.191449 
L 948.588378 382.666164 
L 948.926673 386.806212 
L 949.264967 386.806212 
L 949.603262 388.113635 
L 949.941556 388.113635 
L 950.279851 389.63892 
L 950.618145 395.086391 
L 951.294735 397.701154 
L 951.633029 397.701154 
L 952.309618 400.533862 
L 952.986208 400.533862 
L 953.324502 405.981333 
L 953.662797 405.981333 
L 954.001091 407.288714 
L 954.339386 405.981333 
L 954.67768 408.596116 
L 955.015975 409.903497 
L 955.35427 412.736185 
L 955.692564 414.043587 
L 956.030859 412.736185 
L 956.369153 414.043587 
L 957.045743 414.043587 
L 957.722332 416.876254 
L 958.737215 416.876254 
L 959.07551 415.350968 
L 959.413805 412.736185 
L 959.752099 412.736185 
L 960.090394 411.428783 
L 960.428688 411.428783 
L 960.766983 409.903497 
L 961.105278 407.288714 
L 961.443572 405.981333 
L 962.120161 393.561106 
L 963.811634 355.646671 
L 964.149929 351.506624 
L 964.488223 350.199201 
L 964.826518 346.059153 
L 965.164813 346.059153 
L 965.503107 339.086397 
L 965.841402 337.778974 
L 966.179696 332.331503 
L 966.517991 332.331503 
L 966.856285 328.191455 
L 967.19458 326.884032 
L 967.532875 324.269269 
L 967.871169 324.269269 
L 968.209464 320.129179 
L 968.547758 318.821798 
L 968.886053 320.129179 
L 969.224348 322.743984 
L 969.562642 328.191455 
L 969.900937 328.191455 
L 970.239231 329.71674 
L 970.91582 335.164211 
L 971.254115 335.164211 
L 971.930704 337.778974 
L 972.268999 340.611682 
L 972.607293 339.086397 
L 973.622177 343.226444 
L 973.960472 341.919063 
L 974.298766 347.366534 
L 974.637061 347.366534 
L 975.31365 350.199201 
L 975.651945 348.673915 
L 975.990239 350.199201 
L 976.328534 354.121386 
L 976.666828 352.814005 
L 977.005123 354.121386 
L 977.343418 352.814005 
L 977.681712 361.094142 
L 978.020007 361.094142 
L 978.358301 363.708947 
L 978.696596 363.708947 
L 979.373185 366.541613 
L 979.71148 369.156418 
L 980.049774 370.463799 
L 980.388069 374.603889 
L 981.402952 378.743978 
L 981.741247 378.743978 
L 982.079542 381.358741 
L 982.417836 385.49883 
L 982.756131 388.113635 
L 983.094425 388.113635 
L 983.43272 392.253683 
L 984.109309 392.253683 
L 984.447604 395.086391 
L 984.785898 393.561106 
L 985.124193 397.701154 
L 985.462487 399.008576 
L 985.800782 401.841243 
L 987.15396 407.288714 
L 987.492255 405.981333 
L 987.83055 408.596116 
L 988.168844 408.596116 
L 988.507139 411.428783 
L 988.845433 409.903497 
L 989.183728 411.428783 
L 989.522022 411.428783 
L 989.860317 415.350968 
L 990.198612 414.043587 
L 990.875201 416.876254 
L 991.213495 416.876254 
L 991.55179 418.183656 
L 991.890085 415.350968 
L 992.228379 415.350968 
L 992.566674 409.903497 
L 993.243263 404.456047 
L 993.581557 403.148624 
L 994.258147 386.806212 
L 995.611325 355.646671 
L 996.626209 344.533867 
L 996.964503 343.226444 
L 997.302798 339.086397 
L 997.641092 336.471592 
L 997.979387 332.331503 
L 998.655976 329.71674 
L 998.994271 329.71674 
L 999.332565 326.884032 
L 1000.009155 324.269269 
L 1001.024038 324.269269 
L 1001.700627 326.884032 
L 1002.038922 329.71674 
L 1002.377217 331.024121 
L 1002.715511 336.471592 
L 1003.053806 339.086397 
L 1003.3921 340.611682 
L 1003.730395 343.226444 
L 1004.406984 343.226444 
L 1004.745279 346.059153 
L 1005.083573 344.533867 
L 1005.421868 347.366534 
L 1005.760162 348.673915 
L 1006.098457 347.366534 
L 1006.436752 348.673915 
L 1006.775046 348.673915 
L 1007.113341 351.506624 
L 1007.451635 355.646671 
L 1007.78993 358.261476 
L 1008.128225 358.261476 
L 1008.466519 359.568857 
L 1008.804814 362.401565 
L 1009.143108 362.401565 
L 1009.481403 365.016328 
L 1009.819697 365.016328 
L 1010.157992 369.156418 
L 1010.496287 369.156418 
L 1011.172876 371.989084 
L 1011.51117 375.91127 
L 1011.849465 377.436555 
L 1012.18776 380.051359 
L 1012.526054 381.358741 
L 1012.864349 384.191449 
L 1013.540938 386.806212 
L 1013.879232 386.806212 
L 1014.217527 393.561106 
L 1014.894116 393.561106 
L 1015.570705 396.393772 
L 1016.247295 396.393772 
L 1016.585589 397.701154 
L 1016.923884 401.841243 
L 1017.262178 404.456047 
L 1017.600473 404.456047 
L 1017.938767 403.148624 
L 1018.277062 405.981333 
L 1018.953651 408.596116 
L 1019.291946 407.288714 
L 1019.63024 408.596116 
L 1019.968535 412.736185 
L 1020.30683 411.428783 
L 1020.645124 412.736185 
L 1020.983419 416.876254 
L 1021.321713 419.491058 
L 1021.660008 416.876254 
L 1021.998302 418.183656 
L 1022.336597 418.183656 
L 1023.013186 421.016343 
L 1023.351481 421.016343 
L 1023.689775 422.323724 
L 1024.02807 422.323724 
L 1024.704659 419.491058 
L 1025.042954 419.491058 
L 1025.381248 415.350968 
L 1026.057837 415.350968 
L 1026.734427 400.533862 
L 1027.072721 396.393772 
L 1027.411016 389.63892 
L 1027.74931 378.743978 
L 1028.087605 373.296507 
L 1028.4259 370.463799 
L 1029.102489 362.401565 
L 1029.440783 361.094142 
L 1029.779078 358.261476 
L 1030.117372 356.954094 
L 1030.455667 351.506624 
L 1030.793962 351.506624 
L 1031.132256 350.199201 
L 1031.470551 347.366534 
L 1031.808845 343.226444 
L 1032.14714 343.226444 
L 1032.485435 340.611682 
L 1032.823729 340.611682 
L 1033.162024 339.086397 
L 1034.176907 343.226444 
L 1034.515202 348.673915 
L 1035.530086 352.814005 
L 1035.86838 354.121386 
L 1036.206675 354.121386 
L 1036.54497 355.646671 
L 1036.883264 355.646671 
L 1037.221559 356.954094 
L 1037.559853 359.568857 
L 1037.898148 359.568857 
L 1038.236442 361.094142 
L 1038.574737 361.094142 
L 1039.251326 363.708947 
L 1039.589621 362.401565 
L 1039.927915 362.401565 
L 1040.26621 366.541613 
L 1040.604505 366.541613 
L 1040.942799 367.849036 
L 1041.281094 371.989084 
L 1041.619388 371.989084 
L 1041.957683 370.463799 
L 1042.295977 375.91127 
L 1042.634272 374.603889 
L 1043.98745 385.49883 
L 1044.325745 386.806212 
L 1044.66404 385.49883 
L 1045.340629 390.946301 
L 1045.678923 392.253683 
L 1046.017218 390.946301 
L 1046.693807 396.393772 
L 1047.032102 400.533862 
L 1047.708691 400.533862 
L 1048.046985 403.148624 
L 1048.38528 404.456047 
L 1049.061869 404.456047 
L 1049.400164 407.288714 
L 1049.738458 408.596116 
L 1050.076753 407.288714 
L 1050.415047 409.903497 
L 1050.753342 411.428783 
L 1051.091637 411.428783 
L 1051.429931 409.903497 
L 1051.768226 411.428783 
L 1052.10652 418.183656 
L 1052.444815 419.491058 
L 1052.78311 416.876254 
L 1053.121404 418.183656 
L 1053.459699 418.183656 
L 1053.797993 419.491058 
L 1054.136288 419.491058 
L 1055.151172 423.631127 
L 1055.489466 423.631127 
L 1056.166055 421.016343 
L 1056.842645 421.016343 
L 1057.180939 419.491058 
L 1057.519234 416.876254 
L 1057.857528 418.183656 
L 1058.195823 415.350968 
L 1058.534117 408.596116 
L 1059.210707 392.253683 
L 1059.549001 385.49883 
L 1060.22559 377.436555 
L 1060.90218 371.989084 
L 1061.240474 367.849036 
L 1061.578769 366.541613 
L 1061.917063 366.541613 
L 1062.593652 359.568857 
L 1063.270242 354.121386 
L 1063.608536 352.814005 
L 1063.946831 354.121386 
L 1064.62342 347.366534 
L 1064.961715 347.366534 
L 1065.300009 348.673915 
L 1065.976598 354.121386 
L 1066.314893 354.121386 
L 1066.653187 355.646671 
L 1066.991482 358.261476 
L 1067.329777 359.568857 
L 1067.668071 359.568857 
L 1068.006366 361.094142 
L 1069.359544 361.094142 
L 1069.697839 363.708947 
L 1070.036133 362.401565 
L 1070.374428 365.016328 
L 1070.712722 366.541613 
L 1071.051017 365.016328 
L 1071.389312 366.541613 
L 1071.727606 366.541613 
L 1072.065901 367.849036 
L 1072.404195 370.463799 
L 1072.74249 370.463799 
L 1073.080785 369.156418 
L 1073.419079 370.463799 
L 1073.757374 375.91127 
L 1074.095668 375.91127 
L 1074.433963 378.743978 
L 1074.772257 380.051359 
L 1075.110552 382.666164 
L 1075.448847 381.358741 
L 1075.787141 384.191449 
L 1076.125436 381.358741 
L 1076.46373 382.666164 
L 1076.802025 388.113635 
L 1077.14032 390.946301 
L 1077.816909 390.946301 
L 1078.155203 395.086391 
L 1078.493498 395.086391 
L 1078.831792 397.701154 
L 1079.170087 399.008576 
L 1079.508382 404.456047 
L 1079.846676 404.456047 
L 1080.184971 407.288714 
L 1080.523265 407.288714 
L 1080.86156 408.596116 
L 1081.199854 411.428783 
L 1081.538149 409.903497 
L 1082.214738 412.736185 
L 1082.553033 411.428783 
L 1082.891327 414.043587 
L 1083.229622 418.183656 
L 1083.567917 416.876254 
L 1083.906211 416.876254 
L 1084.244506 418.183656 
L 1084.5828 421.016343 
L 1084.921095 418.183656 
L 1085.597684 421.016343 
L 1085.935979 419.491058 
L 1086.950862 423.631127 
L 1087.289157 423.631127 
L 1087.627452 421.016343 
L 1087.965746 422.323724 
L 1088.304041 421.016343 
L 1088.642335 421.016343 
L 1089.657219 416.876254 
L 1091.010397 393.561106 
L 1091.348692 382.666164 
L 1091.686987 377.436555 
L 1092.025281 370.463799 
L 1092.363576 366.541613 
L 1092.70187 359.568857 
L 1093.040165 356.954094 
L 1093.716754 354.121386 
L 1094.055049 347.366534 
L 1094.731638 347.366534 
L 1095.408227 341.919063 
L 1095.746522 336.471592 
L 1096.084816 339.086397 
L 1096.423111 337.778974 
L 1096.761405 335.164211 
L 1097.437994 335.164211 
L 1097.776289 337.778974 
L 1098.114584 341.919063 
L 1098.452878 341.919063 
L 1098.791173 344.533867 
L 1099.129467 344.533867 
L 1099.806057 350.199201 
L 1101.497529 356.954094 
L 1101.835824 355.646671 
L 1102.174119 358.261476 
L 1102.850708 355.646671 
L 1103.527297 362.401565 
L 1103.865592 362.401565 
L 1104.203886 365.016328 
L 1104.542181 365.016328 
L 1104.880475 367.849036 
L 1105.895359 371.989084 
L 1106.233654 374.603889 
L 1107.586832 380.051359 
L 1108.601716 388.113635 
L 1109.278305 390.946301 
L 1109.616599 393.561106 
L 1110.631483 397.701154 
L 1110.969778 401.841243 
L 1111.308072 401.841243 
L 1111.646367 405.981333 
L 1111.984662 407.288714 
L 1112.322956 409.903497 
L 1112.999545 409.903497 
L 1113.33784 412.736185 
L 1113.676134 412.736185 
L 1114.352724 418.183656 
L 1114.691018 418.183656 
L 1115.029313 416.876254 
L 1115.367607 421.016343 
L 1116.044197 423.631127 
L 1116.720786 423.631127 
L 1117.05908 427.771195 
L 1117.397375 424.938529 
L 1118.073964 430.386 
L 1118.412259 430.386 
L 1118.750553 431.911285 
L 1119.088848 430.386 
L 1119.427142 430.386 
L 1119.765437 433.218666 
L 1120.442026 435.833471 
L 1121.118615 435.833471 
L 1121.45691 434.526068 
L 1122.133499 434.526068 
L 1122.810088 429.078598 
L 1123.486677 426.463814 
L 1123.824972 415.350968 
L 1124.163267 408.596116 
L 1124.501561 404.456047 
L 1124.839856 397.701154 
L 1125.17815 386.806212 
L 1125.516445 381.358741 
L 1126.193034 378.743978 
L 1126.531329 373.296507 
L 1126.869623 370.463799 
L 1127.207918 369.156418 
L 1127.546212 365.016328 
L 1127.884507 366.541613 
L 1128.222802 362.401565 
L 1128.561096 361.094142 
L 1129.237685 354.121386 
L 1129.57598 352.814005 
L 1129.914274 350.199201 
L 1130.252569 352.814005 
L 1130.590864 351.506624 
L 1130.929158 354.121386 
L 1131.605747 356.954094 
L 1132.282337 362.401565 
L 1132.620631 361.094142 
L 1132.958926 363.708947 
L 1133.29722 365.016328 
L 1133.635515 367.849036 
L 1133.973809 365.016328 
L 1134.312104 367.849036 
L 1134.650399 371.989084 
L 1134.988693 370.463799 
L 1135.326988 371.989084 
L 1136.003577 371.989084 
L 1136.341872 373.296507 
L 1136.680166 375.91127 
L 1137.018461 374.603889 
L 1137.356755 378.743978 
L 1137.69505 378.743978 
L 1138.033344 380.051359 
L 1138.371639 380.051359 
L 1138.709934 381.358741 
L 1139.048228 384.191449 
L 1139.386523 384.191449 
L 1139.724817 388.113635 
L 1140.063112 389.63892 
L 1140.401407 392.253683 
L 1140.739701 392.253683 
L 1141.077996 393.561106 
L 1141.41629 396.393772 
L 1141.754585 397.701154 
L 1142.092879 397.701154 
L 1142.431174 399.008576 
L 1142.769469 401.841243 
L 1143.446058 404.456047 
L 1143.784352 407.288714 
L 1144.122647 405.981333 
L 1144.460942 408.596116 
L 1144.799236 412.736185 
L 1145.81412 412.736185 
L 1146.152414 414.043587 
L 1146.490709 412.736185 
L 1146.829004 416.876254 
L 1147.167298 416.876254 
L 1148.182182 421.016343 
L 1148.520477 421.016343 
L 1148.858771 423.631127 
L 1149.197066 421.016343 
L 1149.53536 424.938529 
L 1149.873655 424.938529 
L 1150.211949 426.463814 
L 1151.226833 426.463814 
L 1151.565128 429.078598 
L 1151.903422 429.078598 
L 1152.580012 431.911285 
L 1152.918306 431.911285 
L 1153.256601 430.386 
L 1153.594895 431.911285 
L 1153.93319 429.078598 
L 1154.271484 430.386 
L 1154.609779 430.386 
L 1154.948074 429.078598 
L 1155.286368 429.078598 
L 1155.624663 427.771195 
L 1155.962957 427.771195 
L 1156.301252 419.491058 
L 1156.977841 414.043587 
L 1157.316136 408.596116 
L 1157.65443 397.701154 
L 1157.992725 395.086391 
L 1158.669314 392.253683 
L 1159.345903 382.666164 
L 1159.684198 381.358741 
L 1160.022492 381.358741 
L 1160.360787 377.436555 
L 1161.037376 377.436555 
L 1161.375671 375.91127 
L 1161.713965 371.989084 
L 1162.05226 373.296507 
L 1162.728849 367.849036 
L 1163.067144 370.463799 
L 1163.405438 367.849036 
L 1163.743733 370.463799 
L 1164.082027 371.989084 
L 1164.420322 374.603889 
L 1164.758617 375.91127 
L 1165.096911 378.743978 
L 1165.435206 380.051359 
L 1165.7735 380.051359 
L 1166.111795 378.743978 
L 1166.450089 380.051359 
L 1166.788384 382.666164 
L 1167.126679 384.191449 
L 1167.464973 382.666164 
L 1167.803268 384.191449 
L 1168.141562 386.806212 
L 1168.479857 385.49883 
L 1168.818152 388.113635 
L 1169.156446 388.113635 
L 1169.494741 389.63892 
L 1169.833035 393.561106 
L 1170.17133 392.253683 
L 1170.509624 392.253683 
L 1170.847919 393.561106 
L 1171.186214 396.393772 
L 1171.862803 396.393772 
L 1172.201097 399.008576 
L 1172.539392 400.533862 
L 1172.877687 400.533862 
L 1173.215981 401.841243 
L 1173.554276 405.981333 
L 1173.89257 405.981333 
L 1174.230865 407.288714 
L 1174.569159 407.288714 
L 1174.907454 411.428783 
L 1175.245749 412.736185 
L 1175.584043 412.736185 
L 1175.922338 411.428783 
L 1176.598927 416.876254 
L 1176.937221 418.183656 
L 1177.275516 416.876254 
L 1177.613811 421.016343 
L 1178.966989 421.016343 
L 1179.305284 423.631127 
L 1179.643578 427.771195 
L 1179.981873 426.463814 
L 1180.320167 430.386 
L 1180.658462 431.911285 
L 1180.996756 431.911285 
L 1181.335051 433.218666 
L 1181.673346 433.218666 
L 1182.01164 434.526068 
L 1182.688229 434.526068 
L 1183.026524 435.833471 
L 1183.364819 435.833471 
L 1183.703113 437.358756 
L 1184.041408 435.833471 
L 1184.717997 438.666137 
L 1185.056291 435.833471 
L 1185.394586 435.833471 
L 1185.732881 437.358756 
L 1186.071175 434.526068 
L 1186.40947 437.358756 
L 1187.086059 430.386 
L 1187.424354 430.386 
L 1188.100943 419.491058 
L 1188.439237 418.183656 
L 1188.777532 407.288714 
L 1190.469005 380.051359 
L 1190.807299 380.051359 
L 1191.145594 378.743978 
L 1191.483889 374.603889 
L 1191.822183 374.603889 
L 1192.160478 370.463799 
L 1192.498772 369.156418 
L 1192.837067 363.708947 
L 1193.175361 361.094142 
L 1193.513656 361.094142 
L 1193.851951 359.568857 
L 1194.190245 355.646671 
L 1194.52854 356.954094 
L 1194.866834 355.646671 
L 1195.205129 358.261476 
L 1195.543424 359.568857 
L 1195.881718 359.568857 
L 1196.558307 365.016328 
L 1196.896602 365.016328 
L 1197.573191 367.849036 
L 1198.926369 367.849036 
L 1199.264664 369.156418 
L 1199.602959 371.989084 
L 1199.941253 371.989084 
L 1200.279548 370.463799 
L 1200.956137 375.91127 
L 1201.294431 374.603889 
L 1201.632726 375.91127 
L 1202.64761 375.91127 
L 1203.324199 381.358741 
L 1203.662494 385.49883 
L 1204.000788 385.49883 
L 1204.339083 386.806212 
L 1204.677377 389.63892 
L 1205.015672 388.113635 
L 1205.353966 388.113635 
L 1205.692261 390.946301 
L 1206.030556 390.946301 
L 1206.36885 395.086391 
L 1206.707145 395.086391 
L 1207.045439 397.701154 
L 1207.383734 401.841243 
L 1207.722029 399.008576 
L 1208.060323 403.148624 
L 1208.736912 403.148624 
L 1209.075207 407.288714 
L 1209.751796 412.736185 
L 1210.090091 412.736185 
L 1210.76668 415.350968 
L 1211.443269 415.350968 
L 1211.781564 418.183656 
L 1212.119858 419.491058 
L 1212.458153 419.491058 
L 1212.796447 423.631127 
L 1213.473036 423.631127 
L 1213.811331 426.463814 
L 1214.149626 424.938529 
L 1214.48792 424.938529 
L 1214.826215 427.771195 
L 1215.502804 430.386 
L 1215.841099 427.771195 
L 1216.517688 430.386 
L 1217.194277 430.386 
L 1217.532571 433.218666 
L 1218.547455 433.218666 
L 1219.224044 430.386 
L 1219.562339 430.386 
L 1219.900634 424.938529 
L 1220.238928 422.323724 
L 1220.577223 421.016343 
L 1220.915517 415.350968 
L 1221.592106 401.841243 
L 1222.268696 392.253683 
L 1222.60699 382.666164 
L 1222.945285 381.358741 
L 1223.283579 377.436555 
L 1223.621874 375.91127 
L 1223.960169 373.296507 
L 1224.298463 371.989084 
L 1224.636758 367.849036 
L 1224.975052 366.541613 
L 1225.313347 363.708947 
L 1225.989936 361.094142 
L 1226.328231 358.261476 
L 1226.666525 358.261476 
L 1227.343114 355.646671 
L 1227.681409 356.954094 
L 1228.019704 355.646671 
L 1228.357998 359.568857 
L 1229.034587 362.401565 
L 1229.372882 366.541613 
L 1229.711176 367.849036 
L 1230.049471 371.989084 
L 1230.387766 370.463799 
L 1230.72606 371.989084 
L 1231.064355 371.989084 
L 1231.402649 374.603889 
L 1231.740944 373.296507 
L 1232.079239 377.436555 
L 1232.417533 374.603889 
L 1233.094122 377.436555 
L 1233.432417 382.666164 
L 1233.770711 380.051359 
L 1234.109006 384.191449 
L 1234.447301 382.666164 
L 1234.785595 384.191449 
L 1235.12389 381.358741 
L 1235.462184 384.191449 
L 1235.800479 384.191449 
L 1236.138774 388.113635 
L 1236.477068 388.113635 
L 1236.815363 390.946301 
L 1237.153657 392.253683 
L 1237.491952 396.393772 
L 1237.830246 399.008576 
L 1238.168541 397.701154 
L 1238.84513 400.533862 
L 1239.183425 403.148624 
L 1239.521719 403.148624 
L 1239.860014 408.596116 
L 1240.198309 408.596116 
L 1240.536603 412.736185 
L 1240.874898 412.736185 
L 1241.551487 415.350968 
L 1241.889781 418.183656 
L 1242.228076 416.876254 
L 1242.566371 418.183656 
L 1242.904665 422.323724 
L 1243.24296 422.323724 
L 1243.581254 421.016343 
L 1244.596138 424.938529 
L 1244.934433 427.771195 
L 1245.272727 427.771195 
L 1245.272727 427.771195 
" clip-path="url(#p055e8481f0)" style="fill: none; stroke: #776688; stroke-width: 1.5; stroke-linecap: square"/>
   </g>
   <g id="patch_3">
    <path d="M 180 640.8 
L 180 86.4 
" style="fill: none; stroke: #000000; stroke-width: 0.8; stroke-linejoin: miter; stroke-linecap: square"/>
   </g>
   <g id="patch_4">
    <path d="M 1296 640.8 
L 1296 86.4 
" style="fill: none; stroke: #000000; stroke-width: 0.8; stroke-linejoin: miter; stroke-linecap: square"/>
   </g>
   <g id="patch_5">
    <path d="M 180 640.8 
L 1296 640.8 
" style="fill: none; stroke: #000000; stroke-width: 0.8; stroke-linejoin: miter; stroke-linecap: square"/>
   </g>
   <g id="patch_6">
    <path d="M 180 86.4 
L 1296 86.4 
" style="fill: none; stroke: #000000; stroke-width: 0.8; stroke-linejoin: miter; stroke-linecap: square"/>
   </g>
  </g>
 </g>
 <defs>
  <clipPath id="p055e8481f0">
   <rect x="180" y="86.4" width="1116" height="554.4"/>
  </clipPath>
 </defs>
</svg>
