<?xml version="1.0" encoding="utf-8" standalone="no"?>
<!DOCTYPE svg PUBLIC "-//W3C//DTD SVG 1.1//EN"
  "http://www.w3.org/Graphics/SVG/1.1/DTD/svg11.dtd">
<svg xmlns:xlink="http://www.w3.org/1999/xlink" width="460.8pt" height="345.6pt" viewBox="0 0 460.8 345.6" xmlns="http://www.w3.org/2000/svg" version="1.1">
 <metadata>
  <rdf:RDF xmlns:dc="http://purl.org/dc/elements/1.1/" xmlns:cc="http://creativecommons.org/ns#" xmlns:rdf="http://www.w3.org/1999/02/22-rdf-syntax-ns#">
   <cc:Work>
    <dc:type rdf:resource="http://purl.org/dc/dcmitype/StillImage"/>
    <dc:date>2023-06-19T15:48:20.729293</dc:date>
    <dc:format>image/svg+xml</dc:format>
    <dc:creator>
     <cc:Agent>
      <dc:title>Matplotlib v3.7.1, https://matplotlib.org/</dc:title>
     </cc:Agent>
    </dc:creator>
   </cc:Work>
  </rdf:RDF>
 </metadata>
 <defs>
  <style type="text/css">*{stroke-linejoin: round; stroke-linecap: butt}</style>
 </defs>
 <g id="figure_1">
  <g id="patch_1">
   <path d="M 0 345.6 
L 460.8 345.6 
L 460.8 0 
L 0 0 
z
" style="fill: #ffffff"/>
  </g>
  <g id="axes_1">
   <g id="patch_2">
    <path d="M 57.6 307.584 
L 414.72 307.584 
L 414.72 41.472 
L 57.6 41.472 
z
" style="fill: #ffffff"/>
   </g>
   <g id="matplotlib.axis_1">
    <g id="xtick_1">
     <g id="line2d_1">
      <defs>
       <path id="mcc4483f302" d="M 0 0 
L 0 3.5 
" style="stroke: #000000; stroke-width: 0.8"/>
      </defs>
      <g>
       <use xlink:href="#mcc4483f302" x="73.832727" y="307.584" style="stroke: #000000; stroke-width: 0.8"/>
      </g>
     </g>
     <g id="text_1">
      <!-- 0 -->
      <g transform="translate(70.651477 322.182437) scale(0.1 -0.1)">
       <defs>
        <path id="DejaVuSans-30" d="M 2034 4250 
Q 1547 4250 1301 3770 
Q 1056 3291 1056 2328 
Q 1056 1369 1301 889 
Q 1547 409 2034 409 
Q 2525 409 2770 889 
Q 3016 1369 3016 2328 
Q 3016 3291 2770 3770 
Q 2525 4250 2034 4250 
z
M 2034 4750 
Q 2819 4750 3233 4129 
Q 3647 3509 3647 2328 
Q 3647 1150 3233 529 
Q 2819 -91 2034 -91 
Q 1250 -91 836 529 
Q 422 1150 422 2328 
Q 422 3509 836 4129 
Q 1250 4750 2034 4750 
z
" transform="scale(0.015625)"/>
       </defs>
       <use xlink:href="#DejaVuSans-30"/>
      </g>
     </g>
    </g>
    <g id="xtick_2">
     <g id="line2d_2">
      <g>
       <use xlink:href="#mcc4483f302" x="124.959427" y="307.584" style="stroke: #000000; stroke-width: 0.8"/>
      </g>
     </g>
     <g id="text_2">
      <!-- 20 -->
      <g transform="translate(118.596927 322.182437) scale(0.1 -0.1)">
       <defs>
        <path id="DejaVuSans-32" d="M 1228 531 
L 3431 531 
L 3431 0 
L 469 0 
L 469 531 
Q 828 903 1448 1529 
Q 2069 2156 2228 2338 
Q 2531 2678 2651 2914 
Q 2772 3150 2772 3378 
Q 2772 3750 2511 3984 
Q 2250 4219 1831 4219 
Q 1534 4219 1204 4116 
Q 875 4013 500 3803 
L 500 4441 
Q 881 4594 1212 4672 
Q 1544 4750 1819 4750 
Q 2544 4750 2975 4387 
Q 3406 4025 3406 3419 
Q 3406 3131 3298 2873 
Q 3191 2616 2906 2266 
Q 2828 2175 2409 1742 
Q 1991 1309 1228 531 
z
" transform="scale(0.015625)"/>
       </defs>
       <use xlink:href="#DejaVuSans-32"/>
       <use xlink:href="#DejaVuSans-30" x="63.623047"/>
      </g>
     </g>
    </g>
    <g id="xtick_3">
     <g id="line2d_3">
      <g>
       <use xlink:href="#mcc4483f302" x="176.086127" y="307.584" style="stroke: #000000; stroke-width: 0.8"/>
      </g>
     </g>
     <g id="text_3">
      <!-- 40 -->
      <g transform="translate(169.723627 322.182437) scale(0.1 -0.1)">
       <defs>
        <path id="DejaVuSans-34" d="M 2419 4116 
L 825 1625 
L 2419 1625 
L 2419 4116 
z
M 2253 4666 
L 3047 4666 
L 3047 1625 
L 3713 1625 
L 3713 1100 
L 3047 1100 
L 3047 0 
L 2419 0 
L 2419 1100 
L 313 1100 
L 313 1709 
L 2253 4666 
z
" transform="scale(0.015625)"/>
       </defs>
       <use xlink:href="#DejaVuSans-34"/>
       <use xlink:href="#DejaVuSans-30" x="63.623047"/>
      </g>
     </g>
    </g>
    <g id="xtick_4">
     <g id="line2d_4">
      <g>
       <use xlink:href="#mcc4483f302" x="227.212827" y="307.584" style="stroke: #000000; stroke-width: 0.8"/>
      </g>
     </g>
     <g id="text_4">
      <!-- 60 -->
      <g transform="translate(220.850327 322.182437) scale(0.1 -0.1)">
       <defs>
        <path id="DejaVuSans-36" d="M 2113 2584 
Q 1688 2584 1439 2293 
Q 1191 2003 1191 1497 
Q 1191 994 1439 701 
Q 1688 409 2113 409 
Q 2538 409 2786 701 
Q 3034 994 3034 1497 
Q 3034 2003 2786 2293 
Q 2538 2584 2113 2584 
z
M 3366 4563 
L 3366 3988 
Q 3128 4100 2886 4159 
Q 2644 4219 2406 4219 
Q 1781 4219 1451 3797 
Q 1122 3375 1075 2522 
Q 1259 2794 1537 2939 
Q 1816 3084 2150 3084 
Q 2853 3084 3261 2657 
Q 3669 2231 3669 1497 
Q 3669 778 3244 343 
Q 2819 -91 2113 -91 
Q 1303 -91 875 529 
Q 447 1150 447 2328 
Q 447 3434 972 4092 
Q 1497 4750 2381 4750 
Q 2619 4750 2861 4703 
Q 3103 4656 3366 4563 
z
" transform="scale(0.015625)"/>
       </defs>
       <use xlink:href="#DejaVuSans-36"/>
       <use xlink:href="#DejaVuSans-30" x="63.623047"/>
      </g>
     </g>
    </g>
    <g id="xtick_5">
     <g id="line2d_5">
      <g>
       <use xlink:href="#mcc4483f302" x="278.339528" y="307.584" style="stroke: #000000; stroke-width: 0.8"/>
      </g>
     </g>
     <g id="text_5">
      <!-- 80 -->
      <g transform="translate(271.977028 322.182437) scale(0.1 -0.1)">
       <defs>
        <path id="DejaVuSans-38" d="M 2034 2216 
Q 1584 2216 1326 1975 
Q 1069 1734 1069 1313 
Q 1069 891 1326 650 
Q 1584 409 2034 409 
Q 2484 409 2743 651 
Q 3003 894 3003 1313 
Q 3003 1734 2745 1975 
Q 2488 2216 2034 2216 
z
M 1403 2484 
Q 997 2584 770 2862 
Q 544 3141 544 3541 
Q 544 4100 942 4425 
Q 1341 4750 2034 4750 
Q 2731 4750 3128 4425 
Q 3525 4100 3525 3541 
Q 3525 3141 3298 2862 
Q 3072 2584 2669 2484 
Q 3125 2378 3379 2068 
Q 3634 1759 3634 1313 
Q 3634 634 3220 271 
Q 2806 -91 2034 -91 
Q 1263 -91 848 271 
Q 434 634 434 1313 
Q 434 1759 690 2068 
Q 947 2378 1403 2484 
z
M 1172 3481 
Q 1172 3119 1398 2916 
Q 1625 2713 2034 2713 
Q 2441 2713 2670 2916 
Q 2900 3119 2900 3481 
Q 2900 3844 2670 4047 
Q 2441 4250 2034 4250 
Q 1625 4250 1398 4047 
Q 1172 3844 1172 3481 
z
" transform="scale(0.015625)"/>
       </defs>
       <use xlink:href="#DejaVuSans-38"/>
       <use xlink:href="#DejaVuSans-30" x="63.623047"/>
      </g>
     </g>
    </g>
    <g id="xtick_6">
     <g id="line2d_6">
      <g>
       <use xlink:href="#mcc4483f302" x="329.466228" y="307.584" style="stroke: #000000; stroke-width: 0.8"/>
      </g>
     </g>
     <g id="text_6">
      <!-- 100 -->
      <g transform="translate(319.922478 322.182437) scale(0.1 -0.1)">
       <defs>
        <path id="DejaVuSans-31" d="M 794 531 
L 1825 531 
L 1825 4091 
L 703 3866 
L 703 4441 
L 1819 4666 
L 2450 4666 
L 2450 531 
L 3481 531 
L 3481 0 
L 794 0 
L 794 531 
z
" transform="scale(0.015625)"/>
       </defs>
       <use xlink:href="#DejaVuSans-31"/>
       <use xlink:href="#DejaVuSans-30" x="63.623047"/>
       <use xlink:href="#DejaVuSans-30" x="127.246094"/>
      </g>
     </g>
    </g>
    <g id="xtick_7">
     <g id="line2d_7">
      <g>
       <use xlink:href="#mcc4483f302" x="380.592928" y="307.584" style="stroke: #000000; stroke-width: 0.8"/>
      </g>
     </g>
     <g id="text_7">
      <!-- 120 -->
      <g transform="translate(371.049178 322.182437) scale(0.1 -0.1)">
       <use xlink:href="#DejaVuSans-31"/>
       <use xlink:href="#DejaVuSans-32" x="63.623047"/>
       <use xlink:href="#DejaVuSans-30" x="127.246094"/>
      </g>
     </g>
    </g>
   </g>
   <g id="matplotlib.axis_2">
    <g id="ytick_1">
     <g id="line2d_8">
      <defs>
       <path id="m38be3195e4" d="M 0 0 
L -3.5 0 
" style="stroke: #000000; stroke-width: 0.8"/>
      </defs>
      <g>
       <use xlink:href="#m38be3195e4" x="57.6" y="298.184704" style="stroke: #000000; stroke-width: 0.8"/>
      </g>
     </g>
     <g id="text_8">
      <!-- −10 -->
      <g transform="translate(29.495313 301.983923) scale(0.1 -0.1)">
       <defs>
        <path id="DejaVuSans-2212" d="M 678 2272 
L 4684 2272 
L 4684 1741 
L 678 1741 
L 678 2272 
z
" transform="scale(0.015625)"/>
       </defs>
       <use xlink:href="#DejaVuSans-2212"/>
       <use xlink:href="#DejaVuSans-31" x="83.789062"/>
       <use xlink:href="#DejaVuSans-30" x="147.412109"/>
      </g>
     </g>
    </g>
    <g id="ytick_2">
     <g id="line2d_9">
      <g>
       <use xlink:href="#m38be3195e4" x="57.6" y="246.709095" style="stroke: #000000; stroke-width: 0.8"/>
      </g>
     </g>
     <g id="text_9">
      <!-- −5 -->
      <g transform="translate(35.857813 250.508313) scale(0.1 -0.1)">
       <defs>
        <path id="DejaVuSans-35" d="M 691 4666 
L 3169 4666 
L 3169 4134 
L 1269 4134 
L 1269 2991 
Q 1406 3038 1543 3061 
Q 1681 3084 1819 3084 
Q 2600 3084 3056 2656 
Q 3513 2228 3513 1497 
Q 3513 744 3044 326 
Q 2575 -91 1722 -91 
Q 1428 -91 1123 -41 
Q 819 9 494 109 
L 494 744 
Q 775 591 1075 516 
Q 1375 441 1709 441 
Q 2250 441 2565 725 
Q 2881 1009 2881 1497 
Q 2881 1984 2565 2268 
Q 2250 2553 1709 2553 
Q 1456 2553 1204 2497 
Q 953 2441 691 2322 
L 691 4666 
z
" transform="scale(0.015625)"/>
       </defs>
       <use xlink:href="#DejaVuSans-2212"/>
       <use xlink:href="#DejaVuSans-35" x="83.789062"/>
      </g>
     </g>
    </g>
    <g id="ytick_3">
     <g id="line2d_10">
      <g>
       <use xlink:href="#m38be3195e4" x="57.6" y="195.233485" style="stroke: #000000; stroke-width: 0.8"/>
      </g>
     </g>
     <g id="text_10">
      <!-- 0 -->
      <g transform="translate(44.2375 199.032704) scale(0.1 -0.1)">
       <use xlink:href="#DejaVuSans-30"/>
      </g>
     </g>
    </g>
    <g id="ytick_4">
     <g id="line2d_11">
      <g>
       <use xlink:href="#m38be3195e4" x="57.6" y="143.757875" style="stroke: #000000; stroke-width: 0.8"/>
      </g>
     </g>
     <g id="text_11">
      <!-- 5 -->
      <g transform="translate(44.2375 147.557094) scale(0.1 -0.1)">
       <use xlink:href="#DejaVuSans-35"/>
      </g>
     </g>
    </g>
    <g id="ytick_5">
     <g id="line2d_12">
      <g>
       <use xlink:href="#m38be3195e4" x="57.6" y="92.282266" style="stroke: #000000; stroke-width: 0.8"/>
      </g>
     </g>
     <g id="text_12">
      <!-- 10 -->
      <g transform="translate(37.875 96.081484) scale(0.1 -0.1)">
       <use xlink:href="#DejaVuSans-31"/>
       <use xlink:href="#DejaVuSans-30" x="63.623047"/>
      </g>
     </g>
    </g>
   </g>
   <g id="line2d_13">
    <path d="M 73.832727 214.4627 
L 76.389062 214.313545 
L 78.945397 213.062746 
L 81.501732 210.637682 
L 84.058067 207.263199 
L 89.170737 199.499748 
L 91.727072 196.025577 
L 94.283407 193.160903 
L 96.839742 190.883474 
L 99.396077 189.015736 
L 107.065082 184.075721 
L 109.621417 182.53234 
L 112.177752 181.194615 
L 114.734087 180.155284 
L 117.290422 179.431968 
L 119.846757 178.967382 
L 124.959427 178.469049 
L 127.515762 178.35031 
L 130.072097 178.356697 
L 132.628432 178.552576 
L 135.184767 178.975309 
L 137.741102 179.601809 
L 145.410107 181.812758 
L 153.079112 183.7241 
L 155.635447 184.549005 
L 163.304452 187.492516 
L 165.860787 188.214788 
L 168.417122 188.639041 
L 170.973457 188.789402 
L 178.642462 188.840909 
L 183.755132 189.429499 
L 188.867802 190.097306 
L 196.536807 190.675192 
L 199.093142 191.039254 
L 201.649477 191.595083 
L 211.874817 194.383149 
L 216.987487 195.451169 
L 219.543822 196.127323 
L 222.100157 197.003808 
L 232.325497 201.130963 
L 239.994503 203.374622 
L 242.550838 204.440329 
L 250.219843 208.475182 
L 252.776178 209.3471 
L 255.332513 209.661181 
L 257.888848 209.463164 
L 263.001518 208.574474 
L 265.557853 208.521403 
L 268.114188 208.969112 
L 270.670523 209.840008 
L 273.226858 210.877049 
L 275.783193 211.75641 
L 278.339528 212.221101 
L 280.895863 212.172203 
L 283.452198 211.676594 
L 286.008533 210.891866 
L 288.564868 209.951183 
L 291.121203 208.870527 
L 293.677538 207.529402 
L 296.233873 205.73762 
L 298.790208 203.355294 
L 301.346543 200.403389 
L 306.459213 193.821946 
L 309.015548 190.931251 
L 311.571883 188.664157 
L 314.128218 187.018566 
L 321.797223 183.161519 
L 324.353558 181.421064 
L 329.466228 177.665307 
L 332.022563 176.259961 
L 334.578898 175.453065 
L 337.135233 175.206956 
L 344.804238 175.385172 
L 349.916908 174.968205 
L 352.473243 175.062988 
L 355.029578 175.677972 
L 357.585913 176.838272 
L 362.698583 179.784737 
L 365.254918 180.83616 
L 367.811253 181.303454 
L 370.367588 181.284698 
L 372.923923 181.129681 
L 375.480258 181.294174 
L 378.036593 182.140507 
L 380.592928 183.773371 
L 388.261933 190.286621 
L 390.818268 191.484022 
L 393.374603 191.797297 
L 395.930938 191.393554 
L 398.487273 190.64393 
L 398.487273 190.64393 
" clip-path="url(#pdbda869fb6)" style="fill: none; stroke: #dddcdc; stroke-width: 1.5; stroke-linecap: square"/>
   </g>
   <g id="line2d_14">
    <path d="M 73.832727 212.115922 
L 76.389062 211.903652 
L 78.945397 211.2263 
L 81.501732 210.045759 
L 84.058067 208.463564 
L 89.170737 205.052981 
L 91.727072 203.715255 
L 94.283407 202.754662 
L 99.396077 201.331926 
L 101.952412 200.320073 
L 104.508747 198.815221 
L 107.065082 196.796741 
L 114.734087 189.824895 
L 117.290422 188.109255 
L 119.846757 186.926307 
L 122.403092 186.196295 
L 127.515762 185.382439 
L 132.628432 184.493091 
L 135.184767 183.996129 
L 137.741102 183.618636 
L 140.297437 183.512981 
L 142.853772 183.800352 
L 145.410107 184.529569 
L 147.966442 185.653545 
L 155.635447 189.663113 
L 158.191782 190.506064 
L 160.748117 190.897166 
L 163.304452 190.904819 
L 168.417122 190.624839 
L 170.973457 190.832879 
L 173.529792 191.462853 
L 176.086127 192.457901 
L 178.642462 193.609677 
L 181.198797 194.638162 
L 183.755132 195.301956 
L 186.311467 195.492721 
L 188.867802 195.273679 
L 193.980472 194.469833 
L 196.536807 194.351705 
L 199.093142 194.589796 
L 201.649477 195.154917 
L 206.762147 196.7858 
L 211.874817 198.348748 
L 214.431152 198.971958 
L 216.987487 199.450744 
L 219.543822 199.742371 
L 222.100157 199.810968 
L 227.212827 199.423655 
L 229.769162 199.253609 
L 232.325497 199.37239 
L 234.881832 199.926994 
L 237.438168 200.917858 
L 242.550838 203.412003 
L 245.107173 204.354097 
L 247.663508 204.863501 
L 255.332513 205.395529 
L 257.888848 206.193856 
L 260.445183 207.499318 
L 265.557853 210.610856 
L 268.114188 211.717018 
L 270.670523 212.25578 
L 273.226858 212.315985 
L 278.339528 212.085102 
L 286.008533 212.380097 
L 288.564868 211.763918 
L 291.121203 210.359412 
L 293.677538 208.236872 
L 298.790208 203.189699 
L 301.346543 200.937484 
L 306.459213 196.930852 
L 309.015548 194.503455 
L 311.571883 191.430599 
L 316.684553 184.224399 
L 319.240888 181.295301 
L 321.797223 179.608173 
L 324.353558 179.271393 
L 329.466228 180.3398 
L 332.022563 179.898326 
L 334.578898 177.94529 
L 337.135233 174.641479 
L 339.691568 170.853102 
L 342.247903 167.823227 
L 344.804238 166.649293 
L 347.360573 167.80023 
L 349.916908 170.898251 
L 352.473243 174.873132 
L 355.029578 178.423977 
L 357.585913 180.577497 
L 360.142248 181.084463 
L 362.698583 180.47169 
L 365.254918 179.731455 
L 367.811253 179.803857 
L 370.367588 181.106409 
L 375.480258 185.65772 
L 378.036593 187.119368 
L 380.592928 187.180487 
L 383.149263 185.988213 
L 385.705598 184.321258 
L 388.261933 183.207015 
L 390.818268 183.407277 
L 393.374603 185.032452 
L 395.930938 187.481652 
L 398.487273 189.743094 
L 398.487273 189.743094 
" clip-path="url(#pdbda869fb6)" style="fill: none; stroke: #e8d6cc; stroke-width: 1.5; stroke-linecap: square"/>
   </g>
   <g id="line2d_15">
    <path d="M 73.832727 213.098678 
L 76.389062 213.066646 
L 78.945397 212.49669 
L 81.501732 211.28655 
L 84.058067 209.374101 
L 86.614402 206.769541 
L 89.170737 203.581249 
L 96.839742 192.917741 
L 99.396077 189.90811 
L 101.952412 187.4495 
L 104.508747 185.506766 
L 107.065082 183.92218 
L 112.177752 181.003824 
L 122.403092 174.696803 
L 124.959427 173.68811 
L 127.515762 173.118436 
L 130.072097 172.951962 
L 132.628432 173.094627 
L 135.184767 173.450537 
L 137.741102 173.969225 
L 140.297437 174.658905 
L 142.853772 175.559544 
L 145.410107 176.691203 
L 153.079112 180.632456 
L 155.635447 181.603774 
L 158.191782 182.217063 
L 160.748117 182.51815 
L 165.860787 182.846067 
L 168.417122 183.232136 
L 170.973457 183.871856 
L 178.642462 186.236423 
L 181.198797 186.712798 
L 188.867802 187.62358 
L 191.424137 188.279127 
L 193.980472 189.233602 
L 201.649477 192.590752 
L 204.205812 193.378923 
L 214.431152 195.767804 
L 219.543822 197.773632 
L 222.100157 198.818006 
L 224.656492 199.739484 
L 229.769162 201.17296 
L 234.881832 202.600248 
L 242.550838 205.189239 
L 245.107173 205.819179 
L 247.663508 206.230081 
L 252.776178 206.787557 
L 255.332513 207.262458 
L 257.888848 208.023629 
L 263.001518 210.18548 
L 265.557853 211.232197 
L 268.114188 212.00321 
L 270.670523 212.415353 
L 273.226858 212.512865 
L 283.452198 212.208205 
L 286.008533 211.970704 
L 288.564868 211.324694 
L 291.121203 210.075672 
L 293.677538 208.149657 
L 296.233873 205.630289 
L 303.902878 196.917055 
L 306.459213 194.412038 
L 309.015548 192.275634 
L 311.571883 190.456802 
L 314.128218 188.860002 
L 319.240888 186.032448 
L 321.797223 184.763254 
L 324.353558 183.621413 
L 326.909893 182.633511 
L 329.466228 181.804388 
L 332.022563 181.117503 
L 334.578898 180.551624 
L 337.135233 180.102093 
L 339.691568 179.792976 
L 342.247903 179.672182 
L 344.804238 179.79114 
L 347.360573 180.178689 
L 349.916908 180.821925 
L 355.029578 182.610786 
L 360.142248 184.450627 
L 362.698583 185.206537 
L 365.254918 185.816095 
L 367.811253 186.286429 
L 372.923923 186.910908 
L 383.149263 187.880984 
L 388.261933 188.73965 
L 398.487273 190.964594 
L 398.487273 190.964594 
" clip-path="url(#pdbda869fb6)" style="fill: none; stroke: #f1cdba; stroke-width: 1.5; stroke-linecap: square"/>
   </g>
   <g id="line2d_16">
    <path d="M 73.832727 212.409145 
L 76.389062 212.380097 
L 78.945397 211.763918 
L 81.501732 210.359412 
L 84.058067 208.236872 
L 89.170737 203.189699 
L 91.727072 200.937484 
L 96.839742 196.930852 
L 99.396077 194.503455 
L 101.952412 191.430599 
L 107.065082 184.224399 
L 109.621417 181.295301 
L 112.177752 179.608173 
L 114.734087 179.271393 
L 119.846757 180.3398 
L 122.403092 179.898326 
L 124.959427 177.94529 
L 127.515762 174.641479 
L 130.072097 170.853102 
L 132.628432 167.823227 
L 135.184767 166.649293 
L 137.741102 167.80023 
L 140.297437 170.898251 
L 142.853772 174.873132 
L 145.410107 178.423977 
L 147.966442 180.577497 
L 150.522777 181.084463 
L 153.079112 180.47169 
L 155.635447 179.731455 
L 158.191782 179.803857 
L 160.748117 181.106409 
L 165.860787 185.65772 
L 168.417122 187.119368 
L 170.973457 187.180487 
L 173.529792 185.988213 
L 176.086127 184.321258 
L 178.642462 183.207015 
L 181.198797 183.407277 
L 183.755132 185.032452 
L 186.311467 187.481652 
L 188.867802 189.743094 
L 191.424137 190.907387 
L 193.980472 190.636778 
L 199.093142 188.035866 
L 201.649477 187.748511 
L 204.205812 189.086889 
L 206.762147 191.863624 
L 209.318482 195.166914 
L 211.874817 197.780901 
L 214.431152 198.765926 
L 216.987487 197.917277 
L 222.100157 193.844879 
L 224.656492 193.015812 
L 227.212827 194.028905 
L 229.769162 196.675032 
L 232.325497 200.009341 
L 234.881832 202.806475 
L 237.438168 204.137432 
L 239.994503 203.792886 
L 245.107173 200.912292 
L 247.663508 200.51524 
L 250.219843 201.717503 
L 252.776178 204.334781 
L 255.332513 207.56959 
L 257.888848 210.404955 
L 260.445183 212.067465 
L 263.001518 212.33834 
L 265.557853 211.580036 
L 268.114188 210.492768 
L 270.670523 209.744162 
L 273.226858 209.663149 
L 275.783193 210.138398 
L 278.339528 210.744645 
L 280.895863 211.00235 
L 283.452198 210.617996 
L 286.008533 209.580171 
L 288.564868 208.07943 
L 291.121203 206.322387 
L 293.677538 204.366679 
L 296.233873 202.082863 
L 298.790208 199.267711 
L 301.346543 195.838418 
L 306.459213 188.171848 
L 309.015548 184.98184 
L 311.571883 182.852863 
L 314.128218 181.867361 
L 316.684553 181.698868 
L 319.240888 181.758136 
L 321.797223 181.469395 
L 324.353558 180.536885 
L 332.022563 176.241432 
L 334.578898 175.674067 
L 337.135233 175.729495 
L 342.247903 176.385865 
L 344.804238 176.424339 
L 347.360573 176.338938 
L 349.916908 176.505826 
L 352.473243 177.300787 
L 355.029578 178.820708 
L 357.585913 180.740819 
L 360.142248 182.41391 
L 362.698583 183.187276 
L 365.254918 182.785103 
L 370.367588 180.375523 
L 372.923923 180.358792 
L 375.480258 182.254594 
L 378.036593 186.048091 
L 380.592928 190.831963 
L 383.149263 195.091442 
L 385.705598 197.294773 
L 388.261933 196.537276 
L 390.818268 192.951095 
L 395.930938 182.508213 
L 398.487273 179.071041 
L 398.487273 179.071041 
" clip-path="url(#pdbda869fb6)" style="fill: none; stroke: #f5c1a9; stroke-width: 1.5; stroke-linecap: square"/>
   </g>
   <g id="line2d_17">
    <path d="M 73.832727 212.33834 
L 76.389062 211.580036 
L 78.945397 210.492768 
L 81.501732 209.744162 
L 84.058067 209.663149 
L 86.614402 210.138398 
L 89.170737 210.744645 
L 91.727072 211.00235 
L 94.283407 210.617996 
L 96.839742 209.580171 
L 99.396077 208.07943 
L 101.952412 206.322387 
L 104.508747 204.366679 
L 107.065082 202.082863 
L 109.621417 199.267711 
L 112.177752 195.838418 
L 117.290422 188.171848 
L 119.846757 184.98184 
L 122.403092 182.852863 
L 124.959427 181.867361 
L 127.515762 181.698868 
L 130.072097 181.758136 
L 132.628432 181.469395 
L 135.184767 180.536885 
L 142.853772 176.241432 
L 145.410107 175.674067 
L 147.966442 175.729495 
L 153.079112 176.385865 
L 155.635447 176.424339 
L 158.191782 176.338938 
L 160.748117 176.505826 
L 163.304452 177.300787 
L 165.860787 178.820708 
L 168.417122 180.740819 
L 170.973457 182.41391 
L 173.529792 183.187276 
L 176.086127 182.785103 
L 181.198797 180.375523 
L 183.755132 180.358792 
L 186.311467 182.254594 
L 188.867802 186.048091 
L 191.424137 190.831963 
L 193.980472 195.091442 
L 196.536807 197.294773 
L 199.093142 196.537276 
L 201.649477 192.951095 
L 206.762147 182.508213 
L 209.318482 179.071041 
L 211.874817 178.375114 
L 214.431152 180.441883 
L 216.987487 184.437593 
L 219.543822 189.111829 
L 222.100157 193.331215 
L 224.656492 196.462972 
L 227.212827 198.461981 
L 229.769162 199.67527 
L 232.325497 200.51437 
L 234.881832 201.191631 
L 237.438168 201.654445 
L 239.994503 201.72287 
L 242.550838 201.315469 
L 247.663508 199.976659 
L 250.219843 199.849507 
L 252.776178 200.392776 
L 257.888848 202.304022 
L 260.445183 202.558248 
L 263.001518 201.876907 
L 268.114188 199.20157 
L 270.670523 198.869214 
L 273.226858 200.179048 
L 275.783193 203.187411 
L 280.895863 211.331722 
L 283.452198 214.338905 
L 286.008533 215.696159 
L 288.564868 215.499235 
L 293.677538 213.249299 
L 296.233873 212.577715 
L 301.346543 212.151953 
L 303.902878 211.170796 
L 306.459213 208.984045 
L 309.015548 205.670695 
L 311.571883 201.826327 
L 314.128218 198.237092 
L 316.684553 195.428946 
L 321.797223 191.422197 
L 324.353558 188.875346 
L 326.909893 185.352529 
L 329.466228 181.298997 
L 332.022563 177.969271 
L 334.578898 176.938125 
L 337.135233 179.300405 
L 339.691568 184.933158 
L 342.247903 192.215474 
L 344.804238 198.423056 
L 347.360573 200.708684 
L 349.916908 197.286201 
L 352.473243 188.299583 
L 357.585913 163.80856 
L 360.142248 155.429461 
L 362.698583 153.031768 
L 365.254918 156.599331 
L 370.367588 171.483948 
L 372.923923 175.956427 
L 375.480258 175.468576 
L 378.036593 170.327392 
L 380.592928 162.782647 
L 383.149263 156.009923 
L 385.705598 152.763805 
L 388.261933 154.281297 
L 390.818268 159.881128 
L 393.374603 167.383767 
L 395.930938 174.118144 
L 398.487273 178.044746 
L 398.487273 178.044746 
" clip-path="url(#pdbda869fb6)" style="fill: none; stroke: #f7b396; stroke-width: 1.5; stroke-linecap: square"/>
   </g>
   <g id="line2d_18">
    <path d="M 73.832727 210.607337 
L 84.058067 209.30594 
L 86.614402 209.182428 
L 89.170737 208.810275 
L 91.727072 207.872392 
L 94.283407 206.170444 
L 96.839742 203.716257 
L 99.396077 200.727351 
L 104.508747 194.443251 
L 107.065082 191.638972 
L 109.621417 189.143808 
L 114.734087 184.721378 
L 117.290422 182.661753 
L 119.846757 180.757496 
L 122.403092 179.127817 
L 124.959427 177.863228 
L 127.515762 176.951951 
L 135.184767 174.765698 
L 142.853772 171.652143 
L 145.410107 171.094404 
L 147.966442 171.117682 
L 150.522777 171.723097 
L 153.079112 172.741496 
L 158.191782 174.966494 
L 160.748117 175.779814 
L 163.304452 176.354075 
L 168.417122 177.308272 
L 170.973457 177.940415 
L 178.642462 180.119697 
L 181.198797 180.531699 
L 183.755132 180.699466 
L 188.867802 180.731462 
L 191.424137 180.891801 
L 193.980472 181.273627 
L 196.536807 181.864779 
L 206.762147 184.657139 
L 214.431152 186.489634 
L 222.100157 188.421517 
L 229.769162 190.144355 
L 232.325497 190.86812 
L 237.438168 192.70012 
L 242.550838 194.624609 
L 245.107173 195.428569 
L 250.219843 196.704582 
L 255.332513 197.996876 
L 265.557853 201.085538 
L 268.114188 201.625766 
L 278.339528 203.346215 
L 286.008533 205.201243 
L 288.564868 205.639135 
L 291.121203 205.89621 
L 298.790208 206.234222 
L 301.346543 206.539313 
L 303.902878 207.026359 
L 314.128218 209.517102 
L 319.240888 210.301542 
L 326.909893 211.135228 
L 332.022563 211.417167 
L 337.135233 211.309381 
L 342.247903 210.985879 
L 344.804238 210.746865 
L 347.360573 210.344753 
L 349.916908 209.624108 
L 352.473243 208.422555 
L 355.029578 206.635778 
L 357.585913 204.273972 
L 360.142248 201.484289 
L 365.254918 195.701819 
L 367.811253 193.273745 
L 370.367588 191.385841 
L 372.923923 190.030365 
L 375.480258 189.063811 
L 380.592928 187.424136 
L 383.149263 186.393698 
L 385.705598 185.143417 
L 393.374603 181.068628 
L 395.930938 180.058793 
L 398.487273 179.372117 
L 398.487273 179.372117 
" clip-path="url(#pdbda869fb6)" style="fill: none; stroke: #f6a283; stroke-width: 1.5; stroke-linecap: square"/>
   </g>
   <g id="line2d_19">
    <path d="M 73.832727 215.696159 
L 76.389062 215.499235 
L 81.501732 213.249299 
L 84.058067 212.577715 
L 89.170737 212.151953 
L 91.727072 211.170796 
L 94.283407 208.984045 
L 96.839742 205.670695 
L 99.396077 201.826327 
L 101.952412 198.237092 
L 104.508747 195.428946 
L 109.621417 191.422197 
L 112.177752 188.875346 
L 114.734087 185.352529 
L 117.290422 181.298997 
L 119.846757 177.969271 
L 122.403092 176.938125 
L 124.959427 179.300405 
L 127.515762 184.933158 
L 130.072097 192.215474 
L 132.628432 198.423056 
L 135.184767 200.708684 
L 137.741102 197.286201 
L 140.297437 188.299583 
L 145.410107 163.80856 
L 147.966442 155.429461 
L 150.522777 153.031768 
L 153.079112 156.599331 
L 158.191782 171.483948 
L 160.748117 175.956427 
L 163.304452 175.468576 
L 165.860787 170.327392 
L 168.417122 162.782647 
L 170.973457 156.009923 
L 173.529792 152.763805 
L 176.086127 154.281297 
L 178.642462 159.881128 
L 181.198797 167.383767 
L 183.755132 174.118144 
L 186.311467 178.044746 
L 188.867802 178.507622 
L 191.424137 176.32579 
L 193.980472 173.245437 
L 196.536807 171.053808 
L 199.093142 170.77946 
L 201.649477 172.328604 
L 204.205812 174.680457 
L 206.762147 176.500237 
L 209.318482 176.8494 
L 211.874817 175.654112 
L 214.431152 173.730895 
L 216.987487 172.388247 
L 219.543822 172.81661 
L 222.100157 175.560309 
L 224.656492 180.304837 
L 229.769162 191.563979 
L 232.325497 195.880017 
L 234.881832 198.633516 
L 237.438168 200.092666 
L 242.550838 201.811543 
L 245.107173 203.17823 
L 247.663508 205.03429 
L 250.219843 207.083664 
L 252.776178 208.942175 
L 255.332513 210.355042 
L 257.888848 211.298537 
L 260.445183 211.93042 
L 265.557853 212.902266 
L 268.114188 213.220608 
L 270.670523 213.203273 
L 273.226858 212.716808 
L 278.339528 210.866714 
L 280.895863 210.298862 
L 283.452198 210.570558 
L 286.008533 211.891323 
L 288.564868 214.130068 
L 293.677538 219.496347 
L 296.233873 221.570676 
L 298.790208 222.829179 
L 301.346543 223.290968 
L 303.902878 223.135654 
L 306.459213 222.526747 
L 309.015548 221.46584 
L 311.571883 219.762778 
L 314.128218 217.146158 
L 316.684553 213.463401 
L 319.240888 208.867122 
L 321.797223 203.882889 
L 324.353558 199.303786 
L 326.909893 195.937851 
L 329.466228 194.307225 
L 332.022563 194.427725 
L 334.578898 195.77025 
L 337.135233 197.431073 
L 339.691568 198.450178 
L 342.247903 198.153284 
L 344.804238 196.382575 
L 347.360573 193.527139 
L 349.916908 190.346653 
L 352.473243 187.665426 
L 355.029578 186.062939 
L 357.585913 185.682622 
L 360.142248 186.226532 
L 362.698583 187.124312 
L 365.254918 187.794756 
L 367.811253 187.88577 
L 370.367588 187.395284 
L 372.923923 186.63181 
L 375.480258 186.043644 
L 378.036593 185.999208 
L 380.592928 186.616959 
L 385.705598 188.902833 
L 388.261933 189.749481 
L 390.818268 189.981563 
L 393.374603 189.593659 
L 398.487273 188.147504 
L 398.487273 188.147504 
" clip-path="url(#pdbda869fb6)" style="fill: none; stroke: #f29072; stroke-width: 1.5; stroke-linecap: square"/>
   </g>
   <g id="line2d_20">
    <path d="M 73.832727 223.290968 
L 76.389062 223.135654 
L 78.945397 222.526747 
L 81.501732 221.46584 
L 84.058067 219.762778 
L 86.614402 217.146158 
L 89.170737 213.463401 
L 91.727072 208.867122 
L 94.283407 203.882889 
L 96.839742 199.303786 
L 99.396077 195.937851 
L 101.952412 194.307225 
L 104.508747 194.427725 
L 107.065082 195.77025 
L 109.621417 197.431073 
L 112.177752 198.450178 
L 114.734087 198.153284 
L 117.290422 196.382575 
L 119.846757 193.527139 
L 122.403092 190.346653 
L 124.959427 187.665426 
L 127.515762 186.062939 
L 130.072097 185.682622 
L 132.628432 186.226532 
L 135.184767 187.124312 
L 137.741102 187.794756 
L 140.297437 187.88577 
L 142.853772 187.395284 
L 145.410107 186.63181 
L 147.966442 186.043644 
L 150.522777 185.999208 
L 153.079112 186.616959 
L 158.191782 188.902833 
L 160.748117 189.749481 
L 163.304452 189.981563 
L 165.860787 189.593659 
L 170.973457 188.147504 
L 173.529792 187.887259 
L 176.086127 188.279686 
L 178.642462 189.296998 
L 186.311467 193.401197 
L 188.867802 194.237625 
L 191.424137 194.667221 
L 193.980472 194.782894 
L 199.093142 194.5485 
L 204.205812 194.284296 
L 206.762147 194.393016 
L 209.318482 194.869599 
L 211.874817 195.851768 
L 214.431152 197.352309 
L 219.543822 200.978765 
L 222.100157 202.294263 
L 224.656492 202.824349 
L 227.212827 202.571155 
L 229.769162 201.9066 
L 232.325497 201.451825 
L 234.881832 201.800317 
L 237.438168 203.1992 
L 242.550838 207.446256 
L 245.107173 208.507718 
L 247.663508 207.842418 
L 250.219843 205.48339 
L 252.776178 202.343029 
L 255.332513 199.972816 
L 257.888848 199.975893 
L 260.445183 203.293684 
L 263.001518 209.675343 
L 265.557853 217.590724 
L 268.114188 224.673431 
L 270.670523 228.55095 
L 273.226858 227.737142 
L 275.783193 222.21566 
L 278.339528 213.460517 
L 280.895863 203.875589 
L 283.452198 195.885232 
L 286.008533 191.058888 
L 288.564868 189.633666 
L 291.121203 190.616874 
L 293.677538 192.389021 
L 296.233873 193.50797 
L 298.790208 193.337648 
L 303.902878 191.170796 
L 306.459213 191.195091 
L 309.015548 192.714728 
L 314.128218 197.652591 
L 316.684553 198.565056 
L 319.240888 197.156253 
L 321.797223 193.490873 
L 326.909893 183.697889 
L 329.466228 180.279985 
L 332.022563 178.884714 
L 334.578898 179.278174 
L 339.691568 181.911533 
L 342.247903 182.585022 
L 347.360573 182.740719 
L 349.916908 183.546563 
L 352.473243 185.569592 
L 355.029578 188.75939 
L 360.142248 196.167826 
L 362.698583 198.949783 
L 365.254918 200.650709 
L 367.811253 201.42712 
L 370.367588 201.624518 
L 372.923923 201.478263 
L 375.480258 200.923621 
L 378.036593 199.638609 
L 380.592928 197.303682 
L 383.149263 193.928975 
L 385.705598 190.04797 
L 388.261933 186.63804 
L 390.818268 184.772698 
L 393.374603 185.160451 
L 395.930938 187.798875 
L 398.487273 191.92693 
L 398.487273 191.92693 
" clip-path="url(#pdbda869fb6)" style="fill: none; stroke: #ea7b60; stroke-width: 1.5; stroke-linecap: square"/>
   </g>
   <g id="line2d_21">
    <path d="M 73.832727 228.55095 
L 76.389062 227.737142 
L 78.945397 222.21566 
L 81.501732 213.460517 
L 84.058067 203.875589 
L 86.614402 195.885232 
L 89.170737 191.058888 
L 91.727072 189.633666 
L 94.283407 190.616874 
L 96.839742 192.389021 
L 99.396077 193.50797 
L 101.952412 193.337648 
L 107.065082 191.170796 
L 109.621417 191.195091 
L 112.177752 192.714728 
L 117.290422 197.652591 
L 119.846757 198.565056 
L 122.403092 197.156253 
L 124.959427 193.490873 
L 130.072097 183.697889 
L 132.628432 180.279985 
L 135.184767 178.884714 
L 137.741102 179.278174 
L 142.853772 181.911533 
L 145.410107 182.585022 
L 150.522777 182.740719 
L 153.079112 183.546563 
L 155.635447 185.569592 
L 158.191782 188.75939 
L 163.304452 196.167826 
L 165.860787 198.949783 
L 168.417122 200.650709 
L 170.973457 201.42712 
L 173.529792 201.624518 
L 176.086127 201.478263 
L 178.642462 200.923621 
L 181.198797 199.638609 
L 183.755132 197.303682 
L 186.311467 193.928975 
L 188.867802 190.04797 
L 191.424137 186.63804 
L 193.980472 184.772698 
L 196.536807 185.160451 
L 199.093142 187.798875 
L 201.649477 191.92693 
L 204.205812 196.314373 
L 206.762147 199.757885 
L 209.318482 201.548447 
L 211.874817 201.689548 
L 214.431152 200.774093 
L 216.987487 199.60335 
L 219.543822 198.760637 
L 222.100157 198.368362 
L 224.656492 198.149755 
L 227.212827 197.744465 
L 229.769162 197.082373 
L 232.325497 196.581856 
L 234.881832 197.031179 
L 237.438168 199.187216 
L 239.994503 203.292325 
L 245.107173 214.336906 
L 247.663508 218.405472 
L 250.219843 219.811908 
L 252.776178 218.337849 
L 255.332513 214.88725 
L 257.888848 211.168766 
L 260.445183 209.011518 
L 263.001518 209.609279 
L 265.557853 213.025097 
L 270.670523 223.266484 
L 273.226858 226.560355 
L 275.783193 227.015883 
L 278.339528 224.671084 
L 283.452198 216.29617 
L 286.008533 213.441299 
L 288.564868 213.043667 
L 291.121203 215.355227 
L 293.677538 219.842971 
L 296.233873 225.386188 
L 298.790208 230.550619 
L 301.346543 233.862821 
L 303.902878 234.070836 
L 306.459213 230.41057 
L 309.015548 222.871022 
L 311.571883 212.383334 
L 314.128218 200.80365 
L 316.684553 190.577422 
L 319.240888 184.084642 
L 321.797223 182.832639 
L 324.353558 186.799614 
L 326.909893 194.24857 
L 329.466228 202.185764 
L 332.022563 207.372994 
L 334.578898 207.53202 
L 337.135233 202.240548 
L 339.691568 193.100825 
L 342.247903 183.05371 
L 344.804238 175.09348 
L 347.360573 170.935155 
L 349.916908 170.244779 
L 352.473243 170.815037 
L 355.029578 169.644151 
L 357.585913 164.446033 
L 360.142248 154.892126 
L 362.698583 142.981968 
L 365.254918 132.329405 
L 367.811253 126.660473 
L 370.367588 128.205111 
L 372.923923 136.735638 
L 375.480258 149.713866 
L 378.036593 163.484913 
L 380.592928 174.946907 
L 383.149263 182.883339 
L 388.261933 193.558657 
L 390.818268 200.812212 
L 395.930938 220.244535 
L 398.487273 226.424513 
L 398.487273 226.424513 
" clip-path="url(#pdbda869fb6)" style="fill: none; stroke: #e0654f; stroke-width: 1.5; stroke-linecap: square"/>
   </g>
   <g id="line2d_22">
    <path d="M 73.832727 295.488 
L 76.389062 276.510738 
L 78.945397 242.346483 
L 81.501732 204.733706 
L 84.058067 176.078283 
L 86.614402 165.338439 
L 89.170737 175.19326 
L 91.727072 201.432323 
L 94.283407 234.689211 
L 96.839742 263.809413 
L 99.396077 279.600455 
L 101.952412 277.648352 
L 104.508747 259.300569 
L 107.065082 230.632296 
L 109.621417 199.945511 
L 112.177752 174.824779 
L 114.734087 159.830115 
L 117.290422 155.559393 
L 119.846757 159.226004 
L 122.403092 166.319924 
L 124.959427 172.573163 
L 127.515762 175.445882 
L 130.072097 174.65006 
L 135.184767 168.719984 
L 137.741102 167.496851 
L 140.297437 168.569758 
L 142.853772 171.289462 
L 145.410107 174.324844 
L 147.966442 176.420705 
L 150.522777 176.996842 
L 153.079112 176.329332 
L 155.635447 175.287226 
L 158.191782 174.81292 
L 160.748117 175.433343 
L 163.304452 177.039244 
L 165.860787 179.011506 
L 168.417122 180.593691 
L 170.973457 181.298748 
L 173.529792 181.141843 
L 176.086127 180.597792 
L 178.642462 180.328466 
L 181.198797 180.836786 
L 183.755132 182.227025 
L 188.867802 186.155814 
L 191.424137 187.652094 
L 193.980472 188.46607 
L 196.536807 188.748415 
L 199.093142 188.890161 
L 201.649477 189.298703 
L 204.205812 190.189657 
L 206.762147 191.499132 
L 209.318482 192.949478 
L 211.874817 194.219133 
L 214.431152 195.117384 
L 216.987487 195.67102 
L 222.100157 196.608918 
L 224.656492 197.392711 
L 232.325497 200.406814 
L 234.881832 201.067493 
L 242.550838 202.489779 
L 245.107173 203.325594 
L 250.219843 205.394173 
L 252.776178 206.192957 
L 255.332513 206.627943 
L 263.001518 206.942444 
L 265.557853 207.458315 
L 268.114188 208.30793 
L 270.670523 209.298857 
L 273.226858 210.144559 
L 275.783193 210.606008 
L 278.339528 210.607337 
L 288.564868 209.30594 
L 291.121203 209.182428 
L 293.677538 208.810275 
L 296.233873 207.872392 
L 298.790208 206.170444 
L 301.346543 203.716257 
L 303.902878 200.727351 
L 309.015548 194.443251 
L 311.571883 191.638972 
L 314.128218 189.143808 
L 319.240888 184.721378 
L 321.797223 182.661753 
L 324.353558 180.757496 
L 326.909893 179.127817 
L 329.466228 177.863228 
L 332.022563 176.951951 
L 339.691568 174.765698 
L 347.360573 171.652143 
L 349.916908 171.094404 
L 352.473243 171.117682 
L 355.029578 171.723097 
L 357.585913 172.741496 
L 362.698583 174.966494 
L 365.254918 175.779814 
L 367.811253 176.354075 
L 372.923923 177.308272 
L 375.480258 177.940415 
L 383.149263 180.119697 
L 385.705598 180.531699 
L 388.261933 180.699466 
L 393.374603 180.731462 
L 395.930938 180.891801 
L 398.487273 181.273627 
L 398.487273 181.273627 
" clip-path="url(#pdbda869fb6)" style="fill: none; stroke: #d44e41; stroke-width: 1.5; stroke-linecap: square"/>
   </g>
   <g id="line2d_23">
    <path d="M 73.832727 234.070836 
L 76.389062 230.41057 
L 78.945397 222.871022 
L 81.501732 212.383334 
L 84.058067 200.80365 
L 86.614402 190.577422 
L 89.170737 184.084642 
L 91.727072 182.832639 
L 94.283407 186.799614 
L 96.839742 194.24857 
L 99.396077 202.185764 
L 101.952412 207.372994 
L 104.508747 207.53202 
L 107.065082 202.240548 
L 109.621417 193.100825 
L 112.177752 183.05371 
L 114.734087 175.09348 
L 117.290422 170.935155 
L 119.846757 170.244779 
L 122.403092 170.815037 
L 124.959427 169.644151 
L 127.515762 164.446033 
L 130.072097 154.892126 
L 132.628432 142.981968 
L 135.184767 132.329405 
L 137.741102 126.660473 
L 140.297437 128.205111 
L 142.853772 136.735638 
L 145.410107 149.713866 
L 147.966442 163.484913 
L 150.522777 174.946907 
L 153.079112 182.883339 
L 158.191782 193.558657 
L 160.748117 200.812212 
L 165.860787 220.244535 
L 168.417122 226.424513 
L 170.973457 225.015966 
L 173.529792 214.140898 
L 176.086127 195.379748 
L 178.642462 173.739842 
L 181.198797 156.063496 
L 183.755132 148.472586 
L 186.311467 153.921095 
L 188.867802 170.925916 
L 191.424137 194.056339 
L 193.980472 216.001126 
L 196.536807 230.344834 
L 199.093142 233.885535 
L 201.649477 227.549457 
L 206.762147 203.563365 
L 209.318482 195.926443 
L 211.874817 194.509023 
L 214.431152 198.270556 
L 216.987487 204.418395 
L 219.543822 210.178824 
L 222.100157 214.296672 
L 224.656492 217.529117 
L 227.212827 221.94252 
L 229.769162 229.435522 
L 232.325497 240.295885 
L 234.881832 252.571175 
L 237.438168 262.618151 
L 239.994503 266.603705 
L 242.550838 262.253175 
L 245.107173 250.009696 
L 250.219843 216.046997 
L 252.776178 203.438163 
L 255.332513 197.608502 
L 257.888848 198.124815 
L 260.445183 202.102428 
L 263.001518 205.57305 
L 265.557853 205.214827 
L 268.114188 199.700797 
L 270.670523 190.136057 
L 273.226858 179.47669 
L 275.783193 171.253193 
L 278.339528 168.169164 
L 280.895863 171.129209 
L 283.452198 179.008686 
L 286.008533 189.149717 
L 288.564868 198.303732 
L 291.121203 203.638645 
L 293.677538 203.493492 
L 296.233873 197.724267 
L 298.790208 187.645074 
L 301.346543 175.66212 
L 303.902878 164.715045 
L 306.459213 157.620617 
L 309.015548 156.407309 
L 311.571883 161.75633 
L 314.128218 172.701787 
L 319.240888 200.394258 
L 321.797223 210.185371 
L 324.353558 213.660638 
L 326.909893 210.199722 
L 329.466228 201.239686 
L 332.022563 189.820345 
L 334.578898 179.5983 
L 337.135233 173.695059 
L 339.691568 173.806004 
L 342.247903 179.870743 
L 344.804238 190.35155 
L 349.916908 215.129708 
L 352.473243 225.008263 
L 355.029578 231.085612 
L 357.585913 232.366319 
L 360.142248 228.263746 
L 362.698583 218.763605 
L 365.254918 204.792767 
L 367.811253 188.549004 
L 370.367588 173.441897 
L 372.923923 163.407396 
L 375.480258 161.664451 
L 378.036593 169.337708 
L 380.592928 184.580035 
L 383.149263 202.744437 
L 385.705598 217.766624 
L 388.261933 224.372916 
L 390.818268 220.274134 
L 393.374603 207.380368 
L 395.930938 191.377948 
L 398.487273 179.656371 
L 398.487273 179.656371 
" clip-path="url(#pdbda869fb6)" style="fill: none; stroke: #c43032; stroke-width: 1.5; stroke-linecap: square"/>
   </g>
   <g id="line2d_24">
    <path d="M 73.832727 266.603705 
L 76.389062 262.253175 
L 78.945397 250.009696 
L 84.058067 216.046997 
L 86.614402 203.438163 
L 89.170737 197.608502 
L 91.727072 198.124815 
L 94.283407 202.102428 
L 96.839742 205.57305 
L 99.396077 205.214827 
L 101.952412 199.700797 
L 104.508747 190.136057 
L 107.065082 179.47669 
L 109.621417 171.253193 
L 112.177752 168.169164 
L 114.734087 171.129209 
L 117.290422 179.008686 
L 119.846757 189.149717 
L 122.403092 198.303732 
L 124.959427 203.638645 
L 127.515762 203.493492 
L 130.072097 197.724267 
L 132.628432 187.645074 
L 135.184767 175.66212 
L 137.741102 164.715045 
L 140.297437 157.620617 
L 142.853772 156.407309 
L 145.410107 161.75633 
L 147.966442 172.701787 
L 153.079112 200.394258 
L 155.635447 210.185371 
L 158.191782 213.660638 
L 160.748117 210.199722 
L 163.304452 201.239686 
L 165.860787 189.820345 
L 168.417122 179.5983 
L 170.973457 173.695059 
L 173.529792 173.806004 
L 176.086127 179.870743 
L 178.642462 190.35155 
L 183.755132 215.129708 
L 186.311467 225.008263 
L 188.867802 231.085612 
L 191.424137 232.366319 
L 193.980472 228.263746 
L 196.536807 218.763605 
L 199.093142 204.792767 
L 201.649477 188.549004 
L 204.205812 173.441897 
L 206.762147 163.407396 
L 209.318482 161.664451 
L 211.874817 169.337708 
L 214.431152 184.580035 
L 216.987487 202.744437 
L 219.543822 217.766624 
L 222.100157 224.372916 
L 224.656492 220.274134 
L 227.212827 207.380368 
L 229.769162 191.377948 
L 232.325497 179.656371 
L 234.881832 178.295514 
L 237.438168 189.302173 
L 239.994503 209.283209 
L 242.550838 230.229068 
L 245.107173 242.246824 
L 247.663508 237.271499 
L 250.219843 212.341275 
L 252.776178 171.144616 
L 255.332513 123.192565 
L 257.888848 80.877325 
L 260.445183 55.480132 
L 263.001518 53.568 
L 265.557853 75.035097 
L 268.114188 113.395083 
L 270.670523 158.094499 
L 273.226858 197.925634 
L 275.783193 224.320722 
L 278.339528 233.480338 
L 280.895863 226.808017 
L 283.452198 209.755807 
L 286.008533 189.682314 
L 288.564868 173.531542 
L 291.121203 166.038795 
L 293.677538 168.862041 
L 296.233873 180.679153 
L 298.790208 198.019007 
L 301.346543 216.468215 
L 303.902878 231.903352 
L 306.459213 241.480136 
L 309.015548 244.209265 
L 311.571883 241.036349 
L 316.684553 227.558431 
L 319.240888 223.312578 
L 321.797223 223.377182 
L 324.353558 227.736494 
L 329.466228 241.879604 
L 332.022563 246.626759 
L 334.578898 247.614568 
L 337.135233 245.067061 
L 339.691568 240.648245 
L 342.247903 236.647003 
L 344.804238 234.861208 
L 347.360573 235.677299 
L 349.916908 237.775977 
L 352.473243 238.628132 
L 355.029578 235.59044 
L 357.585913 227.128379 
L 360.142248 213.619092 
L 365.254918 181.748949 
L 367.811253 169.99885 
L 370.367588 163.906421 
L 372.923923 163.237289 
L 375.480258 165.959162 
L 378.036593 169.202897 
L 380.592928 170.504833 
L 383.149263 168.776011 
L 385.705598 164.591205 
L 388.261933 159.719496 
L 390.818268 156.171228 
L 393.374603 155.246028 
L 395.930938 157.038396 
L 398.487273 160.610573 
L 398.487273 160.610573 
" clip-path="url(#pdbda869fb6)" style="fill: none; stroke: #b40426; stroke-width: 1.5; stroke-linecap: square"/>
   </g>
   <g id="patch_3">
    <path d="M 57.6 307.584 
L 57.6 41.472 
" style="fill: none; stroke: #000000; stroke-width: 0.8; stroke-linejoin: miter; stroke-linecap: square"/>
   </g>
   <g id="patch_4">
    <path d="M 414.72 307.584 
L 414.72 41.472 
" style="fill: none; stroke: #000000; stroke-width: 0.8; stroke-linejoin: miter; stroke-linecap: square"/>
   </g>
   <g id="patch_5">
    <path d="M 57.6 307.584 
L 414.72 307.584 
" style="fill: none; stroke: #000000; stroke-width: 0.8; stroke-linejoin: miter; stroke-linecap: square"/>
   </g>
   <g id="patch_6">
    <path d="M 57.6 41.472 
L 414.72 41.472 
" style="fill: none; stroke: #000000; stroke-width: 0.8; stroke-linejoin: miter; stroke-linecap: square"/>
   </g>
  </g>
 </g>
 <defs>
  <clipPath id="pdbda869fb6">
   <rect x="57.6" y="41.472" width="357.12" height="266.112"/>
  </clipPath>
 </defs>
</svg>
